<svg width="205" height="170" viewBox="0 0 205 170" fill="none" xmlns="http://www.w3.org/2000/svg">
<path fill-rule="evenodd" clip-rule="evenodd" d="M149.803 6.10168C150.132 6.10168 150.402 6.36001 150.421 6.68574L150.422 6.7222V11.8104C150.422 12.1531 150.145 12.4309 149.803 12.4309C149.474 12.4309 149.204 12.1726 149.186 11.8469L149.185 11.8104V6.7222C149.185 6.3795 149.461 6.10168 149.803 6.10168Z" fill="#4B5151"/>
<path fill-rule="evenodd" clip-rule="evenodd" d="M152.339 8.64587C152.68 8.64587 152.957 8.92369 152.957 9.26639C152.957 9.59685 152.7 9.86698 152.375 9.88585L152.339 9.88691H147.267C146.925 9.88691 146.648 9.60909 146.648 9.26639C146.648 8.93593 146.906 8.6658 147.231 8.64693L147.267 8.64587H152.339Z" fill="#4B5151"/>
<path fill-rule="evenodd" clip-rule="evenodd" d="M113.682 24.7585C114.011 24.7585 114.281 25.0169 114.299 25.3426L114.3 25.3791V30.4673C114.3 30.81 114.024 31.0878 113.682 31.0878C113.353 31.0878 113.083 30.8295 113.065 30.5038L113.063 30.4673V25.3791C113.063 25.0364 113.34 24.7585 113.682 24.7585Z" fill="#4B5151"/>
<path fill-rule="evenodd" clip-rule="evenodd" d="M116.218 27.3027C116.559 27.3027 116.836 27.5805 116.836 27.9232C116.836 28.2537 116.579 28.5238 116.254 28.5427L116.218 28.5438H111.146C110.805 28.5438 110.528 28.2659 110.528 27.9232C110.528 27.5928 110.785 27.3227 111.11 27.3038L111.146 27.3027H116.218Z" fill="#4B5151"/>
<path fill-rule="evenodd" clip-rule="evenodd" d="M84.5296 0C84.859 0 85.1283 0.258325 85.1471 0.584056L85.1481 0.620516V5.70875C85.1481 6.05145 84.8712 6.32926 84.5296 6.32926C84.2002 6.32926 83.931 6.07094 83.9122 5.74521L83.9111 5.70875V0.620516C83.9111 0.277814 84.188 0 84.5296 0Z" fill="#4B5151"/>
<path fill-rule="evenodd" clip-rule="evenodd" d="M87.0656 2.54419C87.4071 2.54419 87.6841 2.822 87.6841 3.16471C87.6841 3.49517 87.4266 3.76529 87.1019 3.78417L87.0656 3.78522H81.9938C81.6522 3.78522 81.3752 3.50741 81.3752 3.16471C81.3752 2.83424 81.6327 2.56412 81.9574 2.54524L81.9938 2.54419H87.0656Z" fill="#4B5151"/>
<path fill-rule="evenodd" clip-rule="evenodd" d="M53.9339 41.4504C54.2633 41.4504 54.5326 41.7088 54.5514 42.0345L54.5525 42.071V47.1592C54.5525 47.5019 54.2755 47.7797 53.9339 47.7797C53.6046 47.7797 53.3353 47.5214 53.3165 47.1956L53.3154 47.1592V42.071C53.3154 41.7283 53.5924 41.4504 53.9339 41.4504Z" fill="#4B5151"/>
<path fill-rule="evenodd" clip-rule="evenodd" d="M56.4904 43.9946C56.832 43.9946 57.1089 44.2724 57.1089 44.6151C57.1089 44.9455 56.8515 45.2157 56.5268 45.2345L56.4904 45.2356H51.398C51.0565 45.2356 50.7795 44.9578 50.7795 44.6151C50.7795 44.2846 51.037 44.0145 51.3617 43.9956L51.398 43.9946H56.4904Z" fill="#4B5151"/>
<path fill-rule="evenodd" clip-rule="evenodd" d="M18.8854 21.6974C19.2147 21.6974 19.484 21.9557 19.5028 22.2814L19.5039 22.3179V27.4268C19.5039 27.7695 19.2269 28.0473 18.8854 28.0473C18.556 28.0473 18.2867 27.789 18.2679 27.4633L18.2668 27.4268V22.3179C18.2668 21.9752 18.5438 21.6974 18.8854 21.6974Z" fill="#4B5151"/>
<path fill-rule="evenodd" clip-rule="evenodd" d="M21.421 24.2415C21.7626 24.2415 22.0395 24.5193 22.0395 24.862C22.0395 25.1925 21.782 25.4626 21.4573 25.4815L21.421 25.4825H16.3492C16.0076 25.4825 15.7307 25.2047 15.7307 24.862C15.7307 24.5316 15.9882 24.2614 16.3129 24.2426L16.3492 24.2415H21.421Z" fill="#4B5151"/>
<path fill-rule="evenodd" clip-rule="evenodd" d="M13.339 97.2346C13.6684 97.2346 13.9376 97.4929 13.9564 97.8187L13.9575 97.8551V102.964C13.9575 103.307 13.6806 103.585 13.339 103.585C13.0096 103.585 12.7403 103.326 12.7215 103.001L12.7205 102.964V97.8551C12.7205 97.5124 12.9974 97.2346 13.339 97.2346Z" fill="#4B5151"/>
<path fill-rule="evenodd" clip-rule="evenodd" d="M15.8957 99.7994C16.2373 99.7994 16.5142 100.077 16.5142 100.42C16.5142 100.75 16.2567 101.02 15.932 101.039L15.8957 101.04H10.8033C10.4617 101.04 10.1848 100.763 10.1848 100.42C10.1848 100.089 10.4423 99.8193 10.767 99.8004L10.8033 99.7994H15.8957Z" fill="#4B5151"/>
<path fill-rule="evenodd" clip-rule="evenodd" d="M3.1544 55.0813C3.48379 55.0813 3.75304 55.3396 3.77186 55.6654L3.77291 55.7018V60.79C3.77291 61.1327 3.49599 61.4106 3.1544 61.4106C2.825 61.4106 2.55575 61.1522 2.53694 60.8265L2.53589 60.79V55.7018C2.53589 55.3591 2.8128 55.0813 3.1544 55.0813Z" fill="#4B5151"/>
<path fill-rule="evenodd" clip-rule="evenodd" d="M5.69028 57.6255C6.03187 57.6255 6.30878 57.9033 6.30878 58.246C6.30878 58.5765 6.05129 58.8466 5.72662 58.8655L5.69028 58.8665H0.618508C0.276916 58.8665 0 58.5887 0 58.246C0 57.9155 0.257489 57.6454 0.582166 57.6265L0.618508 57.6255H5.69028Z" fill="#4B5151"/>
<path fill-rule="evenodd" clip-rule="evenodd" d="M172.791 69.7047C173.121 69.7047 173.39 69.963 173.409 70.2888L173.41 70.3252V75.4135C173.41 75.7562 173.133 76.034 172.791 76.034C172.462 76.034 172.193 75.7757 172.174 75.4499L172.173 75.4135V70.3252C172.173 69.9825 172.45 69.7047 172.791 69.7047Z" fill="#4B5151"/>
<path fill-rule="evenodd" clip-rule="evenodd" d="M175.327 72.2489C175.669 72.2489 175.946 72.5267 175.946 72.8694C175.946 73.1999 175.688 73.47 175.363 73.4889L175.327 73.4899H170.255C169.914 73.4899 169.637 73.2121 169.637 72.8694C169.637 72.539 169.894 72.2688 170.219 72.25L170.255 72.2489H175.327Z" fill="#4B5151"/>
<path fill-rule="evenodd" clip-rule="evenodd" d="M182.171 27.4475C182.501 27.4475 182.77 27.7058 182.789 28.0316L182.79 28.068V33.1563C182.79 33.499 182.513 33.7768 182.171 33.7768C181.842 33.7768 181.573 33.5185 181.554 33.1927L181.553 33.1563V28.068C181.553 27.7253 181.83 27.4475 182.171 27.4475Z" fill="#4B5151"/>
<path fill-rule="evenodd" clip-rule="evenodd" d="M184.707 29.9917C185.049 29.9917 185.326 30.2695 185.326 30.6122C185.326 30.9427 185.068 31.2128 184.744 31.2317L184.707 31.2327H179.636C179.294 31.2327 179.017 30.9549 179.017 30.6122C179.017 30.2818 179.275 30.0116 179.599 29.9928L179.636 29.9917H184.707Z" fill="#4B5151"/>
<path fill-rule="evenodd" clip-rule="evenodd" d="M200.954 102.261C201.283 102.261 201.552 102.519 201.571 102.845L201.572 102.881V107.99C201.572 108.333 201.295 108.611 200.954 108.611C200.624 108.611 200.355 108.352 200.336 108.027L200.335 107.99V102.881C200.335 102.539 200.612 102.261 200.954 102.261Z" fill="#4B5151"/>
<path fill-rule="evenodd" clip-rule="evenodd" d="M203.489 104.805C203.831 104.805 204.108 105.083 204.108 105.426C204.108 105.756 203.85 106.026 203.526 106.045L203.489 106.046H198.418C198.076 106.046 197.799 105.768 197.799 105.426C197.799 105.095 198.057 104.825 198.381 104.806L198.418 104.805H203.489Z" fill="#4B5151"/>
<path fill-rule="evenodd" clip-rule="evenodd" d="M174.873 102.695L151.926 81.6183H116.217L116.568 82.0527H54.119L31.2341 103.13V108.569H54.119V169.297H152.297V108.114H174.873V102.695Z" fill="#42CAF0"/>
<path fill-rule="evenodd" clip-rule="evenodd" d="M143.659 137.175H138.649V158.169H132.917V136.803H128.279L136.134 114.733L143.659 137.175Z" fill="white"/>
<path fill-rule="evenodd" clip-rule="evenodd" d="M116.63 86.3546C116.96 86.3546 117.229 86.6129 117.248 86.9386L117.249 86.9751V167.353C117.249 167.695 116.972 167.973 116.63 167.973C116.301 167.973 116.032 167.715 116.013 167.389L116.012 167.353V86.9751C116.012 86.6324 116.289 86.3546 116.63 86.3546Z" fill="#FBFBFB"/>
<path fill-rule="evenodd" clip-rule="evenodd" d="M116.004 86.5189C116.244 86.2748 116.635 86.2719 116.879 86.5125C117.112 86.7434 117.124 87.1147 116.913 87.36L116.885 87.39L95.9382 108.715C95.6984 108.959 95.3068 108.962 95.0635 108.722C94.83 108.491 94.818 108.119 95.0295 107.874L95.0571 107.844L116.004 86.5189Z" fill="#FBFBFB"/>
<path fill-rule="evenodd" clip-rule="evenodd" d="M113.695 83.9334C113.935 83.6894 114.326 83.6866 114.57 83.9272C114.803 84.1582 114.815 84.5295 114.603 84.7747L114.576 84.8047L95.7525 103.958C95.5127 104.202 95.1211 104.205 94.8779 103.964C94.6443 103.733 94.6325 103.362 94.8441 103.117L94.8717 103.087L113.695 83.9334Z" fill="#FBFBFB"/>
<path fill-rule="evenodd" clip-rule="evenodd" d="M95.3534 102.985C95.6828 102.985 95.952 103.243 95.9708 103.569L95.9719 103.605V108.507C95.9719 108.838 95.7144 109.108 95.3897 109.127L95.3534 109.128H54.3256C53.984 109.128 53.7071 108.85 53.7071 108.507C53.7071 108.177 53.9646 107.907 54.2893 107.888L54.3256 107.887H94.7349V104.225L31.8119 104.226C31.4825 104.226 31.2132 103.967 31.1944 103.642L31.1934 103.605C31.1934 103.275 31.4508 103.004 31.7755 102.986L31.8119 102.985H95.3534Z" fill="#FBFBFB"/>
<path fill-rule="evenodd" clip-rule="evenodd" d="M173.038 102.55C173.379 102.55 173.656 102.828 173.656 103.171C173.656 103.501 173.399 103.771 173.074 103.79L173.038 103.791L130.773 103.791V107.452H152.153C152.482 107.452 152.752 107.71 152.77 108.036L152.771 108.073C152.771 108.403 152.514 108.673 152.189 108.692L152.153 108.693H130.155C129.825 108.693 129.556 108.435 129.537 108.109L129.536 108.073V103.171C129.536 102.84 129.794 102.57 130.118 102.551L130.155 102.55H173.038Z" fill="#FBFBFB"/>
<path fill-rule="evenodd" clip-rule="evenodd" d="M116.364 86.3043C116.643 86.1294 117.007 86.2048 117.195 86.4702L117.216 86.5016L130.411 107.682C130.592 107.972 130.504 108.355 130.215 108.537C129.936 108.712 129.571 108.636 129.383 108.371L129.362 108.34L116.167 87.1594C115.986 86.8688 116.074 86.4859 116.364 86.3043Z" fill="#FBFBFB"/>
<path fill-rule="evenodd" clip-rule="evenodd" d="M121.473 89.4918C121.751 89.3149 122.116 89.3878 122.306 89.6518L122.327 89.6831L130.718 102.941C130.901 103.231 130.816 103.614 130.527 103.798C130.25 103.975 129.885 103.902 129.695 103.638L129.674 103.607L121.283 90.3483C121.1 90.059 121.185 89.6755 121.473 89.4918Z" fill="#FBFBFB"/>
<path fill-rule="evenodd" clip-rule="evenodd" d="M140.422 46.2078C136.299 45.0702 133.33 45.7734 133.33 45.7734C130.711 39.9199 122.403 34.4594 122.403 34.4594C116.568 37.4999 119.248 49.9516 119.248 49.9516L115.908 51.2133C111.744 46.125 105.889 40.5611 104.219 40.4577C100.322 40.1888 100.198 57.6873 100.198 57.6873C90.7351 63.334 81.0452 69.2496 73.52 74.3172C73.788 70.6768 75.5198 65.9816 79.7257 60.2521C87.4158 49.7654 89.1064 35.8659 82.0142 27.4682C72.0562 15.6784 62.9435 19.6911 57.5212 24.9034C52.0371 30.1571 51.1918 39.4442 59.7891 33.2804C68.4276 27.0752 72.6747 30.2812 76.7156 37.9549C80.7772 45.608 68.242 57.3978 62.4074 66.9537C59.1293 72.3108 57.5212 77.6266 57.5831 82.0529H97.2089C97.1264 82.1357 97.0439 82.2391 96.9821 82.3218L98.9407 82.0529H111.558C116.589 86.9136 128.402 95.9732 131.041 90.7608C132.381 88.134 132.959 85.2382 132.402 82.508C133.577 84.7418 137.226 91.0711 140.401 89.313C143.164 87.7823 145.349 83.4801 144.813 78.971C146.855 77.0681 148.442 75.0618 149.432 72.9313C157.472 58.3906 144.071 47.2213 140.422 46.2078Z" fill="#FF845D"/>
<path fill-rule="evenodd" clip-rule="evenodd" d="M161.003 45.6312C161.343 45.5997 161.644 45.8508 161.676 46.192C161.706 46.5211 161.474 46.8138 161.153 46.8626L160.922 46.8883L160.774 46.9066C160.67 46.9198 160.558 46.935 160.438 46.9523L160.346 46.9657C159.721 47.0582 159.023 47.1852 158.27 47.3519C156.121 47.8281 153.973 48.5256 151.974 49.4841C148.99 50.9146 146.609 52.8001 145.042 55.1942C144.854 55.4806 144.471 55.5604 144.185 55.3723C143.9 55.1842 143.82 54.7995 144.008 54.513C145.712 51.9091 148.268 49.8853 151.44 48.3643C153.533 47.3613 155.769 46.6353 158.004 46.1401C158.786 45.9668 159.512 45.8346 160.166 45.738L160.356 45.7105C160.418 45.7019 160.477 45.6938 160.534 45.6863L160.777 45.6559C160.885 45.6431 160.961 45.6351 161.003 45.6312Z" fill="#878D93"/>
<path fill-rule="evenodd" clip-rule="evenodd" d="M152.466 56.1509C156.129 54.6528 159.869 54.1647 162.944 55.0646C163.272 55.1605 163.46 55.505 163.365 55.834C163.269 56.163 162.926 56.3519 162.598 56.256C159.829 55.4459 156.36 55.8986 152.933 57.3001C150.093 58.4617 147.663 60.1734 147.141 61.2309C146.989 61.5379 146.618 61.6635 146.312 61.5113C146.006 61.3592 145.881 60.9869 146.032 60.6798C146.723 59.2823 149.371 57.4168 152.466 56.1509Z" fill="#878D93"/>
<path fill-rule="evenodd" clip-rule="evenodd" d="M111.085 65.9514C113.715 65.6696 116.392 66.0056 118.616 66.7363C118.941 66.8429 119.118 67.1934 119.012 67.5191C118.905 67.8448 118.556 68.0223 118.231 67.9157C116.167 67.2373 113.663 66.9232 111.217 67.1854C108.102 67.5192 105.272 68.7474 102.916 71.0206C102.669 71.2581 102.278 71.2505 102.041 71.0034C101.804 70.7564 101.812 70.3636 102.058 70.1261C104.621 67.653 107.709 66.3133 111.085 65.9514Z" fill="#878D93"/>
<path fill-rule="evenodd" clip-rule="evenodd" d="M109.835 61.2062C113.39 61.1823 116.666 62.1429 118.52 63.7545C118.778 63.979 118.806 64.3708 118.582 64.6298C118.358 64.8888 117.968 64.9168 117.709 64.6923C116.11 63.3013 113.122 62.4252 109.844 62.4472C106.193 62.4717 102.603 63.5747 99.7881 65.7111C99.5157 65.9179 99.1278 65.8639 98.9217 65.5906C98.7156 65.3173 98.7693 64.9282 99.0418 64.7214C102.08 62.415 105.93 61.2324 109.835 61.2062Z" fill="#878D93"/>
<path fill-rule="evenodd" clip-rule="evenodd" d="M105.504 41.7065C105.637 41.3906 105.999 41.2422 106.314 41.3751C106.618 41.5032 106.766 41.846 106.658 42.1536L106.57 42.3735L106.487 42.5888C106.448 42.6905 106.407 42.8002 106.365 42.9173C106.152 43.5049 105.938 44.1563 105.739 44.8523C105.261 46.5206 104.942 48.1714 104.856 49.7026C104.698 52.4961 105.328 54.5746 106.892 55.7173C107.168 55.919 107.229 56.3071 107.028 56.5842C106.827 56.8612 106.44 56.9223 106.164 56.7206C104.192 55.2801 103.441 52.8036 103.621 49.6323C103.713 47.9976 104.049 46.2599 104.55 44.5097C104.757 43.7845 104.98 43.1061 105.203 42.4926L105.268 42.3137C105.3 42.2271 105.331 42.1449 105.361 42.0673L105.471 41.7889C105.485 41.7535 105.496 41.726 105.504 41.7065Z" fill="#878D93"/>
<path fill-rule="evenodd" clip-rule="evenodd" d="M122.737 35.7552C122.832 35.4261 123.175 35.2366 123.503 35.3319C123.819 35.4239 124.006 35.7472 123.934 36.0653L123.881 36.2596L123.824 36.4791C123.804 36.5578 123.782 36.642 123.761 36.7315C123.635 37.2451 123.51 37.8231 123.392 38.452C122.97 40.7168 122.764 43.0126 122.895 45.1421C122.989 46.6831 123.258 48.0653 123.721 49.2492C123.846 49.5682 123.689 49.9283 123.371 50.0535C123.053 50.1787 122.694 50.0216 122.569 49.7025C122.055 48.3871 121.761 46.88 121.66 45.218C121.523 42.9731 121.737 40.5807 122.176 38.2236C122.287 37.6307 122.405 37.0808 122.524 36.5837L122.559 36.4362C122.59 36.3108 122.619 36.1949 122.646 36.089L122.726 35.7907C122.73 35.7766 122.734 35.7648 122.737 35.7552Z" fill="#878D93"/>
<path fill-rule="evenodd" clip-rule="evenodd" d="M124.216 62.6922C125.056 62.4026 125.368 61.0907 124.913 59.7619C124.457 58.4331 123.408 57.5907 122.568 57.8803C121.728 58.1698 121.416 59.4818 121.871 60.8106C122.326 62.1393 123.376 62.9818 124.216 62.6922Z" fill="#878D93"/>
<path fill-rule="evenodd" clip-rule="evenodd" d="M136.3 58.8411C137.14 58.5515 137.452 57.2396 136.997 55.9108C136.542 54.582 135.492 53.7395 134.652 54.0291C133.812 54.3187 133.5 55.6307 133.956 56.9594C134.411 58.2882 135.461 59.1307 136.3 58.8411Z" fill="#878D93"/>
<path fill-rule="evenodd" clip-rule="evenodd" d="M135.206 61.3278L133.722 63.7892C133.515 64.1409 133.041 64.2443 132.67 64.0374L130.382 62.6723C129.825 62.3414 129.928 61.5554 130.567 61.3692L134.34 60.2937C135 60.0868 135.557 60.7694 135.206 61.3278Z" fill="#878D93"/>
<path fill-rule="evenodd" clip-rule="evenodd" d="M132.557 63.7598C132.42 63.0362 133.431 62.7189 133.73 63.3916C134.107 64.2415 134.755 65.1703 135.259 65.5597L135.367 65.6434C135.578 65.8022 135.564 65.7251 135.643 65.0231C135.681 64.6825 135.987 64.4374 136.326 64.4755C136.666 64.5136 136.91 64.8206 136.872 65.1612C136.681 66.8753 135.64 67.4208 134.504 66.543C134.337 66.4139 134.165 66.2519 133.995 66.0661L133.972 66.0405L133.971 66.0705C133.954 66.4037 133.914 66.7074 133.849 66.9629L133.829 67.0381C133.633 67.732 133.195 68.1828 132.521 68.0963C131.973 68.026 131.418 67.5745 130.762 66.7378C130.55 66.4686 130.596 66.0785 130.865 65.8664C131.133 65.6543 131.522 65.7007 131.733 65.9699C132.113 66.4533 132.409 66.7284 132.579 66.8256L132.593 66.8333L132.595 66.8288C132.606 66.8035 132.617 66.7727 132.628 66.7366L132.639 66.6987C132.811 66.0925 132.762 64.8463 132.557 63.7598Z" fill="#878D93"/>
<path fill-rule="evenodd" clip-rule="evenodd" d="M120.136 80.9346C120.341 80.661 120.729 80.6065 121.002 80.8128C122.676 82.0795 124.44 84.2934 126.185 87.087L126.281 87.2399C127.456 89.1357 128.642 91.3784 128.878 92.0114C128.998 92.3323 128.836 92.69 128.516 92.8103C128.208 92.9264 127.865 92.7793 127.734 92.481L127.686 92.3619C127.411 91.7049 126.314 89.6431 125.23 87.8954L125.048 87.6034C123.405 84.9957 121.755 82.9369 120.257 81.8036C119.984 81.5973 119.93 81.2082 120.136 80.9346Z" fill="#878D93"/>
<path fill-rule="evenodd" clip-rule="evenodd" d="M125.512 79.5358L125.545 79.5795C125.582 79.6258 125.592 79.6161 125.733 79.663C125.409 79.5547 125.233 79.2032 125.341 78.8781C125.449 78.553 125.8 78.3773 126.124 78.4857L126.161 78.4998C126.435 78.6131 126.654 78.9572 127.253 79.9979C127.772 80.8994 128.33 81.9644 128.846 83.0661C130.271 86.1085 131.171 88.9346 131.247 91.1948C131.259 91.5373 130.991 91.8244 130.65 91.8359C130.308 91.8475 130.022 91.5792 130.011 91.2367C129.942 89.1834 129.086 86.4967 127.727 83.594C127.257 82.5916 126.752 81.6199 126.277 80.784L126.091 80.4612C125.941 80.2048 125.804 79.9796 125.691 79.8024L125.608 79.6749C125.569 79.6163 125.537 79.5691 125.512 79.5358Z" fill="#878D93"/>
<path fill-rule="evenodd" clip-rule="evenodd" d="M108.582 74.4384C114.901 72.0086 120.727 71.4189 124.844 73.297C129.106 75.2372 131.751 78.0301 132.758 81.4071C133.658 84.4288 133.194 87.7915 131.572 91C131.418 91.3057 131.046 91.4278 130.741 91.2728C130.436 91.1178 130.315 90.7444 130.469 90.4388C131.956 87.4975 132.375 84.4567 131.572 81.7627C130.674 78.7493 128.285 76.2261 124.332 74.4269C120.583 72.7163 115.064 73.2749 109.025 75.5972C103.986 77.5349 99.1686 80.5502 97.4424 82.6913C97.2276 82.9578 96.8382 82.9991 96.5726 82.7835C96.307 82.568 96.2658 82.1773 96.4806 81.9109C98.3665 79.5716 103.358 76.4472 108.582 74.4384Z" fill="#878D93"/>
<path fill-rule="evenodd" clip-rule="evenodd" d="M134.712 77.636C135.003 77.4825 135.361 77.585 135.529 77.8636L135.553 77.9082L135.699 78.1917L135.838 78.4673C135.932 78.6546 136.032 78.8562 136.137 79.0707L136.2 79.2009C136.688 80.2041 137.176 81.2651 137.631 82.3373C137.972 83.1387 138.282 83.9163 138.553 84.6601C139.283 86.6614 139.707 88.3238 139.741 89.5648C139.751 89.9074 139.482 90.1928 139.14 90.2023C138.799 90.2119 138.514 89.9419 138.505 89.5993C138.475 88.5247 138.079 86.972 137.391 85.0868C137.128 84.3645 136.826 83.6066 136.493 82.824C136.047 81.7727 135.568 80.7304 135.088 79.7449L134.905 79.3708C134.846 79.2508 134.789 79.1356 134.733 79.0254L134.544 78.6521L134.452 78.474C134.293 78.1706 134.41 77.7955 134.712 77.636Z" fill="#878D93"/>
<path fill-rule="evenodd" clip-rule="evenodd" d="M139.815 75.9001C140.139 75.7924 140.489 75.9689 140.597 76.2942L140.675 76.5405L140.758 76.8079C140.796 76.9336 140.836 77.0682 140.878 77.2111C141.087 77.9247 141.296 78.7015 141.492 79.5159C141.802 80.8122 142.048 82.0793 142.204 83.2736L142.239 83.5489C142.529 85.9618 142.421 87.8761 141.778 89.1577C141.625 89.4638 141.253 89.5872 140.948 89.4332C140.643 89.2792 140.52 88.9062 140.673 88.6C141.198 87.553 141.28 85.7492 140.978 83.435C140.828 82.2882 140.59 81.0627 140.289 79.8061C140.118 79.0924 139.936 78.4078 139.752 77.7715L139.691 77.5613C139.651 77.4226 139.612 77.2922 139.575 77.1706L139.434 76.7204C139.43 76.706 139.426 76.6939 139.422 76.6842C139.315 76.3589 139.491 76.0078 139.815 75.9001Z" fill="#878D93"/>
<path fill-rule="evenodd" clip-rule="evenodd" d="M133.969 70.935C137.84 69.7869 141.195 70.4016 143.256 73.3163C143.967 74.3195 144.843 76.3298 145.301 77.8157C145.402 78.1431 145.219 78.4906 144.893 78.5918C144.567 78.693 144.22 78.5096 144.119 78.1822C143.697 76.8114 142.869 74.9118 142.247 74.035C140.544 71.6263 137.736 71.1118 134.319 72.1251C131.778 72.8789 129.048 74.5606 128.435 75.4789L128.412 75.5143C128.231 75.8051 127.85 75.8938 127.56 75.7125C127.27 75.5312 127.181 75.1484 127.362 74.8576C128.115 73.6463 131.131 71.7766 133.969 70.935Z" fill="#878D93"/>
</svg>
