<svg width="457" height="394" viewBox="0 0 457 394" fill="none" xmlns="http://www.w3.org/2000/svg">
<path d="M214.741 82.6224C163.988 100.71 98.3077 30.1748 98.3077 30.1748C98.3077 30.1748 125.136 113.186 98.3077 152.902C75.5388 186.609 6 201.154 6 201.154C6 201.154 64.2318 224.086 81.5245 261.993C99.8755 302.22 72.0839 364.79 72.0839 364.79C72.0839 364.79 137.886 316.943 182.224 327.028C219.968 335.613 258.797 389.965 258.797 389.965C258.797 389.965 269.817 325.633 303.902 303.951C344.71 277.992 420.336 317.587 420.336 317.587C420.336 317.587 373.632 250.032 379.427 201.154C385.64 148.741 456 95.2098 456 95.2098C456 95.2098 377.16 119.028 337.469 95.2098C301.985 73.9164 281.874 5 281.874 5C281.874 5 254.985 68.2802 214.741 82.6224Z" fill="#FEF200" stroke="#292929" stroke-width="3"/>
<mask id="path-2-inside-1" fill="white">
<path fill-rule="evenodd" clip-rule="evenodd" d="M375.23 244.16C375.23 238.732 374.447 233.46 372.972 228.42C390.249 221.596 402.504 204.447 402.504 184.371C402.504 177.107 400.9 170.226 398.034 164.079C400.891 158.209 402.504 151.558 402.504 144.511C402.504 120.759 384.188 101.504 361.595 101.504C352.769 101.504 344.596 104.442 337.912 109.439C333.799 96.2747 322.474 86.818 309.147 86.818C299.509 86.818 290.919 91.7632 285.345 99.4794C278.724 76.5554 254.321 59.5452 225.23 59.5452C192.299 59.5452 165.376 81.3414 163.451 108.839C157.188 105.499 150.002 103.601 142.363 103.601C118.031 103.601 98.3068 122.856 98.3068 146.608C98.3068 152.976 99.7247 159.021 102.269 164.459C77.9518 165.154 58.4473 185.543 58.4473 210.594C58.4473 225.537 65.387 238.821 76.1484 247.256C74.201 251.828 73.1332 256.798 73.1332 261.993C73.1332 284.586 93.3274 302.902 118.238 302.902C134.795 302.902 149.267 294.811 157.113 282.752C157.07 283.52 157.048 284.293 157.048 285.07C157.048 313.457 186.165 336.469 222.083 336.469C247.879 336.469 270.167 324.599 280.68 307.393C286.446 308.571 292.465 309.195 298.657 309.195C340.947 309.195 375.23 280.078 375.23 244.16Z"/>
</mask>
<path fill-rule="evenodd" clip-rule="evenodd" d="M375.23 244.16C375.23 238.732 374.447 233.46 372.972 228.42C390.249 221.596 402.504 204.447 402.504 184.371C402.504 177.107 400.9 170.226 398.034 164.079C400.891 158.209 402.504 151.558 402.504 144.511C402.504 120.759 384.188 101.504 361.595 101.504C352.769 101.504 344.596 104.442 337.912 109.439C333.799 96.2747 322.474 86.818 309.147 86.818C299.509 86.818 290.919 91.7632 285.345 99.4794C278.724 76.5554 254.321 59.5452 225.23 59.5452C192.299 59.5452 165.376 81.3414 163.451 108.839C157.188 105.499 150.002 103.601 142.363 103.601C118.031 103.601 98.3068 122.856 98.3068 146.608C98.3068 152.976 99.7247 159.021 102.269 164.459C77.9518 165.154 58.4473 185.543 58.4473 210.594C58.4473 225.537 65.387 238.821 76.1484 247.256C74.201 251.828 73.1332 256.798 73.1332 261.993C73.1332 284.586 93.3274 302.902 118.238 302.902C134.795 302.902 149.267 294.811 157.113 282.752C157.07 283.52 157.048 284.293 157.048 285.07C157.048 313.457 186.165 336.469 222.083 336.469C247.879 336.469 270.167 324.599 280.68 307.393C286.446 308.571 292.465 309.195 298.657 309.195C340.947 309.195 375.23 280.078 375.23 244.16Z" fill="white"/>
<path d="M372.972 228.42L371.87 225.629L369.324 226.635L370.093 229.262L372.972 228.42ZM398.034 164.079L395.336 162.765L394.71 164.051L395.315 165.346L398.034 164.079ZM337.912 109.439L335.049 110.333L336.313 114.38L339.708 111.841L337.912 109.439ZM285.345 99.4794L282.463 100.312L284.172 106.228L287.777 101.236L285.345 99.4794ZM163.451 108.839L162.04 111.486L166.121 113.662L166.444 109.048L163.451 108.839ZM102.269 164.459L102.355 167.458L106.924 167.327L104.986 163.187L102.269 164.459ZM76.1484 247.256L78.9085 248.432L79.8102 246.315L77.9991 244.895L76.1484 247.256ZM157.113 282.752L160.108 282.92L160.74 271.675L154.598 281.116L157.113 282.752ZM280.68 307.393L281.281 304.454L279.218 304.032L278.12 305.829L280.68 307.393ZM370.093 229.262C371.489 234.034 372.23 239.023 372.23 244.16H378.23C378.23 238.442 377.405 232.886 375.851 227.577L370.093 229.262ZM399.504 184.371C399.504 203.207 388.009 219.255 371.87 225.629L374.074 231.21C392.488 223.937 405.504 205.687 405.504 184.371H399.504ZM395.315 165.346C397.999 171.103 399.504 177.552 399.504 184.371H405.504C405.504 176.661 403.801 169.348 400.753 162.811L395.315 165.346ZM399.504 144.511C399.504 151.097 397.997 157.3 395.336 162.765L400.731 165.392C403.785 159.118 405.504 152.018 405.504 144.511H399.504ZM361.595 104.504C382.392 104.504 399.504 122.272 399.504 144.511H405.504C405.504 119.245 385.984 98.5037 361.595 98.5037V104.504ZM339.708 111.841C345.9 107.212 353.449 104.504 361.595 104.504V98.5037C352.088 98.5037 343.291 101.672 336.116 107.036L339.708 111.841ZM309.147 89.818C320.964 89.818 331.265 98.2231 335.049 110.333L340.776 108.544C336.333 94.3264 323.983 83.818 309.147 83.818V89.818ZM287.777 101.236C292.855 94.2064 300.583 89.818 309.147 89.818V83.818C298.435 83.818 288.983 89.3199 282.913 97.7228L287.777 101.236ZM225.23 62.5452C253.253 62.5452 276.282 78.9125 282.463 100.312L288.227 98.6469C281.166 74.1982 255.388 56.5452 225.23 56.5452V62.5452ZM166.444 109.048C168.231 83.5141 193.449 62.5452 225.23 62.5452V56.5452C191.149 56.5452 162.521 79.1687 160.459 108.63L166.444 109.048ZM142.363 106.601C149.501 106.601 156.203 108.374 162.04 111.486L164.863 106.192C158.174 102.625 150.504 100.601 142.363 100.601V106.601ZM101.307 146.608C101.307 124.58 119.62 106.601 142.363 106.601V100.601C116.443 100.601 95.3068 121.131 95.3068 146.608H101.307ZM104.986 163.187C102.624 158.138 101.307 152.526 101.307 146.608H95.3068C95.3068 153.426 96.8258 159.905 99.5521 165.73L104.986 163.187ZM61.4473 210.594C61.4473 187.109 79.7176 168.105 102.355 167.458L102.184 161.46C76.1859 162.203 55.4473 183.978 55.4473 210.594H61.4473ZM77.9991 244.895C67.9445 237.014 61.4473 224.592 61.4473 210.594H55.4473C55.4473 226.482 62.8295 240.628 74.2977 249.617L77.9991 244.895ZM76.1332 261.993C76.1332 257.214 77.1146 252.644 78.9085 248.432L73.3883 246.081C71.2874 251.013 70.1332 256.382 70.1332 261.993H76.1332ZM118.238 299.902C94.7019 299.902 76.1332 282.661 76.1332 261.993H70.1332C70.1332 286.512 91.9529 305.902 118.238 305.902V299.902ZM154.598 281.116C147.331 292.286 133.826 299.902 118.238 299.902V305.902C135.763 305.902 151.204 297.337 159.628 284.387L154.598 281.116ZM160.048 285.07C160.048 284.349 160.068 283.632 160.108 282.92L154.118 282.583C154.071 283.408 154.048 284.237 154.048 285.07H160.048ZM222.083 333.469C187.126 333.469 160.048 311.18 160.048 285.07H154.048C154.048 315.733 185.205 339.469 222.083 339.469V333.469ZM278.12 305.829C268.25 321.983 247.036 333.469 222.083 333.469V339.469C248.722 339.469 272.084 327.215 283.24 308.957L278.12 305.829ZM298.657 306.195C292.667 306.195 286.849 305.592 281.281 304.454L280.08 310.332C286.043 311.551 292.264 312.195 298.657 312.195V306.195ZM372.23 244.16C372.23 277.981 339.768 306.195 298.657 306.195V312.195C342.126 312.195 378.23 282.176 378.23 244.16H372.23Z" fill="#292929" mask="url(#path-2-inside-1)"/>
</svg>
