<svg width="50" height="50" viewBox="0 0 50 50" fill="none" xmlns="http://www.w3.org/2000/svg">
<path d="M50 2.93142C50 1.31917 48.6809 0 47.0687 0H2.63824C1.18725 0 0 1.18725 0 2.63824V47.3618C0 48.8127 1.18725 50 2.63824 50H47.0686C48.6808 50 50 48.6808 50 47.0686V2.93142Z" fill="#429CB5"/>
<path d="M47.0687 48.0155H2.63824C1.18725 48.0155 0 46.8283 0 45.3773V47.362C0 48.813 1.18725 50.0002 2.63824 50.0002H47.0686C48.6808 50.0002 50 48.681 50 47.0688V45.0841C50 46.6964 48.6809 48.0155 47.0687 48.0155Z" fill="#429CB5"/>
<path d="M41.6216 11.3402L36.4699 8.33292C35.8355 7.96246 35.0207 8.17659 34.6504 8.81118L22.0197 30.4477L13.704 25.5934C13.1896 25.2931 12.5291 25.4667 12.2288 25.9811L8.96757 31.5678C8.66727 32.0822 8.84089 32.7427 9.35532 33.043L24.1885 41.702C24.7029 42.0023 25.3634 41.8287 25.6637 41.3142L25.784 41.1082C25.7863 41.1042 25.7892 41.1006 25.7916 41.0966L42.0999 13.1598C42.4702 12.5253 42.2561 11.7107 41.6216 11.3402Z" fill="white"/>
</svg>
