<svg width="100" height="88" viewBox="0 0 100 88" fill="none" xmlns="http://www.w3.org/2000/svg">
<path fill-rule="evenodd" clip-rule="evenodd" d="M86.7173 25.0933L62.0592 7.21153C61.5595 5.10833 60.3486 3.24231 58.6314 1.9291C56.9142 0.615887 54.7961 -0.0638971 52.6355 0.00473094C50.4748 0.073359 48.4041 0.886186 46.7738 2.30572C45.1434 3.72526 44.0533 5.66437 43.688 7.79505L18.1767 25.0933H0V87.5855H100V25.0933H86.7173ZM52.9364 18.819C56.4249 18.819 59.424 16.9053 61.0553 14.0945L74.5012 25.0933H31.5347L45.1249 14.6529C46.8189 17.1626 49.6863 18.819 52.9364 18.819ZM74.9153 63.2725L54.5802 73.7694L31.1959 44.1547L6.14255 81.5621V31.3676H93.9829V81.5621L74.909 63.2725H74.9153Z" fill="#292929"/>
<path d="M81.2023 49.7271C84.5393 49.7271 87.2445 47.022 87.2445 43.685C87.2445 40.348 84.5393 37.6428 81.2023 37.6428C77.8653 37.6428 75.1602 40.348 75.1602 43.685C75.1602 47.022 77.8653 49.7271 81.2023 49.7271Z" fill="#292929"/>
</svg>
