<?xml version="1.0" encoding="UTF-8" standalone="no"?>
<svg
   xmlns:dc="http://purl.org/dc/elements/1.1/"
   xmlns:cc="http://creativecommons.org/ns#"
   xmlns:rdf="http://www.w3.org/1999/02/22-rdf-syntax-ns#"
   xmlns:svg="http://www.w3.org/2000/svg"
   xmlns="http://www.w3.org/2000/svg"
   xmlns:sodipodi="http://sodipodi.sourceforge.net/DTD/sodipodi-0.dtd"
   xmlns:inkscape="http://www.inkscape.org/namespaces/inkscape"
   id="svg2187"
   sodipodi:modified="true"
   viewBox="0 0 31.999999 32.000001"
   sodipodi:version="0.32"
   version="1.0"
   inkscape:version="1.0 (4035a4fb49, 2020-05-01)"
   sodipodi:docname="storysquad.svg"
   width="32"
   height="32">
  <defs
     id="defs16" />
  <sodipodi:namedview
     id="base"
     bordercolor="#666666"
     inkscape:pageshadow="2"
     guidetolerance="10"
     pagecolor="#ffffff"
     gridtolerance="10000"
     inkscape:window-height="1017"
     inkscape:zoom="22.627417"
     objecttolerance="10"
     borderopacity="1.0"
     inkscape:current-layer="g3257"
     inkscape:cx="10.746804"
     inkscape:cy="18.808485"
     inkscape:window-y="-8"
     inkscape:window-x="-8"
     inkscape:window-width="1920"
     inkscape:pageopacity="0.0"
     inkscape:document-units="px"
     inkscape:document-rotation="0"
     showgrid="false"
     fit-margin-top="0"
     fit-margin-left="0"
     fit-margin-right="0"
     fit-margin-bottom="0"
     inkscape:pagecheckerboard="true"
     inkscape:window-maximized="1" />
  <g
     id="layer1"
     inkscape:label="Layer 1"
     inkscape:groupmode="layer"
     transform="translate(-418.70725,-362.63405)">
    <g
       id="g3257"
       inkscape:export-ydpi="150"
       inkscape:export-xdpi="150"
       inkscape:export-filename="D:\Creations\Symbol-Paper.png"
       transform="matrix(1.9175,0,0,1.9175,-607.19,-179.09)">
      <path
         id="path3224"
         sodipodi:nodetypes="cccccccccccccccccc"
         style="fill:#000000;fill-rule:evenodd;stroke-width:0.276848"
         d="m 549.24564,282.5158 -0.34606,0.0443 -11.11545,1.34825 -0.45956,0.0609 0.1052,0.4485 c 1.04648,4.68703 -0.16334,9.43221 -0.79732,14.27705 l -0.0609,0.5094 0.50109,-0.0443 11.62762,-0.83054 0.34606,-0.0166 0.0443,-0.34606 c 0.58969,-4.94451 1.91579,-9.99975 0.26024,-15.12144 z m -0.60353,0.90806 c 1.37317,4.6289 -0.43188,9.18305 -1.02987,13.97252 l -9.8641,0.76964 c 0.62291,-4.46833 1.94624,-8.18086 1.04649,-12.78761 z" />
      <path
         id="path3237"
         style="fill:none;stroke:#000000;stroke-width:0.276848px"
         d="m 540.60108,286.63807 6.46164,-1.2735" />
      <path
         id="path3243"
         style="fill:none;stroke:#000000;stroke-width:0.276848px"
         d="m 540.95735,288.10536 6.1654,-0.78348" />
      <path
         id="path3247"
         style="fill:none;stroke:#000000;stroke-width:0.276848px"
         d="m 540.5068,289.47576 6.33705,-0.53985" />
      <path
         id="path3249"
         style="fill:none;stroke:#000000;stroke-width:0.276848px"
         d="m 540.00969,291.40816 6.70526,-0.58692" />
      <path
         style="fill:none;stroke:#000000;stroke-width:0.26075619;stroke-linecap:butt;stroke-linejoin:miter;stroke-opacity:1;stroke-miterlimit:4;stroke-dasharray:none;fill-opacity:1"
         d="m 540.38826,293.64789 c -0.0801,0.0143 -0.14389,0.0374 -0.20743,0.0691 -0.0379,0.0189 -0.0321,0.0642 -0.0461,0.0922 -0.0241,0.0481 -0.0451,0.0441 -0.0691,0.0922 -0.0381,0.0761 0.0157,0.30802 0.0461,0.36876 0.0157,0.0314 0.21414,0.1647 0.25352,0.18438 0.0246,0.0123 0.0676,-0.0123 0.0922,0 0.0385,0.0193 0.11267,0.0474 0.16134,0.0231 0.0926,-0.0463 0.14713,-0.11699 0.20743,-0.20743 0.0658,-0.0987 0.0851,-0.15963 0.0461,-0.27657 -0.005,-0.0146 0.007,-0.0324 0,-0.0461 -0.0278,-0.0555 -0.11341,-0.0655 -0.13828,-0.11524 -0.0133,-0.0267 -0.0647,-0.09 -0.11524,-0.11524 -0.0307,-0.008 -0.0615,-0.0154 -0.0922,-0.023 0,-0.008 0.005,-0.0176 0,-0.0231 -0.0109,-0.0109 -0.031,0.003 -0.0461,0 -0.0311,-0.006 -0.0615,-0.0154 -0.0922,-0.023 z"
         id="path849" />
      <path
         style="fill:none;fill-opacity:1;stroke:#000000;stroke-width:0.260756;stroke-linejoin:round;stroke-miterlimit:4;stroke-dasharray:none"
         d="m 540.4574,294.47761 c 0.0214,0.16298 -0.10569,-0.0326 -0.13828,0 -0.005,0.005 0.005,0.0176 0,0.023 -0.0416,0.0416 -0.14689,0.10938 -0.18439,0.18438 -0.0165,0.033 -0.13045,0.0996 -0.16133,0.16134 -0.0477,0.0954 -0.0702,0.20948 -0.11524,0.29962 -0.016,0.0319 0,0.10153 0,0.13828 0,0.0281 0.002,0.34741 0.0231,0.36877 0.005,0.005 0.0176,-0.005 0.0231,0 0.0283,0.0283 0.0293,0.10467 0.0461,0.13829 0.01,0.0194 0.0392,0.0255 0.0461,0.0461 0.005,0.0146 -0.007,0.0324 0,0.0461 0.003,0.007 0.0176,-0.005 0.023,0 0.003,0.003 0.0883,0.15347 0.0922,0.16133 0.0146,0.0293 0.15352,0.0613 0.16133,0.0691 0.005,0.005 -0.005,0.0176 0,0.023 0.008,0.008 0.12683,0.006 0.13829,0 0.0477,-0.0239 0.21813,-0.0675 0.23047,-0.0922 0.007,-0.0137 -0.007,-0.0324 0,-0.0461 0.003,-0.007 0.0176,0.005 0.0231,0 0.0226,-0.0226 0.0527,-0.10536 0.0691,-0.13828 0.0718,-0.14352 -0.007,-0.53481 -0.0461,-0.69144 -0.0124,-0.0497 0.0162,-0.11286 0,-0.16133 -0.003,-0.0103 -0.0182,-0.0133 -0.023,-0.023 -0.0292,-0.0584 0.007,-0.16949 -0.023,-0.23047 -0.003,-0.007 -0.0176,0.005 -0.0231,0 -0.0107,-0.0107 0.007,-0.0552 0,-0.0691 -0.0254,-0.0509 -0.042,-0.0609 -0.0691,-0.11524 -0.007,-0.0137 0.0123,-0.0369 0,-0.0461 -0.0275,-0.0206 -0.0615,-0.0307 -0.0922,-0.0461 z"
         id="path851" />
      <path
         style="fill:none;fill-opacity:1;stroke:#000000;stroke-width:0.260756;stroke-linejoin:round;stroke-miterlimit:4;stroke-dasharray:none"
         d="m 540.24997,296.22925 c -0.0302,0.097 0.0395,0.40508 0,0.484 -0.006,0.0113 -0.0447,0.0475 -0.0231,0.0691 0.0126,0.0126 0.3261,0.0922 0.36877,0.0922"
         id="path857" />
      <path
         style="fill:none;fill-opacity:1;stroke:#000000;stroke-width:0.260756;stroke-linejoin:round;stroke-miterlimit:4;stroke-dasharray:none"
         d="m 540.64185,295.99862 c 0.23448,0.0898 0.19002,0.21898 0.27651,0.39196 0.0121,0.0242 -0.0184,0.0968 0,0.11524 0.005,0.005 0.0176,-0.005 0.023,0 0.0115,0.0115 -0.0115,0.0576 0,0.0691 0.0154,0.0154 0.0768,-0.0154 0.0922,0 0.005,0.005 -0.005,0.0176 0,0.0231 0.045,0.045 0.24641,-0.0231 0.29962,-0.0231"
         id="path859" />
      <path
         style="fill:none;fill-opacity:1;stroke:#000000;stroke-width:0.260756;stroke-linejoin:round;stroke-miterlimit:4;stroke-dasharray:none"
         d="m 539.88121,295.33038 c -0.0274,-0.0266 -0.6441,-0.0218 -0.64534,-0.023 -0.002,-0.002 0.006,-0.40472 0.0231,-0.43791 0.0307,-0.0615 0.023,0.0691 0.023,-0.0231"
         id="path875" />
      <path
         style="fill:none;fill-opacity:1;stroke:#000000;stroke-width:0.260756;stroke-linejoin:round;stroke-miterlimit:4;stroke-dasharray:none"
         d="m 540.75702,295.16905 c 0.18327,-0.009 0.31675,-0.10558 0.48401,-0.16134 0.0522,-0.0174 0.0833,0.009 0.11524,-0.023 0.0219,-0.0219 -0.008,-0.12942 0,-0.16134 0.0121,-0.0483 0.0461,-0.1164 0.0461,-0.16133"
         id="path877" />
      <path
         style="fill:none;fill-opacity:1;stroke:#000000;stroke-width:0.260756;stroke-linejoin:round;stroke-miterlimit:4;stroke-dasharray:none"
         d="m 543.47667,293.6018 c 0.14091,10e-4 0.254,-0.0579 0.36876,-0.11524 0.068,-0.034 0.13048,-0.16877 0.16134,-0.23048 0.0179,-0.0359 0.28754,-0.32816 0.32266,-0.34572 0.0137,-0.007 0.0315,0.005 0.0461,0 0.0598,-0.0199 0.0894,-0.0596 0.13829,-0.0922 0.0524,-0.0349 0.11196,-0.0445 0.16133,-0.0691 0.0775,-0.0387 0.15662,0.06 0.23048,0.023 0.13259,-0.0663 0.19199,-0.33811 0.32267,-0.20743 0.007,0.007 0.061,0.0677 0.0691,0.0922 0.007,0.0219 -0.0163,0.0528 0,0.0691 0.005,0.005 0.0176,-0.005 0.023,0 0.001,10e-4 0.0545,0.28288 0.0461,0.29962 -0.0188,0.0376 -0.0133,0.12858 -0.0231,0.13829 -0.008,0.008 -0.0307,0.0154 -0.023,0.023 0.005,0.005 0.0176,-0.005 0.023,0 0.0109,0.0109 -0.007,0.0324 0,0.0461 0.005,0.01 0.0182,0.0133 0.0231,0.023 0.0242,0.0484 -0.0199,0.11841 0.023,0.16134 0.0881,0.0881 0.19485,0.088 0.34572,0.13829 0.0415,0.0138 0.0957,-0.0106 0.13829,0 0.0687,0.0172 0.12731,0.0636 0.18438,0.0922 0.008,0.004 0.34229,-0.0196 0.34571,-0.0231 0.002,-0.002 0.0177,-0.0515 0.0461,-0.0231 0.0136,0.0136 0.004,0.1736 0,0.18439 -0.003,0.0103 -0.0154,0.0154 -0.023,0.0231 -0.008,0.023 -0.0172,0.0456 -0.0231,0.0691 -0.007,0.027 0.0184,0.11988 0,0.13829 -0.005,0.005 -0.0176,-0.005 -0.0231,0 -0.0231,0.0231 0.037,0.23525 0.0461,0.25352 0.01,0.0192 -0.0146,0.0776 0,0.0922 0.005,0.005 0.0176,-0.005 0.0231,0 0.0107,0.0107 -0.007,0.0552 0,0.0691 0.005,0.01 0.0182,0.0133 0.023,0.023 0.007,0.0137 -0.0109,0.0352 0,0.0461 0.005,0.005 0.0176,-0.005 0.0231,0 0.005,0.005 -0.004,0.0922 0,0.0922 0.008,0 -0.005,-0.0285 0,-0.0231 0.0196,0.0196 0.0337,0.0444 0.0461,0.0691 0.007,0.0138 -0.0109,0.0352 0,0.0461 0.005,0.005 0.0176,-0.005 0.0231,0 0.0119,0.0119 0.0111,0.0803 0.0231,0.0922 0.005,0.005 0.0176,-0.005 0.023,0 0.0109,0.0109 -0.007,0.0324 0,0.0461 0.0246,0.0493 0.0675,0.089 0.0922,0.13829 0.007,0.0137 -0.0109,0.0352 0,0.0461 0.005,0.005 0.0196,-0.007 0.0231,0 0.0159,0.0318 0.0116,0.0809 0.023,0.11524 0.011,0.0329 0.0332,0.0332 0.0461,0.0461 0.0154,0.0154 -0.0154,0.0307 0,0.0461 0.0115,0.0115 0.0346,0.0115 0.0461,0.023 0.0228,0.0228 0.0317,0.14692 0.0461,0.16133 0.005,0.005 0.0176,-0.005 0.0231,0 0.0239,0.024 -0.12088,0.5127 -0.16134,0.55315 -0.0353,0.0353 -0.12001,0.0612 -0.16133,0.0922 -0.0315,0.0236 -0.11104,0.13619 -0.16133,0.16134 -0.20181,0.1009 -0.43,0.215 -0.64534,0.32267 -0.0492,0.0246 -0.13185,0.006 -0.18439,0.023 -0.07,0.0233 -0.20932,0.11429 -0.29962,0.0691 -0.0268,-0.0134 -0.0423,-0.0327 -0.0691,-0.0461 -0.0182,-0.009 -0.0497,0.006 -0.0691,0 -0.15531,-0.0518 -0.30574,-0.0952 -0.43791,-0.16133 -0.0106,-0.005 -0.0816,-0.005 -0.0922,0 -0.0635,0.0318 -0.18229,0.045 -0.23048,0.0691 -0.0856,0.0428 -0.16926,0.0731 -0.25353,0.11524 -0.0137,0.007 -0.0323,-0.007 -0.0461,0 -0.0751,0.0376 -0.19802,0.1121 -0.27658,0.13829 -0.0989,0.0329 -0.18939,0.0486 -0.27657,0.0922 -0.0369,0.0184 -0.10141,-0.0184 -0.13829,0 -0.14939,0.0747 -0.45919,0.0774 -0.62229,0.023 -0.0268,-0.009 -0.11962,0.0187 -0.13829,0 -0.005,-0.005 0.005,-0.0176 0,-0.023 -0.0215,-0.0215 -0.0937,-0.0246 -0.11524,-0.0461 -0.005,-0.005 0.005,-0.0176 0,-0.0231 -0.0142,-0.0142 -0.0979,-0.0144 -0.11524,-0.023 -0.007,-0.004 -0.16009,-0.34821 -0.13828,-0.39181 0.0362,-0.0723 0.0516,-0.12072 0.11524,-0.18439 0.0511,-0.0511 0.0763,-0.0302 0.0922,-0.0461 0.056,-0.056 -0.007,-0.0339 0.0461,-0.0691 0.0202,-0.0135 0.052,-0.006 0.0691,-0.023 0.005,-0.005 -0.005,-0.0176 0,-0.0231 0.074,-0.074 0.23691,-0.10505 0.29962,-0.23048 0.0162,-0.0324 -0.0332,-0.78092 -0.0461,-0.80667 -0.0134,-0.0268 -0.0327,-0.0423 -0.0461,-0.0691 -0.0281,-0.0562 0.0308,-0.40738 0.0461,-0.43791 0.0186,-0.0371 0.0811,-0.10505 0.0922,-0.13829 0.0141,-0.0423 0.0273,-0.12365 0.0461,-0.16133 0.003,-0.007 0.0154,0 0.0231,0 0.008,-0.008 0.0196,-0.0127 0.023,-0.0231 0.004,-0.0131 0.0397,-0.15492 0.0461,-0.16133 0.0115,-0.0115 0.054,-0.031 0.0691,-0.0461 0.0109,-0.0109 -0.007,-0.0324 0,-0.0461 0.0167,-0.0335 0.0533,-0.0606 0.0691,-0.0922 0.0253,-0.0506 0.0743,-0.0283 0.11523,-0.0691 0.005,-0.005 -0.003,-0.0162 0,-0.0231 0.0165,-0.0329 0.11114,-0.0786 0.13829,-0.0922 z"
         id="path879" />
      <path
         style="fill:none;fill-opacity:1;stroke:#000000;stroke-width:0.260756;stroke-linejoin:round;stroke-miterlimit:4;stroke-dasharray:none"
         d="m 546.38933,294.12613 0.29386,0.84701"
         id="path883" />
      <path
         style="fill:none;fill-opacity:1;stroke:#000000;stroke-width:0.260756;stroke-linejoin:round;stroke-miterlimit:4;stroke-dasharray:none"
         d="m 546.43831,293.99361 c 0.12222,0 0.0169,0.007 0.13829,-0.0231 0.0227,-0.006 0.047,-0.004 0.0691,-0.0115 0.13349,-0.0445 0.21651,-0.1589 0.31115,-0.25353 0.0563,-0.0563 0.16873,-0.24445 0.17285,-0.26505 0.0175,-0.0875 0.003,-0.13169 0.0346,-0.21895 0.0176,-0.0484 0.0474,-0.0916 0.0692,-0.13829 0.0147,-0.0316 0.035,-0.0705 0.0461,-0.10371 0.002,-0.007 -0.005,-0.0176 0,-0.0231 0.004,-0.004 0.017,-0.0115 0.0115,-0.0115 -0.009,0 0.008,0.0154 0.0115,0.023 0.0167,0.0333 0.0342,0.0681 0.0461,0.10372 0.0319,0.0956 0.0435,0.2007 0.0576,0.29962 0.006,0.042 0.0246,0.0868 0.0346,0.12676 0.009,0.0369 0,0.0882 0,0.12676 0,0.35774 -0.36253,0.70509 -0.63381,0.89887 -0.049,0.035 -0.14097,0.10371 -0.16134,0.10371"
         id="path885" />
      <path
         style="fill:none;fill-opacity:1;stroke:#000000;stroke-width:0.130378;stroke-linejoin:round;stroke-miterlimit:4;stroke-dasharray:none"
         d="m 544.46772,293.33675 c -0.0154,-0.004 -0.0303,-0.0115 -0.0461,-0.0115 -0.005,0 -0.12997,0.0723 -0.13829,0.0807 -0.004,0.004 -0.008,0.0307 -0.0115,0.0346 -0.003,0.003 -0.0103,-0.004 -0.0115,0 -8.9e-4,0.003 -0.007,0.0852 0,0.0922 0.008,0.008 0.0269,0.004 0.0346,0.0115 0.007,0.007 0.008,0.0269 0.023,0.0346 0.0118,0.006 0.0343,0.006 0.0461,0.0115 0.0453,0.0227 0.0866,0.0489 0.13829,0.0231 0.0122,-0.006 0.0358,-10e-4 0.0461,-0.0115 0.0101,-0.0101 0.0245,-0.0475 0.0346,-0.0576 0.003,-0.003 0.01,0.003 0.0115,0 0.003,-0.007 -0.003,-0.0162 0,-0.023 0.002,-0.003 0.0103,0.004 0.0115,0 0.0136,-0.0407 -0.012,-0.12719 -0.0346,-0.14981 -0.008,-0.008 -0.0266,-0.007 -0.0346,-0.023 -0.002,-0.003 0.003,-0.009 0,-0.0115 -0.005,-0.005 -0.0176,0.005 -0.023,0 -0.003,-0.003 0.004,-0.0115 0,-0.0115 -0.0158,0 -0.0307,0.008 -0.0461,0.0115 z"
         id="path893" />
      <path
         style="fill:none;fill-opacity:1;stroke:#000000;stroke-width:0.130378;stroke-linejoin:round;stroke-miterlimit:4;stroke-dasharray:none"
         d="m 544.99782,293.34827 c -0.19026,-0.0104 -0.1964,0.22998 -0.10371,0.32267 0.006,0.006 0.0644,0.0115 0.0807,0.0115 0.0138,0 0.0455,0.006 0.0576,0 0.043,-0.0215 0.11708,-0.22864 0.0692,-0.27658 -0.003,-0.003 -0.009,0.003 -0.0115,0 -0.005,-0.005 0.005,-0.0176 0,-0.023 -0.005,-0.005 -0.0176,0.005 -0.023,0 -0.003,-0.003 0.003,-0.009 0,-0.0115 -0.009,-0.009 -0.0647,-0.0219 -0.0691,-0.0231 z"
         id="path895" />
      <path
         style="fill:none;fill-opacity:1;stroke:#000000;stroke-width:0.130378;stroke-linejoin:round;stroke-miterlimit:4;stroke-dasharray:none"
         d="m 544.07591,293.94751 c -0.0107,0.042 0.0265,0.0485 0.0346,0.0807 0.007,0.0296 0.0256,0.0537 0.0346,0.0807 0.005,0.0153 0.0162,0.0807 0.0231,0.0807 0.008,0 -0.002,-0.0158 0,-0.0231 0.009,-0.0258 0.0445,-0.1663 0.0576,-0.17286 0.0207,-0.0103 0.0983,0.18438 0.10371,0.18438 0.008,0 -0.002,-0.0158 0,-0.023 0.007,-0.0213 0.0327,-0.0904 0.0461,-0.10372 0.004,-0.004 0.063,0.0684 0.0691,0.0807 0.003,0.005 0.009,0.018 0.0115,0.0231 0.003,0.007 -0.008,0.023 0,0.023 0.005,0 0.0311,-0.0639 0.0346,-0.0691 0.005,-0.007 0.0179,-0.005 0.023,-0.0115 0.0196,-0.0261 0.0552,-0.11282 0.0691,-0.12676 0.0303,-0.0303 0.10113,-0.082 0.14981,-0.0576 0.005,0.002 0.007,0.009 0.0115,0.0115 0.007,0.003 0.0176,-0.005 0.0231,0 0.003,0.003 -0.003,0.009 0,0.0115 0.0239,0.0238 -9.4e-4,-0.0364 0.0231,0.0115 0.0213,0.0427 0.0513,0.0818 0.023,0.13828 -0.0111,0.0222 -1.6e-4,0.058 -0.0115,0.0807 -0.0132,0.0265 -0.031,0.0389 -0.0461,0.0691 -0.017,0.0339 -0.0397,0.0282 -0.0576,0.0461 -0.01,0.01 -0.0134,0.025 -0.023,0.0346 -0.0153,0.0153 -0.05,0.025 -0.0692,0.0346 -0.11328,0.0567 -0.15173,0.0576 -0.28809,0.0576 -0.004,0 -0.20743,-0.0219 -0.20743,-0.0115 0,0.004 0.0115,0.004 0.0115,0 0,-0.0123 -0.0231,-0.017 -0.0231,-0.0346 0,-0.0411 -0.0252,-0.0891 -0.0346,-0.12677 -0.004,-0.0175 -0.029,-0.23007 -0.0231,-0.242 0.009,-0.0172 0.0231,-0.0307 0.0346,-0.0461 z"
         id="path905" />
      <path
         style="fill:none;fill-opacity:1;stroke:#000000;stroke-width:0.260756;stroke-linejoin:round;stroke-miterlimit:4;stroke-dasharray:none"
         d="m 540.05407,293.75161 c -0.10294,-0.0539 -0.0933,-0.16359 -0.13829,-0.25353 -0.0261,-0.0523 -0.0546,-0.10322 -0.0691,-0.16133 -0.007,-0.0289 0.007,-0.0633 0,-0.0922 -0.0172,-0.0689 -0.0231,-0.1939 -0.0231,-0.26505 0,-0.0309 -0.0261,-0.1237 -0.0231,-0.12677 0.0258,-0.0258 0.0786,0.0371 0.0922,0.0461 0.0481,0.0321 0.15704,0.23341 0.18438,0.2881 0.003,0.005 0.0164,0.0576 0.0231,0.0576 0.008,0 -0.002,-0.0156 0,-0.023 0.0362,-0.14487 0.0294,-0.45839 0.17286,-0.5301 0.01,-0.005 0.0966,-0.0647 0.10372,-0.0576 0.0392,0.0392 0.0445,0.18949 0.0576,0.242 0.008,0.0309 0.0268,0.0498 0.0346,0.0807 0.006,0.0258 0.0243,0.10626 0.0346,0.12676 0.008,0.0167 0.0177,0.0249 0.0231,0.0461 0.003,0.0133 0.0123,0.0807 0.023,0.0807 0.004,0 -0.002,-0.008 0,-0.0115 0.006,-0.009 0.0154,-0.0154 0.0231,-0.0231 0.0154,-0.0154 0.03,-0.0315 0.0461,-0.0461 0.0567,-0.0516 0.10394,-0.0743 0.16133,-0.11524 0.0433,-0.0309 0.0829,-0.0745 0.12676,-0.10372 0.0283,-0.0188 0.0651,-0.0257 0.0922,-0.0461 0.003,-0.002 -0.003,-0.01 0,-0.0115 0.007,-0.003 0.0162,0.003 0.0231,0 0.0111,-0.006 0.0429,-0.0461 0.0576,-0.0461 0.002,0 -0.01,0.0226 -0.0231,0.0576 -0.0186,0.0495 -0.03,0.0899 -0.0461,0.13829 -0.0352,0.10563 -0.0397,0.21511 -0.0576,0.32267 -0.01,0.057 -0.0576,0.11778 -0.0576,0.17286 0,0.0188 -0.0179,0.0369 -0.0231,0.0576 -0.006,0.0254 1.2e-4,0.0689 -0.0115,0.0922 -0.008,0.0152 -0.0231,0.065 -0.0231,0.0807 0,0.007 0.004,0.0416 0,0.0461 -0.0172,0.0172 -0.048,-0.011 -0.0691,-0.023 -0.0783,-0.0448 -0.16734,-0.0591 -0.25353,-0.0807 -0.12389,-0.031 -0.25875,0.0257 -0.36876,0.0807 -0.0275,0.0137 -0.0615,0 -0.0922,0 z"
         id="path909" />
      <path
         style="fill:#3ac6ff;fill-opacity:1;stroke:#000000;stroke-width:0.0110485;stroke-linejoin:round;stroke-miterlimit:4;stroke-dasharray:none"
         d="m 10.097017,25.810004 c -0.1279899,-0.05333 -0.1939112,-0.12636 -0.2889293,-0.320071 -0.026826,-0.05469 -0.066183,-0.119325 -0.08746,-0.143632 -0.021277,-0.02431 -0.045935,-0.079 -0.054797,-0.121533 -0.00886,-0.04254 -0.039058,-0.117115 -0.067103,-0.165729 -0.046169,-0.08003 -0.051522,-0.119729 -0.056617,-0.419844 l -0.00563,-0.331457 0.095886,-0.271923 c 0.091661,-0.259943 0.1012491,-0.276493 0.2176274,-0.37565 0.066958,-0.05705 0.1483526,-0.140331 0.1808769,-0.18507 0.03252,-0.04474 0.0888,-0.106301 0.125051,-0.136807 0.06289,-0.05292 0.0709,-0.05419 0.174729,-0.02771 0.09128,0.02329 0.111774,0.03821 0.127175,0.09261 0.0101,0.03567 0.02879,0.09468 0.04153,0.131145 0.01274,0.03646 0.03087,0.140869 0.04029,0.23202 0.0094,0.09115 0.02803,0.19372 0.04136,0.227933 0.01333,0.03421 0.02429,0.108791 0.02435,0.165729 6.2e-5,0.05694 0.02431,0.217875 0.05388,0.357639 0.06783,0.320574 0.109476,0.704031 0.09033,0.831722 -0.03477,0.23184 -0.168032,0.407938 -0.358236,0.473378 -0.147999,0.05092 -0.140754,0.05123 -0.294321,-0.01276 z"
         id="path913"
         transform="matrix(0.52151239,0,0,0.52151239,535.01812,282.5158)" />
      <path
         style="fill:#fffd3a;fill-opacity:1;stroke:#000000;stroke-width:0.0110485;stroke-linejoin:round;stroke-miterlimit:4;stroke-dasharray:none"
         d="m 9.7202632,21.211245 c -0.011547,-0.03037 -0.020994,-0.06728 -0.020994,-0.08203 0,-0.01474 -0.034803,-0.09943 -0.07734,-0.188187 -0.042537,-0.08876 -0.07734,-0.170717 -0.07734,-0.182127 0,-0.01141 0.041154,2.5e-4 0.091454,0.02591 0.082121,0.0419 0.1014107,0.04387 0.1890105,0.01934 0.1337962,-0.03746 0.1661153,-0.111386 0.2260103,-0.516967 0.02683,-0.181683 0.05441,-0.339437 0.06129,-0.350564 0.0164,-0.02654 0.0716,0.112421 0.172492,0.434271 0.0804,0.256474 0.084,0.26287 0.183436,0.325932 0.05579,0.03538 0.112447,0.06432 0.125914,0.06432 0.01347,0 0.05818,-0.03477 0.09938,-0.07727 0.0502,-0.05179 0.08014,-0.06877 0.09082,-0.05149 0.01062,0.01719 0.05476,-0.0091 0.132457,-0.07899 0.06409,-0.05762 0.145752,-0.11988 0.181474,-0.138352 l 0.06495,-0.03359 -0.01446,0.129072 c -0.008,0.07099 -0.03788,0.193707 -0.0665,0.272704 -0.08336,0.230066 -0.12373,0.361773 -0.123613,0.403272 6e-5,0.02127 -0.0024,0.03867 -0.0056,0.03867 -0.0031,0 -0.0951,-0.02474 -0.204398,-0.05497 -0.109296,-0.03023 -0.221227,-0.05509 -0.248737,-0.05524 -0.02751,-1.5e-4 -0.06849,-0.01181 -0.09106,-0.02591 -0.05221,-0.03261 -0.384681,0.04087 -0.5535464,0.122331 l -0.1141232,0.05506 z"
         id="path915"
         transform="matrix(0.52151239,0,0,0.52151239,535.01812,282.5158)" />
      <path
         style="fill:#ffd9ad;fill-opacity:1;stroke:#000000;stroke-width:0.0110485;stroke-linejoin:round;stroke-miterlimit:4;stroke-dasharray:none"
         d="m 10.505813,22.648091 c -0.04861,-0.01782 -0.110145,-0.02957 -0.136737,-0.02611 -0.02968,0.0039 -0.112408,-0.03825 -0.214231,-0.109034 -0.182858,-0.127124 -0.202159,-0.162502 -0.2263662,-0.414916 -0.0121,-0.126168 -0.00864,-0.138717 0.071412,-0.259376 0.070552,-0.106333 0.1012542,-0.132482 0.1902552,-0.162044 0.09852,-0.03272 0.118186,-0.03241 0.274445,0.0044 0.157487,0.03713 0.174892,0.0473 0.270498,0.158096 0.0562,0.06513 0.133387,0.137718 0.171528,0.16131 0.05574,0.03447 0.07232,0.06271 0.08448,0.143831 0.01342,0.08947 0.0068,0.114734 -0.0583,0.222362 -0.0928,0.153444 -0.248556,0.31744 -0.299559,0.315406 -0.02147,-8.57e-4 -0.07882,-0.01614 -0.12743,-0.03395 z"
         id="path917"
         transform="matrix(0.52151239,0,0,0.52151239,535.01812,282.5158)" />
      <path
         style="fill:#ef8100;fill-opacity:1;stroke:#000000;stroke-width:0.0110485;stroke-linejoin:round;stroke-miterlimit:4;stroke-dasharray:none"
         d="m 15.168298,27.280809 c -0.06077,-0.01025 -0.154697,-0.02897 -0.208733,-0.0416 -0.05404,-0.01263 -0.107104,-0.01748 -0.117929,-0.01079 -0.02527,0.01562 -0.183688,-0.05364 -0.271805,-0.118823 -0.03748,-0.02772 -0.09857,-0.05649 -0.135766,-0.06393 -0.05771,-0.01154 -0.07602,-0.03345 -0.124785,-0.149338 -0.127346,-0.302607 -0.130231,-0.318892 -0.07443,-0.420045 0.03416,-0.06192 0.08413,-0.108641 0.157957,-0.147665 0.0594,-0.0314 0.128911,-0.08163 0.15448,-0.111622 0.02557,-0.03 0.0754,-0.06913 0.110737,-0.08697 0.03534,-0.01784 0.0688,-0.04976 0.07435,-0.07095 0.0056,-0.02119 0.08603,-0.08028 0.17882,-0.131324 0.219373,-0.120664 0.409982,-0.308643 0.445917,-0.439762 0.03109,-0.113455 0.0167,-0.650218 -0.03343,-1.246546 -0.03266,-0.388578 -0.05164,-0.486741 -0.111884,-0.57868 -0.03052,-0.04658 -0.03213,-0.08057 -0.01176,-0.248099 0.03879,-0.318988 0.05939,-0.398436 0.128404,-0.495203 0.08647,-0.121232 0.129168,-0.207605 0.149373,-0.302154 0.0091,-0.04254 0.04455,-0.109385 0.07879,-0.148551 0.05594,-0.06398 0.108422,-0.192215 0.10875,-0.265744 6.9e-5,-0.01518 0.03947,-0.06814 0.08756,-0.117689 0.04809,-0.04955 0.09346,-0.111711 0.100826,-0.138132 0.02934,-0.105242 0.06724,-0.150274 0.180076,-0.213953 0.06479,-0.03657 0.117802,-0.08109 0.117802,-0.09893 0,-0.05466 0.0977,-0.100588 0.303841,-0.142821 0.213227,-0.04368 0.506377,-0.162401 0.657104,-0.266104 0.09622,-0.0662 0.204097,-0.210894 0.304929,-0.408987 0.03093,-0.06077 0.160865,-0.223671 0.288742,-0.362009 0.192994,-0.208782 0.250572,-0.257667 0.338837,-0.287678 0.05848,-0.01989 0.161023,-0.07692 0.227867,-0.126736 0.06684,-0.04982 0.168191,-0.107939 0.225215,-0.129155 0.09652,-0.03591 0.110907,-0.03611 0.208335,-0.0029 0.258376,0.08804 0.462882,-0.0033 0.687209,-0.306846 0.04741,-0.06416 0.04901,-0.06463 0.04969,-0.01446 7.12e-4,0.05271 0.06487,0.180186 0.09068,0.180186 0.02687,0 0.04222,0.385579 0.01891,0.475087 -0.06852,0.263142 -0.06811,0.247267 -0.0096,0.368654 0.03335,0.06914 0.05533,0.15343 0.05533,0.212191 0,0.264888 0.20285,0.417881 0.736827,0.555729 0.18102,0.04673 0.287604,0.06343 0.345606,0.05416 0.07049,-0.01127 0.108043,1.94e-4 0.235445,0.07189 l 0.151578,0.0853 h 0.271825 c 0.261566,0 0.271318,0.0017 0.258405,0.04419 -0.0074,0.02431 -0.01922,0.10661 -0.02631,0.182896 -0.0071,0.07629 -0.02145,0.143993 -0.03191,0.150459 -0.0314,0.01941 -0.0215,0.255894 0.01662,0.39673 0.0196,0.07244 0.04347,0.196335 0.05304,0.275332 0.02509,0.207069 0.134471,0.547844 0.179635,0.559655 0.02566,0.0067 0.03662,0.03372 0.03662,0.09023 0,0.05713 0.0582,0.198079 0.199534,0.483258 0.109744,0.221431 0.206652,0.427429 0.215352,0.457774 0.02539,0.08857 0.143655,0.295407 0.185767,0.324903 0.02127,0.0149 0.04541,0.06922 0.05364,0.120721 0.0082,0.0515 0.02341,0.10407 0.03373,0.116826 0.01966,0.0243 -0.09204,0.459886 -0.173487,0.676558 -0.04329,0.115171 -0.05493,0.127176 -0.182106,0.187825 -0.09711,0.04631 -0.171135,0.104857 -0.259558,0.205277 -0.120442,0.136781 -0.140309,0.14879 -0.753471,0.45545 -0.590872,0.295513 -0.63932,0.315681 -0.784446,0.326548 -0.106228,0.008 -0.20088,0.03262 -0.302171,0.07873 -0.193342,0.08803 -0.213519,0.08997 -0.310577,0.02999 -0.04574,-0.02827 -0.12997,-0.05482 -0.189684,-0.05978 -0.09154,-0.0076 -0.416093,-0.112698 -0.85485,-0.276799 -0.06077,-0.02273 -0.13833,-0.04165 -0.172362,-0.04204 -0.121348,-0.0014 -0.583317,0.138047 -0.846382,0.255511 -0.147094,0.06568 -0.286613,0.119419 -0.310043,0.119419 -0.02343,0 -0.15026,0.05572 -0.281845,0.123819 -0.284335,0.147156 -0.801996,0.320066 -0.907135,0.303004 -0.04367,-0.0071 -0.140796,0.01073 -0.254774,0.04674 -0.203502,0.06429 -0.563043,0.09151 -0.762993,0.05778 z m 2.935196,-4.354742 c 0.400324,-0.05788 0.750887,-0.340198 0.808339,-0.650983 0.03542,-0.191597 0.03005,-0.255714 -0.03182,-0.379862 -0.04684,-0.094 -0.0721,-0.118259 -0.156794,-0.150606 -0.206812,-0.07898 -0.421923,0.01056 -0.54369,0.226322 -0.06138,0.108751 -0.06959,0.11536 -0.104357,0.0839 -0.02153,-0.01949 -0.07792,-0.03415 -0.131334,-0.03415 -0.07687,0 -0.103567,-0.01185 -0.149379,-0.06629 -0.0625,-0.07428 -0.18021,-0.09149 -0.228427,-0.03339 -0.03342,0.04027 -0.06649,0.02351 -0.06649,-0.0337 0,-0.05913 -0.0967,-0.117942 -0.165525,-0.100668 -0.0306,0.0077 -0.08149,0.05338 -0.113793,0.10219 -0.05601,0.08463 -0.0578,0.09661 -0.0433,0.288797 0.02523,0.334254 0.08872,0.587767 0.170562,0.68103 0.05271,0.06007 0.06503,0.0633 0.251388,0.06592 0.107778,0.0015 0.200781,0.0076 0.206674,0.01347 0.01661,0.01661 0.132317,0.01196 0.297943,-0.01199 z m 1.148729,-1.389979 c 0.174855,-0.06648 0.30891,-0.545343 0.202903,-0.724798 -0.121932,-0.206415 -0.471707,-0.234399 -0.637401,-0.051 -0.100297,0.111017 -0.133064,0.218121 -0.119277,0.389878 0.01338,0.166697 0.09434,0.321976 0.186841,0.358361 0.111723,0.04395 0.28884,0.05725 0.366934,0.02755 z m -0.915842,-0.160569 c 0.02571,-0.01801 0.07646,-0.0766 0.112782,-0.130202 0.05224,-0.0771 0.06612,-0.121603 0.06644,-0.213025 9.63e-4,-0.277079 -0.163024,-0.445492 -0.424883,-0.436349 -0.09899,0.0035 -0.152829,0.02138 -0.269836,0.08983 -0.182965,0.107029 -0.232957,0.185088 -0.232957,0.363741 0,0.117834 0.0068,0.137335 0.0669,0.192086 0.03679,0.03352 0.128772,0.08859 0.204398,0.122385 0.116315,0.05198 0.160068,0.06012 0.283957,0.05286 0.08055,-0.0047 0.167491,-0.02332 0.1932,-0.04133 z"
         id="path919"
         transform="matrix(0.52151239,0,0,0.52151239,535.01812,282.5158)" />
      <path
         style="fill:#ef8100;fill-opacity:1;stroke:#000000;stroke-width:0.0110485;stroke-linejoin:round;stroke-miterlimit:4;stroke-dasharray:none"
         d="m 17.595157,22.646134 c -0.02891,-0.0056 -0.05713,-0.03551 -0.07093,-0.0751 -0.0173,-0.04961 -0.01636,-0.06449 0.0038,-0.06065 0.06455,0.01231 0.128444,-0.03148 0.141551,-0.09702 0.01252,-0.06262 0.0158,-0.06473 0.04294,-0.02762 0.05839,0.07986 0.14233,0.119312 0.198952,0.09351 0.02865,-0.01305 0.05224,-0.03457 0.05243,-0.04781 2.41e-4,-0.01716 0.005,-0.01709 0.01657,2.39e-4 0.0089,0.01337 0.03873,0.03616 0.06622,0.05064 0.04296,0.02263 0.0607,0.01816 0.126192,-0.0318 0.04191,-0.03197 0.08224,-0.07713 0.08961,-0.100358 0.0074,-0.02323 0.02254,-0.04223 0.03369,-0.04223 0.01116,0 0.04961,-0.05809 0.08546,-0.129097 0.07659,-0.151733 0.144265,-0.206346 0.215917,-0.174253 0.02664,0.01193 0.05408,0.03641 0.06098,0.0544 0.02484,0.06473 -0.07984,0.359434 -0.127667,0.359434 -0.01059,0 -0.04562,0.02818 -0.07784,0.06262 -0.03222,0.03444 -0.124914,0.08913 -0.205984,0.121534 -0.129075,0.05159 -0.175776,0.05854 -0.37565,0.05591 -0.125538,-0.0017 -0.249858,-0.0072 -0.276266,-0.01236 z"
         id="path921"
         transform="matrix(0.52151239,0,0,0.52151239,535.01812,282.5158)" />
      <path
         style="fill:#ef8100;fill-opacity:1;stroke:#000000;stroke-width:0.0110485;stroke-linejoin:round;stroke-miterlimit:4;stroke-dasharray:none"
         d="m 17.985677,21.119326 c -0.08635,-0.04216 -0.132209,-0.09054 -0.118696,-0.125225 0.0049,-0.01266 0.04868,-0.04575 0.09721,-0.07353 0.07725,-0.04422 0.09919,-0.04756 0.176174,-0.02683 0.110619,0.02979 0.138895,0.105942 0.0725,0.195272 -0.05295,0.07124 -0.12396,0.08072 -0.227188,0.03031 z"
         id="path923"
         transform="matrix(0.52151239,0,0,0.52151239,535.01812,282.5158)" />
      <path
         style="fill:#ef8100;fill-opacity:1;stroke:#000000;stroke-width:0.0110485;stroke-linejoin:round;stroke-miterlimit:4;stroke-dasharray:none"
         d="m 18.982207,21.1998 c -0.03264,-0.09362 -0.03057,-0.141367 0.0095,-0.218771 0.02559,-0.04948 0.04917,-0.06519 0.09786,-0.06519 0.07201,0 0.133594,0.04985 0.133594,0.108127 0,0.02127 -0.01585,0.0852 -0.03522,0.142053 -0.03243,0.09517 -0.04102,0.103373 -0.108324,0.103373 -0.06213,0 -0.07674,-0.01045 -0.09736,-0.06959 z"
         id="path925"
         transform="matrix(0.52151239,0,0,0.52151239,535.01812,282.5158)" />
      <path
         style="fill:#ef8100;fill-opacity:1;stroke:#000000;stroke-width:0.0110485;stroke-linejoin:round;stroke-miterlimit:4;stroke-dasharray:none"
         d="m 22.199876,22.600738 c -0.05771,-0.167109 -0.104749,-0.315138 -0.104533,-0.328954 2.16e-4,-0.01382 0.06479,-0.03727 0.143498,-0.05212 0.24455,-0.04614 0.38633,-0.12972 0.64194,-0.378409 0.323728,-0.314963 0.6036,-0.735566 0.608429,-0.91437 0.0013,-0.0498 0.01164,-0.03186 0.04136,0.07209 0.06083,0.212731 0.03022,0.479048 -0.08264,0.718781 -0.161394,0.342846 -0.496125,0.718963 -0.926249,1.040769 -0.106661,0.0798 -0.199094,0.145308 -0.205406,0.145571 -0.0063,2.63e-4 -0.05869,-0.136248 -0.116402,-0.303358 z"
         id="path927"
         transform="matrix(0.52151239,0,0,0.52151239,535.01812,282.5158)" />
      <path
         transform="matrix(0.52151239,0,0,0.52151239,535.01812,282.5158)"
         id="path858"
         d="m 5.266726,29.972132 c 0,-0.206952 0.5004882,-3.201181 0.8392075,-5.020657 0.921614,-4.950574 1.15333,-6.306331 1.3671545,-7.999146 0.2640081,-2.09011 0.3564894,-3.465905 0.3564894,-5.303301 0,-2.0025728 -0.1186668,-3.5179 -0.4143436,-5.2909986 L 7.2735762,5.5085447 7.4965394,5.4630493 C 7.6191692,5.4380268 10.782159,4.8101885 14.525405,4.0678531 18.268652,3.3255176 22.405227,2.5040943 23.717794,2.2424679 l 2.386485,-0.4756843 0.101465,0.3559769 c 0.911004,3.1961387 1.088959,6.9618616 0.536849,11.3603265 -0.227266,1.810543 -0.525244,3.516142 -1.320286,7.557203 -0.679813,3.455374 -1.025123,5.422093 -1.243455,7.082117 -0.05146,0.391268 -0.05847,0.408796 -0.163381,0.408796 -0.12638,0 -18.111358,1.396963 -18.4946285,1.43655 -0.1397641,0.01444 -0.2541165,0.01641 -0.2541165,0.0044 z m 5.435883,-2.430052 v -0.282015 l -0.194833,-0.04906 -0.194832,-0.04906 0.007,-0.380966 0.007,-0.380966 0.262086,-0.08114 c 0.144146,-0.04463 0.275658,-0.07275 0.292248,-0.0625 0.03519,0.02175 0.155165,0.425255 0.140764,0.473421 -0.01813,0.06065 0.138921,0.408872 0.208317,0.461889 0.104551,0.07988 0.381211,0.114646 0.64749,0.08138 l 0.238959,-0.02986 v -0.284924 c 0,-0.280574 -0.0017,-0.284574 -0.110485,-0.261985 -0.386377,0.08022 -0.341783,0.114109 -0.519406,-0.394721 -0.06746,-0.193252 -0.162799,-0.394098 -0.211862,-0.446324 -0.07376,-0.07851 -0.0813,-0.115737 -0.04357,-0.214984 0.05391,-0.141804 0.057,-0.676423 0.0054,-0.942916 -0.02522,-0.13035 -0.02125,-0.188072 0.01297,-0.188634 0.02712,-4.46e-4 0.217426,-0.07005 0.422902,-0.154679 0.205475,-0.08463 0.415798,-0.153871 0.467383,-0.153871 0.15527,0 0.273154,-0.173237 0.300732,-0.441942 0.01372,-0.133687 0.03841,-0.298772 0.05487,-0.366856 l 0.02993,-0.123787 -0.281796,0.0133 -0.281797,0.0133 -0.04632,0.192079 c -0.04523,0.187556 -0.05458,0.195504 -0.397196,0.337545 l -0.350875,0.145466 -0.05579,-0.132696 c -0.03069,-0.07298 -0.05579,-0.197052 -0.05579,-0.275708 0,-0.07866 -0.02049,-0.201775 -0.04552,-0.273598 -0.04181,-0.119946 -0.03049,-0.146388 0.138938,-0.324496 0.101454,-0.10665 0.233091,-0.300131 0.292529,-0.429959 0.09044,-0.19755 0.102991,-0.273644 0.07694,-0.466545 -0.01712,-0.126773 -0.05041,-0.267147 -0.07398,-0.311944 -0.04182,-0.07948 0.05731,-0.612313 0.146289,-0.78624 0.02031,-0.03971 0.0594,-0.217007 0.08686,-0.394001 0.02746,-0.176994 0.07525,-0.393581 0.106203,-0.481304 0.04966,-0.140762 0.04524,-0.186614 -0.03768,-0.390402 -0.05168,-0.127 -0.122039,-0.230927 -0.156364,-0.230951 -0.08724,-4.4e-5 -0.434406,0.207138 -0.641605,0.382931 -0.09553,0.08105 -0.188634,0.147357 -0.206908,0.147357 -0.01827,0 -0.06697,-0.154127 -0.108223,-0.342505 -0.04125,-0.188377 -0.09347,-0.365809 -0.116044,-0.394292 -0.02257,-0.02848 -0.120527,-0.06522 -0.217672,-0.08163 -0.14656,-0.02476 -0.206161,-0.01029 -0.3501358,0.08498 -0.095431,0.06315 -0.214492,0.195154 -0.2645804,0.293336 l -0.09107,0.178512 -0.1146366,-0.09017 C 9.3397146,19.54003 9.1006238,19.532833 8.9980044,19.635455 c -0.066628,0.06663 -0.072214,0.140539 -0.046696,0.617864 0.025656,0.479915 0.046842,0.586478 0.1844746,0.927875 0.085519,0.21213 0.1829456,0.41636 0.2165028,0.453844 0.04146,0.04631 0.053624,0.132656 0.037957,0.269422 -0.034849,0.304221 0.090105,0.743743 0.2540773,0.893704 l 0.1341647,0.1227 -0.1620061,0.197707 c -0.089104,0.108739 -0.1772108,0.197707 -0.195794,0.197707 -0.063568,0 -0.1846183,0.230166 -0.3073933,0.58448 l -0.122752,0.354248 -0.3291684,0.01566 -0.3291684,0.01566 0.034455,-0.208811 c 0.01895,-0.114846 0.046789,-0.269221 0.061864,-0.343054 0.043143,-0.21131 -0.08507,-0.332387 -0.3103105,-0.29304 -0.2628495,0.04592 -0.2987096,0.145939 -0.2702423,0.75376 0.012964,0.276791 0.030512,0.510197 0.038996,0.518681 0.00848,0.0085 0.2676033,0.03863 0.5758197,0.06698 l 0.5603935,0.05156 v 0.169311 c 0,0.163967 0.1964133,0.637533 0.3258527,0.785654 0.03368,0.03854 0.094422,0.135571 0.1349825,0.215621 0.04056,0.08005 0.1175362,0.165578 0.1710575,0.190059 0.089321,0.04086 0.098392,0.08053 0.1104717,0.483178 0.00732,0.244116 -0.00703,0.476396 -0.032366,0.523737 -0.031353,0.05858 -0.031052,0.126594 9.678e-4,0.218446 0.052374,0.150242 0.2385297,0.243283 0.6811508,0.340442 0.145841,0.03201 0.270137,0.05979 0.276214,0.06172 0.0061,0.0019 0.01105,-0.123394 0.01105,-0.278503 z m 5.23701,0.230589 c 0.09723,-0.02801 0.224921,-0.04773 0.283762,-0.04382 0.05884,0.0039 0.237829,-0.0352 0.397748,-0.08691 0.262942,-0.08503 0.483153,-0.175294 1.240937,-0.508659 0.521952,-0.229618 0.59347,-0.23501 1.037988,-0.07826 0.922073,0.325146 0.986849,0.334806 1.29808,0.193581 0.105959,-0.04808 0.257875,-0.08742 0.337592,-0.08742 0.211717,0 1.431749,-0.61483 1.692275,-0.852815 0.114489,-0.104584 0.263801,-0.225045 0.331805,-0.267691 0.182327,-0.11434 0.272824,-0.292996 0.409375,-0.808179 0.120113,-0.45316 0.121092,-0.466831 0.04965,-0.693458 -0.04008,-0.127151 -0.122945,-0.299051 -0.184142,-0.382 -0.0612,-0.08295 -0.111268,-0.177149 -0.111268,-0.209334 0,-0.03219 -0.05222,-0.158397 -0.116056,-0.280471 -0.06383,-0.122074 -0.108578,-0.226695 -0.09944,-0.23249 0.0091,-0.0058 0.17131,-0.126851 0.360378,-0.269012 0.471835,-0.354774 0.841991,-0.77163 1.038925,-1.169999 0.150978,-0.305404 0.164059,-0.362226 0.163457,-0.709999 -7.03e-4,-0.405842 -0.09873,-0.978728 -0.21495,-1.25627 -0.05654,-0.135017 -0.08419,-0.16074 -0.131017,-0.121879 -0.04605,0.03822 -0.07059,0.02458 -0.109533,-0.06088 -0.05857,-0.128547 -0.119018,-0.141389 -0.160213,-0.03404 -0.02225,0.05798 -0.03753,0.06263 -0.06418,0.01951 -0.05165,-0.08357 -0.341947,0.504616 -0.397575,0.805541 -0.02524,0.136516 -0.06598,0.285761 -0.09054,0.331654 -0.08187,0.152976 -0.444083,0.552316 -0.577703,0.636919 l -0.131884,0.0835 v -0.269505 c 0,-0.21058 -0.01933,-0.288831 -0.08839,-0.357894 -0.09997,-0.09997 -0.318697,-0.117347 -0.390354,-0.031 -0.07068,0.08516 -0.442031,0.05449 -0.646505,-0.0534 -0.09629,-0.05081 -0.256818,-0.09238 -0.356729,-0.09238 -0.09991,0 -0.272125,-0.03083 -0.382699,-0.0685 -0.191524,-0.06526 -0.202349,-0.07803 -0.22863,-0.269771 -0.01517,-0.110698 -0.01642,-0.273774 -0.0028,-0.362391 0.03215,-0.208658 -0.121574,-0.847857 -0.245886,-1.022436 -0.121366,-0.170444 -0.219397,-0.221444 -0.425654,-0.221444 -0.141232,0 -0.195998,0.03189 -0.367508,0.214029 -0.191299,0.203149 -0.211266,0.213004 -0.392841,0.1939 -0.162308,-0.01708 -0.2543,0.01156 -0.60705,0.188982 -0.333541,0.16776 -0.475523,0.272031 -0.71801,0.527307 -0.166241,0.175009 -0.350477,0.406317 -0.409415,0.514019 -0.116116,0.21219 -0.399628,0.389496 -0.628201,0.392873 -0.311574,0.0046 -0.859444,0.469128 -1.07068,0.907803 -0.07023,0.14584 -0.140657,0.275108 -0.15651,0.287262 -0.01585,0.01215 -0.05435,0.101646 -0.08556,0.198874 -0.0312,0.09723 -0.093,0.228519 -0.137332,0.291759 -0.160489,0.228956 -0.258292,1.097953 -0.139674,1.241027 0.04357,0.05255 0.141627,0.983497 0.143765,1.364843 2.21e-4,0.03806 -0.08018,0.114484 -0.178654,0.169829 -0.09847,0.05534 -0.326704,0.217968 -0.507179,0.361385 -0.559538,0.444645 -0.629648,0.751005 -0.315319,1.377859 0.151596,0.302322 0.175525,0.327021 0.437325,0.451392 0.382587,0.181753 1.257654,0.260632 1.646972,0.148459 z m 0.110485,-10.998764 c 3.366492,-0.291199 6.187822,-0.540555 6.269622,-0.554124 l 0.148729,-0.02467 -0.0189,-0.261277 c -0.01039,-0.143701 -0.0276,-0.26897 -0.03824,-0.278374 -0.02279,-0.02015 -12.85775,1.102732 -12.8729931,1.126207 -0.00571,0.0088 -0.00288,0.139661 0.00629,0.290822 l 0.016666,0.27484 0.183969,-0.02198 c 0.101183,-0.01209 2.9383711,-0.260239 6.3048621,-0.551439 z m 0.861787,-3.683681 5.789437,-0.493479 -0.01454,-0.263741 c -0.008,-0.145057 -0.02372,-0.27292 -0.03494,-0.284141 -0.01122,-0.01122 -1.028879,0.06497 -2.261464,0.169317 -6.767694,0.57292 -9.878338,0.84411 -9.897069,0.862841 -0.01154,0.01155 -0.007,0.141494 0.01009,0.288775 l 0.03108,0.267783 0.293983,-0.02694 c 0.16169,-0.01481 2.899229,-0.249003 6.083419,-0.520417 z m 0.441942,-2.838273 c 3.208497,-0.4053334 5.85026,-0.7517299 5.870585,-0.76977 0.02032,-0.018041 0.02301,-0.1444451 0.006,-0.2808991 -0.03032,-0.2426909 -0.03402,-0.2480451 -0.169536,-0.2456639 -0.0762,0.00134 -2.743786,0.3346441 -5.927976,0.7406789 l -5.789437,0.7382441 0.01385,0.198448 c 0.01819,0.260638 0.04696,0.35282 0.110665,0.354529 0.02875,7.73e-4 2.677399,-0.330234 5.885896,-0.735567 z m 0.08839,-3.3773518 c 3.11127,-0.6129047 5.67188,-1.127923 5.690246,-1.144485 0.05373,-0.048454 -0.06024,-0.5334352 -0.125351,-0.5334352 -0.05276,0 -12.072272,2.3617831 -12.287992,2.4145372 -0.09872,0.024142 -0.09872,0.024117 0.0052,0.4851235 l 0.02105,0.093331 0.519971,-0.1003495 c 0.285985,-0.055192 3.065557,-0.6018168 6.176827,-1.2147215 z"
         style="fill:#ffffff;stroke:#000000;stroke-width:0.0883883;stroke-linejoin:round;fill-opacity:1" />
    </g>
  </g>
  <metadata
     id="metadata13">
    <rdf:RDF>
      <cc:Work>
        <dc:format>image/svg+xml</dc:format>
        <dc:type
           rdf:resource="http://purl.org/dc/dcmitype/StillImage" />
        <cc:license
           rdf:resource="http://creativecommons.org/publicdomain/zero/1.0/" />
        <dc:publisher>
          <cc:Agent
             rdf:about="http://openclipart.org/">
            <dc:title>Openclipart</dc:title>
          </cc:Agent>
        </dc:publisher>
        <dc:title />
        <dc:date>2009-04-23T23:01:07</dc:date>
        <dc:description>Simple BW paper with writings</dc:description>
        <dc:source>https://openclipart.org/detail/25275/paper-by-printerkiller-25275</dc:source>
        <dc:creator>
          <cc:Agent>
            <dc:title>PrinterKiller</dc:title>
          </cc:Agent>
        </dc:creator>
        <dc:subject>
          <rdf:Bag>
            <rdf:li>paper</rdf:li>
            <rdf:li>symbol</rdf:li>
          </rdf:Bag>
        </dc:subject>
      </cc:Work>
      <cc:License
         rdf:about="http://creativecommons.org/publicdomain/zero/1.0/">
        <cc:permits
           rdf:resource="http://creativecommons.org/ns#Reproduction" />
        <cc:permits
           rdf:resource="http://creativecommons.org/ns#Distribution" />
        <cc:permits
           rdf:resource="http://creativecommons.org/ns#DerivativeWorks" />
      </cc:License>
    </rdf:RDF>
  </metadata>
</svg>
