<svg width="19" height="18" viewBox="0 0 19 18" fill="none" xmlns="http://www.w3.org/2000/svg">
<g filter="url(#filter0_i)">
<ellipse cx="9.02244" cy="9" rx="9.02244" ry="9" fill="#FBFBFB"/>
<path d="M9.46194 10.92C9.14461 10.92 8.85994 10.9153 8.60794 10.906C8.35594 10.8967 8.11327 10.885 7.87994 10.871C7.65127 10.857 7.40394 10.836 7.13794 10.808C7.13794 10.1827 7.26161 9.62267 7.50894 9.128C7.76094 8.63333 8.11794 8.18067 8.57994 7.77C8.83661 7.54133 9.03961 7.322 9.18894 7.112C9.34294 6.89733 9.41994 6.68267 9.41994 6.468C9.41994 6.20667 9.33127 6.00367 9.15394 5.859C8.98127 5.71433 8.74561 5.642 8.44694 5.642C8.21361 5.642 8.00361 5.677 7.81694 5.747C7.63027 5.817 7.46227 5.91967 7.31294 6.055C7.16827 6.18567 7.03994 6.34433 6.92794 6.531C6.82061 6.713 6.72494 6.92067 6.64094 7.154L4.86994 6.146C4.99127 5.61867 5.22694 5.173 5.57694 4.809C5.93161 4.445 6.36094 4.16967 6.86494 3.983C7.37361 3.79167 7.91027 3.696 8.47494 3.696C9.08627 3.696 9.63461 3.78933 10.1199 3.976C10.6099 4.158 10.9973 4.43567 11.2819 4.809C11.5666 5.17767 11.7089 5.642 11.7089 6.202C11.7089 6.61733 11.6553 6.96967 11.5479 7.259C11.4406 7.54367 11.2983 7.78867 11.1209 7.994C10.9483 8.19933 10.7616 8.39067 10.5609 8.568C10.3789 8.73133 10.2039 8.92733 10.0359 9.156C9.87261 9.38467 9.73727 9.646 9.62994 9.94C9.52727 10.2293 9.47127 10.556 9.46194 10.92ZM8.45394 14.07C8.06661 14.07 7.72827 13.9603 7.43894 13.741C7.15427 13.517 7.01194 13.2043 7.01194 12.803C7.01194 12.5837 7.07727 12.3783 7.20794 12.187C7.33861 11.991 7.51127 11.8347 7.72594 11.718C7.94061 11.5967 8.16694 11.536 8.40494 11.536C8.82961 11.536 9.18194 11.6457 9.46194 11.865C9.74661 12.0797 9.88894 12.3643 9.88894 12.719C9.88894 12.971 9.82127 13.1997 9.68594 13.405C9.55527 13.6103 9.38027 13.7737 9.16094 13.895C8.94627 14.0117 8.71061 14.07 8.45394 14.07Z" fill="#2D2A2B"/>
</g>
<defs>
<filter id="filter0_i" x="0" y="0" width="18.0449" height="20" filterUnits="userSpaceOnUse" color-interpolation-filters="sRGB">
<feFlood flood-opacity="0" result="BackgroundImageFix"/>
<feBlend mode="normal" in="SourceGraphic" in2="BackgroundImageFix" result="shape"/>
<feColorMatrix in="SourceAlpha" type="matrix" values="0 0 0 0 0 0 0 0 0 0 0 0 0 0 0 0 0 0 127 0" result="hardAlpha"/>
<feOffset dy="2"/>
<feGaussianBlur stdDeviation="1"/>
<feComposite in2="hardAlpha" operator="arithmetic" k2="-1" k3="1"/>
<feColorMatrix type="matrix" values="0 0 0 0 0 0 0 0 0 0 0 0 0 0 0 0 0 0 0.25 0"/>
<feBlend mode="normal" in2="shape" result="effect1_innerShadow"/>
</filter>
</defs>
</svg>
