<svg width="100" height="78" viewBox="0 0 100 78" fill="none" xmlns="http://www.w3.org/2000/svg">
<path d="M90.9091 2.27273C85.8636 0.681818 80.3182 0 75 0C66.1364 0 56.5909 1.81818 50 6.81818C43.4091 1.81818 33.8636 0 25 0C16.1364 0 6.59091 1.81818 0 6.81818V73.4091C0 74.5454 1.13636 75.6818 2.27273 75.6818C2.72727 75.6818 2.95455 75.4545 3.40909 75.4545C9.54545 72.5 18.4091 70.4545 25 70.4545C33.8636 70.4545 43.4091 72.2727 50 77.2727C56.1364 73.4091 67.2727 70.4545 75 70.4545C82.5 70.4545 90.2273 71.8182 96.5909 75.2273C97.0455 75.4545 97.2727 75.4545 97.7273 75.4545C98.8636 75.4545 100 74.3182 100 73.1818V6.81818C97.2727 4.77273 94.3182 3.40909 90.9091 2.27273ZM90.9091 63.6364C85.9091 62.0455 80.4545 61.3636 75 61.3636C67.2727 61.3636 56.1364 64.3182 50 68.1818V15.9091C56.1364 12.0455 67.2727 9.09091 75 9.09091C80.4545 9.09091 85.9091 9.77273 90.9091 11.3636V63.6364Z" fill="#292929"/>
<path d="M74.9995 27.2728C78.9995 27.2728 82.8631 27.6819 86.3631 28.4546V21.5455C82.7722 20.8637 78.9086 20.4546 74.9995 20.4546C67.2722 20.4546 60.2722 21.7728 54.5449 24.2273V31.7728C59.6813 28.8637 66.8176 27.2728 74.9995 27.2728ZM54.5449 36.3182V43.8637C59.6813 40.9546 66.8176 39.3637 74.9995 39.3637C78.9995 39.3637 82.8631 39.7728 86.3631 40.5455V33.6364C82.7722 32.9546 78.9086 32.5455 74.9995 32.5455C67.2722 32.5455 60.2722 33.9091 54.5449 36.3182ZM74.9995 44.6819C67.2722 44.6819 60.2722 46 54.5449 48.4546V56C59.6813 53.091 66.8176 51.5 74.9995 51.5C78.9995 51.5 82.8631 51.9091 86.3631 52.6819V45.7728C82.7722 45.0455 78.9086 44.6819 74.9995 44.6819Z" fill="#292929"/>
</svg>
