<svg width="72" height="68" viewBox="0 0 72 68" fill="none" xmlns="http://www.w3.org/2000/svg">
<path d="M25.8322 34.4659C25.2706 34.9231 22.7883 36.5637 21.6173 37.3269L21.7548 63.3001L24.5747 63.2852L28.6765 65.6763L58.569 65.66C59.1782 65.3256 60.621 64.4002 61.518 63.3735C62.6392 62.0901 62.6332 60.9547 62.6287 60.1031C62.6242 59.2515 61.2082 58.1236 61.0634 57.4147C61.0154 57.2257 60.9753 56.7622 61.1991 56.4204C61.4789 55.9931 62.3226 55.5629 62.7441 55.2768C63.4675 54.7857 64.1903 54.029 64.4278 53.7066C64.8478 53.1366 65.2671 52.4247 65.2603 51.1473C65.2528 49.728 63.6966 48.7427 63.5518 48.0338C63.407 47.3249 64.25 46.7527 64.8118 46.324C65.3735 45.8952 66.9192 44.8935 67.337 43.8977C67.7547 42.902 67.6077 41.7673 67.3205 40.7753C67.0332 39.7832 65.9014 39.0796 65.8977 38.3699C65.8939 37.6603 66.8779 37.0873 67.5814 36.7997C68.2849 36.5121 69.5479 35.37 69.9641 34.0904C70.3804 32.8107 69.6663 31.1113 68.8166 30.4061C68.1368 29.842 66.4629 29.7089 65.7109 29.7129L45.4078 29.9623C45.1258 29.9638 44.8013 29.9369 44.7005 29.5403C44.5565 28.9733 46.214 22.4355 46.4862 20.589C46.7584 18.7424 47.0713 15.7567 46.8716 13.4902C46.7216 11.7878 46.2941 10.9385 45.8628 9.37947C45.4316 7.82048 43.8626 4.42237 43.5761 3.57228C43.2895 2.72219 42.0183 2.30311 40.7486 2.1679C39.7328 2.05973 38.6363 2.69951 38.2151 3.03292L38.2767 14.6712L32.4103 25.2054C30.4516 28.1017 26.3938 34.0087 25.8322 34.4659Z" fill="#E5E5E5" stroke="#2D2A2B" stroke-width="3" stroke-linejoin="round"/>
<path d="M7.28839 65.9315L21.8032 65.8546L21.7363 33.0682L5.40798 33.2966L7.28839 65.9315Z" fill="#9BE1DF" stroke="#2D2A2B" stroke-width="3" stroke-linejoin="round"/>
</svg>
