<svg width="35" height="35" viewBox="0 0 35 35" fill="none" xmlns="http://www.w3.org/2000/svg">
<path d="M4.375 8.75H7.29167H30.625" stroke="#8CE2E0" stroke-width="2" stroke-linecap="round" stroke-linejoin="round"/>
<path d="M28.7082 8.74996C28.7082 8.19767 28.2605 7.74996 27.7082 7.74996C27.1559 7.74996 26.7082 8.19767 26.7082 8.74996H28.7082ZM8.2915 8.74996C8.2915 8.19767 7.84379 7.74996 7.2915 7.74996C6.73922 7.74996 6.2915 8.19767 6.2915 8.74996H8.2915ZM10.6665 8.74996C10.6665 9.30224 11.1142 9.74996 11.6665 9.74996C12.2188 9.74996 12.6665 9.30224 12.6665 8.74996H10.6665ZM22.3332 8.74996C22.3332 9.30224 22.7809 9.74996 23.3332 9.74996C23.8855 9.74996 24.3332 9.30224 24.3332 8.74996H22.3332ZM26.7082 8.74996V29.1666H28.7082V8.74996H26.7082ZM26.7082 29.1666C26.7082 30.2252 25.85 31.0833 24.7915 31.0833V33.0833C26.9546 33.0833 28.7082 31.3297 28.7082 29.1666H26.7082ZM24.7915 31.0833H10.2082V33.0833H24.7915V31.0833ZM10.2082 31.0833C9.14962 31.0833 8.2915 30.2252 8.2915 29.1666H6.2915C6.2915 31.3297 8.04506 33.0833 10.2082 33.0833V31.0833ZM8.2915 29.1666V8.74996H6.2915V29.1666H8.2915ZM12.6665 8.74996V5.83329H10.6665V8.74996H12.6665ZM12.6665 5.83329C12.6665 4.77475 13.5246 3.91663 14.5832 3.91663V1.91663C12.4201 1.91663 10.6665 3.67018 10.6665 5.83329H12.6665ZM14.5832 3.91663H20.4165V1.91663H14.5832V3.91663ZM20.4165 3.91663C21.4751 3.91663 22.3332 4.77475 22.3332 5.83329H24.3332C24.3332 3.67018 22.5796 1.91663 20.4165 1.91663V3.91663ZM22.3332 5.83329V8.74996H24.3332V5.83329H22.3332Z" fill="#8CE2E0"/>
<path d="M14.5835 16.0416V24.7916" stroke="#8CE2E0" stroke-width="2" stroke-linecap="round" stroke-linejoin="round"/>
<path d="M20.4165 16.0416V24.7916" stroke="#8CE2E0" stroke-width="2" stroke-linecap="round" stroke-linejoin="round"/>
</svg>
