<svg xmlns="http://www.w3.org/2000/svg" viewBox="0 0 697.31 510.98"><defs><style>.cls-1{fill:#966400;}.cls-2{fill:#ffbc00;}.cls-3{fill:#ffd766;}.cls-4{fill:none;stroke:#ffd766;stroke-miterlimit:10;}.cls-5{fill:#fff;}</style></defs><g id="Layer_2" data-name="Layer 2"><g id="Layer_2-2" data-name="Layer 2"><path class="cls-1" d="M655.79,263.81s25.77,26.14,24.86,49.71c-1.49,38.24-20.4,50.35-20.4,74.56,0,39-1.27,52.9-7.64,61.82s24.85,47.16-15.93,58.63-45.25-21-60.55-21-3.18,15.93-16.57,15.93-31.86-24.22-101.33-24.22-77.39,27.12-93,16.36c-21.52-14.87-28.33-14.87-49.85,0-15.58,10.76-23.51-16.36-93-16.36s-87.95,24.22-101.33,24.22-1.28-15.93-16.57-15.93S84.78,520,44,508.53s-9.56-49.71-15.94-58.63S9,455.63,4.48,449.9s15.94-22.81,15.94-61.82c0-24.21-18.91-36.32-20.4-74.56C-.89,290,24.88,263.81,24.88,263.81S-.89,237.67,0,214.1c1.49-38.23,20.4-50.34,20.4-74.56,0-39-20.4-56.08-15.94-61.82s17.21,8.92,23.58,0S3.21,30.56,44,19.09s45.24,21,60.54,21,3.19-15.93,16.57-15.93S153,48.41,222.44,48.41s77.39-27.12,93-16.36c21.52,14.87,28.33,14.87,49.85,0,15.58-10.76,23.51,16.36,93,16.36s87.95-24.22,101.33-24.22,1.28,15.93,16.57,15.93,19.76-32.5,60.55-21,9.55,49.71,15.93,58.63,19.12-5.73,23.58,0-15.94,22.81-15.94,61.82c0,24.22,18.91,36.33,20.4,74.56C681.56,237.67,655.79,263.81,655.79,263.81Z"/><path class="cls-2" d="M672.43,247.17s25.78,26.14,24.86,49.71c-1.49,38.24-20.39,50.35-20.39,74.56,0,39,20.39,56.08,15.93,61.82s-17.21-8.92-23.58,0,24.85,47.16-15.93,58.63-45.25-21-60.55-21-3.18,15.93-16.57,15.93-31.86-24.22-101.33-24.22-77.39,27.12-93,16.36c-21.52-14.87-28.33-14.87-49.85,0-15.58,10.76-23.51-16.36-93-16.36s-88,24.22-101.33,24.22-1.28-15.93-16.57-15.93-19.76,32.5-60.54,21-9.56-49.71-15.94-58.63-19.11,5.73-23.57,0,15.93-22.81,15.93-61.82c0-24.21-18.91-36.32-20.4-74.56-.91-23.57,24.86-49.71,24.86-49.71S15.75,221,16.66,197.46c1.49-38.24,20.4-50.34,20.4-74.56,0-39-20.4-56.08-15.93-61.82s17.2,8.92,23.57,0S19.85,13.92,60.64,2.45s45.24,21,60.54,21,3.19-15.93,16.57-15.93,31.86,24.22,101.33,24.22,77.39-27.12,93-16.36c21.52,14.87,28.33,14.87,49.85,0,15.58-10.76,23.51,16.36,93,16.36s88-24.22,101.33-24.22,1.28,15.93,16.57,15.93,19.76-32.5,60.55-21,9.55,49.71,15.93,58.63,19.12-5.73,23.58,0S676.9,83.89,676.9,122.9c0,24.22,18.9,36.32,20.39,74.56C698.21,221,672.43,247.17,672.43,247.17Z"/><path class="cls-3" d="M649.37,247.17s23.89,23.36,23,44.43c-1.38,34.17-18.9,45-18.9,66.63,0,34.86,18.9,50.12,14.77,55.25s-15.95-8-21.86,0,23,42.15-14.77,52.4-41.94-18.8-56.11-18.8-3,14.24-15.36,14.24-29.54-21.64-93.92-21.64-71.74,24.24-86.18,14.62c-19.95-13.29-26.26-13.29-46.21,0-14.44,9.62-21.79-14.62-86.17-14.62s-81.52,21.64-93.93,21.64-1.18-14.24-15.35-14.24-18.32,29.05-56.12,18.8-8.86-44.43-14.77-52.4-17.72,5.13-21.85,0,14.76-20.39,14.76-55.25c0-21.64-17.52-32.46-18.9-66.63-.85-21.07,23-44.43,23-44.43s-23.89-23.36-23-44.42c1.38-34.18,18.9-45,18.9-66.64,0-34.86-18.9-50.12-14.76-55.25s15.94,8,21.85,0-23-42.14,14.77-52.4,41.94,18.8,56.12,18.8S141.37,33,153.77,33s29.54,21.64,93.93,21.64S319.43,30.43,333.87,40c19.95,13.29,26.26,13.29,46.21,0,14.44-9.61,21.79,14.62,86.18,14.62S547.77,33,560.18,33s1.18,14.24,15.36,14.24,18.31-29,56.11-18.8,8.86,44.43,14.77,52.4,17.72-5.12,21.86,0-14.77,20.39-14.77,55.25c0,21.64,17.52,32.46,18.9,66.64C673.26,223.81,649.37,247.17,649.37,247.17Z"/><path class="cls-4" d="M649.37,247.17s23.89,23.36,23,44.43c-1.38,34.17-18.9,45-18.9,66.63,0,34.86,18.9,50.12,14.77,55.25s-15.95-8-21.86,0,23,42.15-14.77,52.4-41.94-18.8-56.11-18.8-3,14.24-15.36,14.24-29.54-21.64-93.92-21.64-71.74,24.24-86.18,14.62c-19.95-13.29-26.26-13.29-46.21,0-14.44,9.62-21.79-14.62-86.17-14.62s-81.52,21.64-93.93,21.64-1.18-14.24-15.35-14.24-18.32,29.05-56.12,18.8-8.86-44.43-14.77-52.4-17.72,5.13-21.85,0,14.76-20.39,14.76-55.25c0-21.64-17.52-32.46-18.9-66.63-.85-21.07,23-44.43,23-44.43s-23.89-23.36-23-44.42c1.38-34.18,18.9-45,18.9-66.64,0-34.86-18.9-50.12-14.76-55.25s15.94,8,21.85,0-23-42.14,14.77-52.4,41.94,18.8,56.12,18.8S141.37,33,153.77,33s29.54,21.64,93.93,21.64S319.43,30.43,333.87,40c19.95,13.29,26.26,13.29,46.21,0,14.44-9.61,21.79,14.62,86.18,14.62S547.77,33,560.18,33s1.18,14.24,15.36,14.24,18.31-29,56.11-18.8,8.86,44.43,14.77,52.4,17.72-5.12,21.86,0-14.77,20.39-14.77,55.25c0,21.64,17.52,32.46,18.9,66.64C673.26,223.81,649.37,247.17,649.37,247.17Z"/><rect class="cls-5" x="91.72" y="76.17" width="530.52" height="342" rx="16"/></g></g></svg>