<svg width="140" height="227" viewBox="0 0 140 227" fill="none" xmlns="http://www.w3.org/2000/svg">
<path d="M77.7692 2H62.1923L42 63.6201L68.8269 57.7993L58.4423 81.2832L65.6538 149.928L45.4615 193.685H60.4615L51.8077 226L67.0962 189.871H51.8077L71.1346 151.133V79.6774L87 41.7419L62.1923 45.957L77.7692 2Z" fill="#FFFC31" stroke="black" stroke-width="3"/>
<path d="M81.5241 79.1325L69.5021 88.5963C69.1417 88.88 68.6344 88.8821 68.2716 88.6015L56.3741 79.3972C55.6846 78.8638 54.6904 79.4064 54.766 80.2749L55.6732 90.6964C55.7349 91.4047 55.0584 91.9493 54.3796 91.7379L28.3951 83.6438C27.5224 83.372 26.7726 84.3167 27.2353 85.1049L37.0345 101.795C37.4475 102.499 36.8899 103.374 36.0777 103.297L9.9158 100.816C9.04983 100.734 8.49915 101.72 9.02339 102.414L21.79 119.317C22.2258 119.894 21.924 120.729 21.22 120.894L3.20624 125.111C2.24371 125.336 2.15691 126.673 3.08219 127.021L24.6702 135.139C25.2965 135.374 25.5193 136.147 25.1147 136.68L12.2663 153.603C11.7032 154.345 12.3704 155.386 13.2795 155.184L33.0375 150.797C33.7511 150.638 34.388 151.274 34.2309 151.988L31.033 166.517C30.8585 167.309 31.651 167.969 32.3986 167.653L50.9377 159.824C51.3358 159.656 51.7969 159.762 52.0807 160.088L61.3757 170.757C61.8047 171.25 62.5828 171.206 62.9533 170.668L70.0381 160.383C70.356 159.921 70.9911 159.811 71.4459 160.139L90.1327 173.593C90.8184 174.087 91.7695 173.56 91.7149 172.717L90.7129 157.25C90.6671 156.544 91.3496 156.015 92.0222 156.236L116.472 164.249C117.351 164.537 118.116 163.58 117.642 162.786L108.88 148.108C108.466 147.415 109.001 146.543 109.806 146.598L131.038 148.036C132.001 148.101 132.489 146.899 131.752 146.275L117.932 134.571C117.33 134.062 117.528 133.088 118.281 132.854L137.519 126.856C138.393 126.584 138.472 125.378 137.641 124.994L115.529 114.783C115.008 114.542 114.796 113.912 115.066 113.405L124.625 95.4862C125.032 94.7232 124.344 93.8382 123.504 94.0443L98.3877 100.209C97.6595 100.388 97.0009 99.7312 97.1774 99.0025L101.162 82.5541C101.371 81.6894 100.432 81.0022 99.6713 81.4637L85.5593 90.0254C84.929 90.4078 84.1157 89.9999 84.0452 89.2661L83.1381 79.8227C83.0624 79.0352 82.1457 78.6432 81.5241 79.1325Z" fill="white" stroke="black" stroke-width="3"/>
<g filter="url(#filter0_d)">
<path d="M51.832 143.432C52.248 138.952 52.632 134.552 52.984 130.232C53.144 128.44 53.288 126.552 53.416 124.568C53.576 122.584 53.704 120.632 53.8 118.712C53.928 116.76 54.024 114.888 54.088 113.096C54.152 111.272 54.2 109.608 54.232 108.104C55 108.104 55.816 108.088 56.68 108.056C57.576 108.024 58.376 107.992 59.08 107.96C59.816 107.928 60.44 107.896 60.952 107.864C61.464 107.8 61.72 107.768 61.72 107.768C61.368 111.48 61.064 114.536 60.808 116.936C60.552 119.304 60.344 121.24 60.184 122.744C60.056 124.216 59.928 125.64 59.8 127.016C59.704 128.392 59.592 129.672 59.464 130.856C59.336 132.04 59.224 133.048 59.128 133.88H59.992L65.368 108.344C66.232 108.312 67.112 108.264 68.008 108.2C68.808 108.136 69.64 108.088 70.504 108.056C71.4 108.024 72.216 107.96 72.952 107.864C72.504 109.272 72.04 110.824 71.56 112.52C71.112 114.216 70.632 115.976 70.12 117.8C69.64 119.624 69.16 121.48 68.68 123.368C68.232 125.256 67.784 127.08 67.336 128.84C66.312 132.968 65.288 137.208 64.264 141.56L51.832 143.432ZM88.4515 131.144C88.4515 132.936 88.0995 134.568 87.3955 136.04C86.7235 137.48 85.7955 138.728 84.6115 139.784C83.4595 140.84 82.0835 141.656 80.4835 142.232C78.9155 142.808 77.2195 143.096 75.3955 143.096C74.1155 143.096 72.8355 142.76 71.5555 142.088C70.2755 141.384 69.0435 140.28 67.8595 138.776L71.4115 131.816C71.6355 132.232 71.9715 132.664 72.4195 133.112C72.8675 133.528 73.3635 133.896 73.9075 134.216C74.4835 134.536 75.0435 134.808 75.5875 135.032C76.1635 135.224 76.6755 135.32 77.1235 135.32C77.5075 135.32 77.9075 135.256 78.3235 135.128C78.7395 135 79.1235 134.808 79.4755 134.552C79.8275 134.296 80.0995 134.008 80.2915 133.688C80.5155 133.336 80.6275 132.936 80.6275 132.488C80.6275 131.72 80.3715 131.016 79.8595 130.376C79.3795 129.704 78.7715 129.08 78.0355 128.504C77.2995 127.896 76.4995 127.288 75.6355 126.68C74.7715 126.072 73.9715 125.432 73.2355 124.76C72.5315 124.088 71.9235 123.336 71.4115 122.504C70.8995 121.672 70.6435 120.744 70.6435 119.72C70.6435 118.056 71.1395 116.504 72.1315 115.064C73.1235 113.624 74.3555 112.392 75.8275 111.368C77.3315 110.312 78.9635 109.48 80.7235 108.872C82.4835 108.264 84.1475 107.96 85.7155 107.96C86.5795 107.96 87.3955 108.072 88.1635 108.296C88.9315 108.488 89.5875 108.824 90.1315 109.304C90.7075 109.752 91.1555 110.328 91.4755 111.032C91.8275 111.736 92.0035 112.616 92.0035 113.672C92.0035 114.12 91.9555 114.568 91.8595 115.016C91.7955 115.464 91.7315 115.944 91.6675 116.456L84.7075 118.472C84.7715 118.216 84.8195 117.96 84.8515 117.704C84.9155 117.448 84.9475 117.192 84.9475 116.936C84.9475 115.976 84.7715 115.288 84.4195 114.872C84.0995 114.424 83.6675 114.2 83.1235 114.2C82.8675 114.2 82.5475 114.296 82.1635 114.488C81.8115 114.68 81.4435 114.936 81.0595 115.256C80.7075 115.544 80.4035 115.896 80.1475 116.312C79.8915 116.728 79.7635 117.176 79.7635 117.656C79.7635 118.424 79.9715 119.064 80.3875 119.576C80.8355 120.088 81.3795 120.568 82.0195 121.016C82.6595 121.464 83.3475 121.928 84.0835 122.408C84.8515 122.856 85.5555 123.448 86.1955 124.184C86.8355 124.92 87.3635 125.848 87.7795 126.968C88.2275 128.056 88.4515 129.448 88.4515 131.144Z" fill="#587291"/>
</g>
<defs>
<filter id="filter0_d" x="51.832" y="107.768" width="40.1715" height="40.664" filterUnits="userSpaceOnUse" color-interpolation-filters="sRGB">
<feFlood flood-opacity="0" result="BackgroundImageFix"/>
<feColorMatrix in="SourceAlpha" type="matrix" values="0 0 0 0 0 0 0 0 0 0 0 0 0 0 0 0 0 0 127 0"/>
<feOffset dy="5"/>
<feColorMatrix type="matrix" values="0 0 0 0 0 0 0 0 0 0 0 0 0 0 0 0 0 0 1 0"/>
<feBlend mode="normal" in2="BackgroundImageFix" result="effect1_dropShadow"/>
<feBlend mode="normal" in="SourceGraphic" in2="effect1_dropShadow" result="shape"/>
</filter>
</defs>
</svg>
