<svg width="278" height="221" viewBox="0 0 278 221" fill="none" xmlns="http://www.w3.org/2000/svg">
<mask id="path-1-inside-1" fill="white">
<path fill-rule="evenodd" clip-rule="evenodd" d="M67.9845 41.925C40.3704 42.0332 18.0726 64.5066 18.1809 92.1206L18.2908 120.179C18.3991 147.793 40.8724 170.091 68.4864 169.983L176.7 169.559L178.774 206.202L209.156 169.431L211.797 169.421C239.411 169.313 261.709 146.839 261.601 119.225L261.491 91.1668C261.383 63.5528 238.909 41.2549 211.295 41.3632L67.9845 41.925Z"/>
</mask>
<path fill-rule="evenodd" clip-rule="evenodd" d="M67.9845 41.925C40.3704 42.0332 18.0726 64.5066 18.1809 92.1206L18.2908 120.179C18.3991 147.793 40.8724 170.091 68.4864 169.983L176.7 169.559L178.774 206.202L209.156 169.431L211.797 169.421C239.411 169.313 261.709 146.839 261.601 119.225L261.491 91.1668C261.383 63.5528 238.909 41.2549 211.295 41.3632L67.9845 41.925Z" fill="white"/>
<path d="M18.1809 92.1206L13.1809 92.1402L18.1809 92.1206ZM67.9845 41.925L68.0041 46.9249L67.9845 41.925ZM18.2908 120.179L23.2908 120.16L23.2908 120.16L18.2908 120.179ZM68.4864 169.983L68.506 174.983L68.4864 169.983ZM176.7 169.559L181.692 169.276L181.424 164.54L176.681 164.559L176.7 169.559ZM178.774 206.202L173.782 206.485L174.503 219.222L182.628 209.387L178.774 206.202ZM209.156 169.431L209.136 164.431L206.793 164.441L205.301 166.247L209.156 169.431ZM211.797 169.421L211.817 174.421L211.797 169.421ZM261.601 119.225L266.601 119.206L261.601 119.225ZM261.491 91.1668L256.491 91.1864L261.491 91.1668ZM211.295 41.3632L211.315 46.3631L211.295 41.3632ZM23.1808 92.101C23.0834 67.2484 43.1514 47.0223 68.0041 46.9249L67.9649 36.925C37.5894 37.0441 13.0618 61.7648 13.1809 92.1402L23.1808 92.101ZM23.2908 120.16L23.1808 92.101L13.1809 92.1402L13.2909 120.199L23.2908 120.16ZM68.4668 164.983C43.6142 165.08 23.3882 145.012 23.2908 120.16L13.2909 120.199C13.41 150.574 38.1306 175.102 68.506 174.983L68.4668 164.983ZM176.681 164.559L68.4668 164.983L68.506 174.983L176.72 174.559L176.681 164.559ZM183.766 205.92L181.692 169.276L171.708 169.841L173.782 206.485L183.766 205.92ZM205.301 166.247L174.919 203.018L182.628 209.387L213.01 172.616L205.301 166.247ZM211.778 164.421L209.136 164.431L209.175 174.431L211.817 174.421L211.778 164.421ZM256.601 119.245C256.698 144.098 236.63 164.324 211.778 164.421L211.817 174.421C242.192 174.302 266.72 149.581 266.601 119.206L256.601 119.245ZM256.491 91.1864L256.601 119.245L266.601 119.206L266.491 91.1472L256.491 91.1864ZM211.315 46.3631C236.168 46.2657 256.394 66.3338 256.491 91.1864L266.491 91.1472C266.372 60.7718 241.651 36.2442 211.276 36.3632L211.315 46.3631ZM68.0041 46.9249L211.315 46.3631L211.276 36.3632L67.9649 36.925L68.0041 46.9249Z" fill="#292929" mask="url(#path-1-inside-1)"/>
</svg>
