<svg width="278" height="221" viewBox="0 0 278 221" fill="none" xmlns="http://www.w3.org/2000/svg">
<mask id="path-1-inside-1" fill="white">
<path fill-rule="evenodd" clip-rule="evenodd" d="M209.741 41.925C237.355 42.0332 259.653 64.5066 259.545 92.1206L259.435 120.179C259.326 147.793 236.853 170.091 209.239 169.983L101.025 169.559L98.9516 206.202L68.5698 169.431L65.9283 169.421C38.3142 169.313 16.0164 146.839 16.1246 119.225L16.2346 91.1668C16.3429 63.5528 38.8162 41.2549 66.4302 41.3632L209.741 41.925Z"/>
</mask>
<path fill-rule="evenodd" clip-rule="evenodd" d="M209.741 41.925C237.355 42.0332 259.653 64.5066 259.545 92.1206L259.435 120.179C259.326 147.793 236.853 170.091 209.239 169.983L101.025 169.559L98.9516 206.202L68.5698 169.431L65.9283 169.421C38.3142 169.313 16.0164 146.839 16.1246 119.225L16.2346 91.1668C16.3429 63.5528 38.8162 41.2549 66.4302 41.3632L209.741 41.925Z" fill="white"/>
<path d="M259.545 92.1206L264.545 92.1402L259.545 92.1206ZM209.741 41.925L209.722 46.9249L209.741 41.925ZM259.435 120.179L254.435 120.16L254.435 120.16L259.435 120.179ZM209.239 169.983L209.22 174.983L209.239 169.983ZM101.025 169.559L96.0332 169.276L96.3012 164.54L101.045 164.559L101.025 169.559ZM98.9516 206.202L103.944 206.485L103.223 219.222L95.0971 209.387L98.9516 206.202ZM68.5698 169.431L68.5894 164.431L70.9321 164.441L72.4243 166.247L68.5698 169.431ZM65.9283 169.421L65.9087 174.421L65.9283 169.421ZM16.1246 119.225L11.1247 119.206L16.1246 119.225ZM16.2346 91.1668L21.2346 91.1864L16.2346 91.1668ZM66.4302 41.3632L66.4106 46.3632L66.4302 41.3632ZM254.545 92.101C254.642 67.2484 234.574 47.0224 209.722 46.9249L209.761 36.925C240.136 37.0441 264.664 61.7648 264.545 92.1402L254.545 92.101ZM254.435 120.16L254.545 92.101L264.545 92.1402L264.435 120.199L254.435 120.16ZM209.259 164.983C234.111 165.08 254.337 145.012 254.435 120.16L264.435 120.199C264.316 150.574 239.595 175.102 209.22 174.983L209.259 164.983ZM101.045 164.559L209.259 164.983L209.22 174.983L101.006 174.559L101.045 164.559ZM93.9596 205.92L96.0332 169.276L106.017 169.841L103.944 206.485L93.9596 205.92ZM72.4243 166.247L102.806 203.018L95.0971 209.387L64.7153 172.616L72.4243 166.247ZM65.9479 164.421L68.5894 164.431L68.5502 174.431L65.9087 174.421L65.9479 164.421ZM21.1246 119.245C21.0272 144.098 41.0952 164.324 65.9479 164.421L65.9087 174.421C35.5332 174.302 11.0056 149.581 11.1247 119.206L21.1246 119.245ZM21.2346 91.1864L21.1246 119.245L11.1247 119.206L11.2347 91.1472L21.2346 91.1864ZM66.4106 46.3632C41.558 46.2657 21.332 66.3338 21.2346 91.1864L11.2347 91.1472C11.3538 60.7718 36.0744 36.2442 66.4498 36.3632L66.4106 46.3632ZM209.722 46.9249L66.4106 46.3632L66.4498 36.3632L209.761 36.925L209.722 46.9249Z" fill="#292929" mask="url(#path-1-inside-1)"/>
</svg>
