<svg width="463" height="308" viewBox="0 0 463 308" fill="none" xmlns="http://www.w3.org/2000/svg">
<path d="M27.6335 244.82L116.453 206.311L59.6211 268.422L131.36 232.397L91.9193 305.379L166.143 232.397L152.478 299.168L184.466 238.609L203.099 299.168L215.522 238.609L256.205 292.957L272.354 232.397L294.714 299.168L301.714 245.484L362.727 292.957L324.217 251.031L431.981 279.292L362.727 232.397L459 251.031L388.503 200.41H454.031L399.683 163.143L459 146.994L388.503 137.056L459 118.733L362.727 106.311L440.677 61.9006L362.727 76.4969L399.683 20.9068L324.217 61.9006L341.609 20.9068L272.354 53.205V20.9068L235.398 66.4969L215.522 6L184.466 53.205L152.478 29.6025V53.205L109 29.6025L131.36 76.4969L42.2298 29.6025L91.9193 98.8571H9L79.4969 137.056L9 170.596L79.4969 181.776L27.6335 244.82Z" fill="#24345D" stroke="#292929" stroke-width="5"/>
<path d="M99 127.514C99 127.514 137.642 143.845 146.134 127.514C150.55 119.022 146.134 103.005 146.134 103.005C146.134 103.005 165.863 108.037 176.677 103.005C187.492 97.9723 162.348 34 162.348 34L202.318 92.0694L213.253 71.7074C213.253 71.7074 220.859 87.1234 229.845 92.0694C242.823 99.2128 253.159 81.4761 259.895 63.7732C262.529 48.9988 268.683 34 268.683 34C268.683 34 265.564 48.8746 259.895 63.7732C257.502 77.1944 258.014 90.4304 268.683 92.0694C278.947 93.6461 293.947 83.7738 293.947 83.7738C293.947 83.7738 278.148 100.876 281.881 112.431C287.55 129.981 324.49 92.0694 324.49 92.0694C324.49 92.0694 307.165 115.009 314.309 127.514C320.161 137.758 341.836 139.958 341.836 139.958L312.424 144.86L349 161.451C349 161.451 316.713 148.118 314.309 161.451C312.801 169.814 324.49 180.682 324.49 180.682C324.49 180.682 310.53 176.98 302.997 180.682L324.49 224.422L281.881 196.142L276.602 213.487C276.602 213.487 267.193 198.554 257.371 196.142C243.5 192.735 245.588 218.422 248.422 235.528C250.305 243.74 251.338 250.063 251.338 250.063C251.338 250.063 249.793 243.799 248.422 235.528C244.294 217.524 236.079 190.444 225.697 201.044C219.879 206.984 217.401 220.652 217.401 220.652C217.401 220.652 210.156 208.46 202.318 206.323C190.022 202.969 180.679 225.561 177.691 233.877C177.08 235.746 176.677 236.866 176.677 236.866C176.677 236.866 177.027 235.723 177.691 233.877C180.891 224.091 189.817 193.763 176.677 196.142C169.923 197.365 162.348 206.323 162.348 206.323C162.348 206.323 161.035 193.391 155.184 188.977C153.284 187.544 151.125 187.175 148.86 187.536C142.134 197.775 125.772 206.323 125.772 206.323C125.772 206.323 138.437 189.197 148.86 187.536C151.359 183.733 152.528 179.698 151.036 175.78C147 165.18 125.772 161.451 125.772 161.451L146.134 153.155L99 127.514Z" fill="#FED23F" stroke="#292929" stroke-width="5"/>
<path d="M161 140.757C161 140.757 180.321 148.923 184.567 140.757C186.775 136.511 184.567 128.502 184.567 128.502C184.567 128.502 194.431 131.018 199.839 128.502C205.246 125.986 192.674 94 192.674 94L212.659 123.035L218.127 112.854C218.127 112.854 221.929 120.562 226.422 123.035C232.912 126.606 238.079 117.738 241.447 108.887C242.764 101.499 245.842 94 245.842 94C245.842 94 244.282 101.437 241.447 108.887C240.251 115.597 240.507 122.215 245.842 123.035C250.974 123.823 258.474 118.887 258.474 118.887C258.474 118.887 250.574 127.438 252.44 133.216C255.275 141.99 273.745 123.035 273.745 123.035C273.745 123.035 265.083 134.505 268.655 140.757C271.58 145.879 282.418 146.979 282.418 146.979L267.712 149.43L286 157.725C286 157.725 269.857 151.059 268.655 157.725C267.901 161.907 273.745 167.341 273.745 167.341C273.745 167.341 266.765 165.49 262.998 167.341L273.745 189.211L252.44 175.071L249.801 183.744C249.801 183.744 245.096 176.277 240.186 175.071C233.25 173.367 234.294 186.211 235.711 194.764C236.653 198.87 237.169 202.032 237.169 202.032C237.169 202.032 236.396 198.899 235.711 194.764C233.647 185.762 229.539 172.222 224.348 177.522C221.44 180.492 220.201 187.326 220.201 187.326C220.201 187.326 216.578 181.23 212.659 180.161C206.511 178.485 201.839 189.78 200.345 193.939C200.04 194.873 199.839 195.433 199.839 195.433C199.839 195.433 200.014 194.862 200.345 193.939C201.945 189.045 206.409 173.881 199.839 175.071C196.461 175.682 192.674 180.161 192.674 180.161C192.674 180.161 192.017 173.695 189.092 171.489C188.142 170.772 187.063 170.588 185.93 170.768C182.567 175.887 174.386 180.161 174.386 180.161C174.386 180.161 180.719 171.599 185.93 170.768C187.179 168.867 187.764 166.849 187.018 164.89C185 159.59 174.386 157.725 174.386 157.725L184.567 153.578L161 140.757Z" fill="#24345D" stroke="#292929" stroke-width="5"/>
</svg>
