<svg width="417" height="339" viewBox="0 0 417 339" fill="none" xmlns="http://www.w3.org/2000/svg">
<path d="M104.814 192.675C104.814 192.675 69.7067 187.767 82.06 155.866C87.8552 140.9 121.231 140.496 121.231 140.496C121.231 140.496 105.069 131.485 130.406 110.707C144.526 99.1276 176.128 121.537 176.128 121.537C176.128 121.537 199.254 82.2019 222.607 84.2429C260.645 87.5674 258.13 110.263 258.13 110.263C258.13 110.263 293.994 101.659 307.907 114.831C326.41 132.349 316.703 157.363 316.703 157.363C316.703 157.363 367.378 165.526 353.605 196.982C348.344 208.997 324.658 215.225 324.658 215.225C324.658 215.225 347.027 229.432 303.04 243.872C288.89 248.517 270.16 231.091 264.563 225.432C268.09 229.799 273.469 241.588 239.047 250.292C223.15 254.312 201.655 232.136 201.655 232.136C201.655 232.136 186.66 255.234 171.033 259.643C130.533 271.07 121.1 243.211 121.1 243.211C121.1 243.211 104.385 250.253 94.5702 246.859C27.6203 223.702 104.814 192.675 104.814 192.675Z" fill="white" stroke="#292929" stroke-width="2"/>
<path d="M266.243 242.165C259.166 244.747 261.585 260.884 261.585 260.884C261.585 260.884 255.64 272.961 259.91 278.289C265.772 285.603 282.184 269.351 282.184 269.351C282.184 269.351 306.491 262.83 301.064 255.456C296.297 248.978 280.659 258.262 280.659 258.262C280.659 258.262 274.171 239.272 266.243 242.165Z" fill="white" stroke="#292929" stroke-width="2"/>
<path d="M242.45 317.105C246.659 320.224 257.99 311.254 257.99 311.254C257.99 311.254 268.96 309.273 271.587 304.193C275.192 297.22 257.729 294.752 257.729 294.752C257.729 294.752 245.031 282.949 241.242 289.684C237.912 295.602 249.898 300.833 249.898 300.833C249.898 300.833 237.734 313.611 242.45 317.105Z" fill="white" stroke="#292929" stroke-width="2"/>
<path d="M143.664 165.355C142.864 165.483 141.984 165.627 141.024 165.787C140.064 165.947 139.2 166.091 138.432 166.219C138.56 165.163 138.688 164.123 138.816 163.099C138.912 162.203 138.992 161.307 139.056 160.411C139.152 159.515 139.232 158.747 139.296 158.107H135.12L133.2 165.019C132.496 165.115 131.664 165.227 130.704 165.355C129.744 165.451 128.848 165.547 128.016 165.643C126.992 165.771 125.984 165.899 124.992 166.027C126.272 161.771 127.536 157.579 128.784 153.451C129.296 151.723 129.824 149.915 130.368 148.027C130.944 146.139 131.504 144.267 132.048 142.411C132.624 140.523 133.168 138.715 133.68 136.987C134.192 135.259 134.64 133.675 135.024 132.235C137.2 132.075 139.408 131.883 141.648 131.659C143.92 131.435 146.128 131.131 148.272 130.747C148.176 131.771 148.064 133.051 147.936 134.587C147.84 136.091 147.744 137.739 147.648 139.531C147.552 141.323 147.456 143.195 147.36 145.147C147.264 147.099 147.168 149.019 147.072 150.907C146.912 155.323 146.736 160.011 146.544 164.971C145.584 165.131 144.624 165.259 143.664 165.355ZM136.272 153.307C136.4 153.307 136.624 153.307 136.944 153.307C137.296 153.275 137.648 153.259 138 153.259C138.384 153.227 138.736 153.211 139.056 153.211C139.376 153.179 139.6 153.147 139.728 153.115C139.728 152.923 139.744 152.603 139.776 152.155C139.84 151.675 139.888 151.147 139.92 150.571C139.984 149.963 140.048 149.307 140.112 148.603C140.176 147.899 140.24 147.211 140.304 146.539C140.432 144.907 140.592 143.147 140.784 141.259L141.072 137.083L140.352 137.131L139.248 141.259L136.272 153.307ZM171.198 141.787C171.198 143.451 170.958 145.227 170.478 147.115C169.998 148.971 169.326 150.827 168.462 152.683C167.598 154.507 166.526 156.267 165.246 157.963C163.998 159.627 162.574 161.099 160.974 162.379C159.374 163.627 157.614 164.635 155.694 165.403C153.806 166.171 151.79 166.555 149.646 166.555C149.198 166.555 148.75 166.523 148.302 166.459C147.854 166.427 147.406 166.379 146.958 166.315C147.822 161.899 148.67 157.595 149.502 153.403C149.822 151.643 150.158 149.819 150.51 147.931C150.862 146.011 151.198 144.123 151.518 142.267C151.838 140.411 152.142 138.635 152.43 136.939C152.75 135.243 153.006 133.707 153.198 132.331C154.574 132.075 155.966 131.835 157.374 131.611C158.782 131.387 160.222 131.275 161.694 131.275C163.422 131.275 164.878 131.547 166.062 132.091C167.278 132.635 168.254 133.387 168.99 134.347C169.758 135.307 170.318 136.427 170.67 137.707C171.022 138.987 171.198 140.347 171.198 141.787ZM159.87 138.043C159.518 139.931 159.15 141.739 158.766 143.467C158.382 145.195 157.998 146.939 157.614 148.699C157.23 150.459 156.846 152.299 156.462 154.219C156.078 156.139 155.71 158.235 155.358 160.507C156.126 159.995 156.862 159.307 157.566 158.443C158.302 157.547 158.99 156.523 159.63 155.371C160.27 154.219 160.846 153.003 161.358 151.723C161.902 150.443 162.366 149.195 162.75 147.979C163.134 146.763 163.422 145.627 163.614 144.571C163.838 143.515 163.95 142.603 163.95 141.835C163.95 140.651 163.614 139.723 162.942 139.051C162.302 138.379 161.278 138.043 159.87 138.043ZM170.785 166.747C171.201 162.267 171.585 157.867 171.937 153.547C172.097 151.755 172.241 149.867 172.369 147.883C172.529 145.899 172.657 143.947 172.753 142.027C172.881 140.075 172.977 138.203 173.041 136.411C173.105 134.587 173.153 132.923 173.185 131.419C173.953 131.419 174.769 131.403 175.633 131.371C176.529 131.339 177.329 131.307 178.033 131.275C178.769 131.243 179.393 131.211 179.905 131.179C180.417 131.115 180.673 131.083 180.673 131.083C180.321 134.795 180.017 137.851 179.761 140.251C179.505 142.619 179.297 144.555 179.137 146.059C179.009 147.531 178.881 148.955 178.753 150.331C178.657 151.707 178.545 152.987 178.417 154.171C178.289 155.355 178.177 156.363 178.081 157.195H178.945L184.321 131.659C185.185 131.627 186.065 131.579 186.961 131.515C187.761 131.451 188.593 131.403 189.457 131.371C190.353 131.339 191.169 131.275 191.905 131.179C191.457 132.587 190.993 134.139 190.513 135.835C190.065 137.531 189.585 139.291 189.073 141.115C188.593 142.939 188.113 144.795 187.633 146.683C187.185 148.571 186.737 150.395 186.289 152.155C185.265 156.283 184.241 160.523 183.217 164.875L170.785 166.747ZM186.525 166.363L192.813 132.235L207.981 130.939C207.757 131.643 207.565 132.363 207.405 133.099C207.245 133.707 207.085 134.347 206.925 135.019C206.797 135.659 206.685 136.235 206.589 136.747C206.269 136.779 205.805 136.811 205.197 136.843C204.621 136.843 203.997 136.859 203.325 136.891C202.653 136.891 201.965 136.891 201.261 136.891C200.589 136.891 199.997 136.891 199.485 136.891L197.805 145.483C198.797 145.419 199.725 145.371 200.589 145.339C201.293 145.307 202.013 145.291 202.749 145.291C203.485 145.291 204.029 145.275 204.381 145.243C204.253 146.139 204.125 147.019 203.997 147.883C203.901 148.747 203.773 149.627 203.613 150.523C203.293 150.555 202.765 150.587 202.029 150.619C201.325 150.619 200.605 150.635 199.869 150.667C199.037 150.699 198.125 150.731 197.133 150.763L195.501 159.595L202.509 158.491L202.029 163.963L186.525 166.363ZM202.74 166.555C203.7 161.947 204.612 157.483 205.476 153.163C205.796 151.307 206.132 149.387 206.484 147.403C206.868 145.419 207.22 143.467 207.54 141.547C207.86 139.595 208.148 137.739 208.404 135.979C208.66 134.187 208.852 132.571 208.98 131.131C209.396 131.163 209.748 131.179 210.036 131.179C210.324 131.179 210.66 131.179 211.044 131.179C211.492 131.179 212.036 131.179 212.676 131.179C213.316 131.147 213.956 131.115 214.596 131.083C215.236 131.051 215.924 131.019 216.66 130.987C217.108 133.227 217.508 135.387 217.86 137.467C218.212 139.291 218.564 141.163 218.916 143.083C219.3 145.003 219.636 146.635 219.924 147.979C220.052 147.339 220.196 146.603 220.356 145.771C220.516 144.907 220.692 144.011 220.884 143.083C221.076 142.155 221.252 141.227 221.412 140.299C221.604 139.339 221.796 138.395 221.988 137.467C222.436 135.387 222.9 133.243 223.38 131.035L229.236 130.315C228.148 135.211 227.188 139.851 226.356 144.235C225.972 146.123 225.588 148.043 225.204 149.995C224.852 151.915 224.516 153.771 224.196 155.563C223.876 157.323 223.604 158.971 223.38 160.507C223.156 162.011 222.98 163.275 222.852 164.299C222.756 164.299 222.372 164.379 221.7 164.539C221.06 164.667 220.308 164.827 219.444 165.019C218.612 165.211 217.764 165.403 216.9 165.595C216.068 165.787 215.444 165.963 215.028 166.123C214.836 163.563 214.628 161.131 214.404 158.827C214.308 157.835 214.196 156.827 214.068 155.803C213.972 154.747 213.86 153.739 213.732 152.779C213.604 151.819 213.476 150.923 213.348 150.091C213.22 149.259 213.092 148.539 212.964 147.931C212.868 148.539 212.74 149.243 212.58 150.043C212.42 150.843 212.26 151.691 212.1 152.587C211.94 153.483 211.78 154.427 211.62 155.419C211.46 156.379 211.284 157.307 211.092 158.203C210.676 160.347 210.228 162.587 209.748 164.923L202.74 166.555ZM228.523 166.363C229.259 162.843 229.963 159.371 230.635 155.947C230.923 154.507 231.211 153.003 231.499 151.435C231.787 149.867 232.059 148.331 232.315 146.827C232.603 145.291 232.843 143.819 233.035 142.411C233.259 140.971 233.451 139.659 233.611 138.475C232.875 138.379 232.123 138.347 231.355 138.379C230.619 138.411 229.883 138.315 229.147 138.091C229.179 137.579 229.195 136.987 229.195 136.315C229.195 135.643 229.211 134.971 229.243 134.299C229.275 133.563 229.307 132.779 229.339 131.947C230.171 132.011 231.003 132.059 231.835 132.091C232.667 132.123 233.499 132.139 234.331 132.139C235.963 132.139 237.531 132.107 239.035 132.043C240.571 131.947 241.979 131.851 243.259 131.755C244.571 131.627 245.851 131.483 247.099 131.323L246.571 133.915C246.411 134.651 246.251 135.403 246.091 136.171C245.963 136.939 245.835 137.595 245.707 138.139C245.003 138.331 244.283 138.475 243.547 138.571C242.843 138.635 242.139 138.731 241.435 138.859C241.211 139.947 240.971 141.163 240.715 142.507C240.459 143.819 240.203 145.195 239.947 146.635C239.723 148.043 239.499 149.483 239.275 150.955C239.051 152.427 238.827 153.835 238.603 155.179C238.091 158.347 237.611 161.627 237.163 165.019L228.523 166.363ZM261.562 156.955C261.114 158.779 260.474 160.331 259.642 161.611C258.842 162.891 257.882 163.947 256.762 164.779C255.674 165.611 254.506 166.219 253.258 166.603C252.01 166.987 250.762 167.179 249.514 167.179C248.778 167.179 248.026 167.051 247.258 166.795C246.49 166.571 245.802 166.219 245.194 165.739C244.586 165.259 244.074 164.651 243.658 163.915C243.274 163.179 243.082 162.315 243.082 161.323C243.082 161.195 243.082 161.067 243.082 160.939C243.082 160.811 243.098 160.683 243.13 160.555C243.258 159.243 243.466 157.659 243.754 155.803C244.042 153.947 244.346 152.011 244.666 149.995C244.986 147.979 245.338 145.963 245.722 143.947C246.106 141.899 246.442 140.043 246.73 138.379C247.05 136.715 247.322 135.339 247.546 134.251C247.77 133.131 247.914 132.443 247.978 132.187C248.65 132.123 249.45 132.043 250.378 131.947C251.306 131.851 252.17 131.771 252.97 131.707C253.962 131.611 254.938 131.515 255.898 131.419C255.066 135.291 254.33 138.795 253.69 141.931C253.402 143.275 253.114 144.619 252.826 145.963C252.57 147.307 252.314 148.539 252.058 149.659C251.834 150.779 251.626 151.755 251.434 152.587C251.274 153.387 251.13 154.043 251.002 154.555C250.906 155.067 250.778 155.723 250.618 156.523C250.49 157.291 250.426 157.995 250.426 158.635C250.426 159.147 250.554 159.579 250.81 159.931C251.066 160.251 251.386 160.411 251.77 160.411C252.314 160.411 252.762 160.203 253.114 159.787C253.466 159.339 253.754 158.811 253.978 158.203C254.234 157.595 254.41 156.987 254.506 156.379C254.634 155.739 254.746 155.243 254.842 154.891C255.034 153.963 255.242 152.939 255.466 151.819C255.722 150.667 255.962 149.483 256.186 148.267C256.442 147.019 256.682 145.755 256.906 144.475C257.162 143.195 257.402 141.947 257.626 140.731C258.17 137.915 258.698 135.003 259.21 131.995L266.506 131.515C266.506 131.515 266.426 131.931 266.266 132.763C266.106 133.595 265.898 134.699 265.642 136.075C265.386 137.451 265.098 139.019 264.778 140.779C264.49 142.539 264.154 144.379 263.77 146.299C263.386 148.187 263.002 150.059 262.618 151.915C262.266 153.739 261.914 155.419 261.562 156.955ZM261.895 166.363C262.759 162.107 263.591 157.947 264.391 153.883C264.679 152.155 264.999 150.363 265.351 148.507C265.703 146.619 266.023 144.763 266.311 142.939C266.631 141.083 266.919 139.307 267.175 137.611C267.463 135.883 267.687 134.315 267.847 132.907C269.671 132.331 271.639 131.915 273.751 131.659C275.863 131.371 277.959 131.227 280.039 131.227C281.287 131.227 282.311 131.371 283.111 131.659C283.943 131.947 284.583 132.363 285.031 132.907C285.511 133.419 285.847 134.027 286.039 134.731C286.231 135.435 286.327 136.219 286.327 137.083C286.327 138.363 286.103 139.627 285.655 140.875C285.207 142.091 284.599 143.259 283.831 144.379C283.095 145.467 282.231 146.475 281.239 147.403C280.279 148.299 279.239 149.035 278.119 149.611C278.695 150.891 279.303 152.299 279.943 153.835C280.615 155.339 281.239 156.779 281.815 158.155C282.455 159.755 283.111 161.355 283.783 162.955L276.343 165.547C275.703 163.499 275.127 161.579 274.615 159.787C274.391 159.051 274.167 158.299 273.943 157.531C273.719 156.731 273.511 155.979 273.319 155.275C273.127 154.571 272.967 153.947 272.839 153.403C272.711 152.827 272.631 152.363 272.599 152.011L271.975 152.203C271.783 153.227 271.543 154.427 271.255 155.803C270.999 157.179 270.759 158.507 270.535 159.787C270.247 161.291 269.959 162.811 269.671 164.347L261.895 166.363ZM273.175 145.531C273.783 145.467 274.519 145.211 275.383 144.763C276.279 144.315 277.127 143.787 277.927 143.179C278.727 142.539 279.415 141.883 279.991 141.211C280.567 140.539 280.855 139.947 280.855 139.435C280.855 139.083 280.743 138.811 280.519 138.619C280.295 138.395 279.975 138.235 279.559 138.139C279.175 138.011 278.743 137.931 278.263 137.899C277.783 137.867 277.287 137.851 276.775 137.851C276.423 137.851 276.055 137.867 275.671 137.899C275.319 137.899 274.999 137.899 274.711 137.899L273.175 145.531ZM283.415 166.363L289.703 132.235L304.871 130.939C304.647 131.643 304.455 132.363 304.295 133.099C304.135 133.707 303.975 134.347 303.815 135.019C303.687 135.659 303.575 136.235 303.479 136.747C303.159 136.779 302.695 136.811 302.087 136.843C301.511 136.843 300.887 136.859 300.215 136.891C299.543 136.891 298.855 136.891 298.151 136.891C297.479 136.891 296.887 136.891 296.375 136.891L294.695 145.483C295.687 145.419 296.615 145.371 297.479 145.339C298.183 145.307 298.903 145.291 299.639 145.291C300.375 145.291 300.919 145.275 301.271 145.243C301.143 146.139 301.015 147.019 300.887 147.883C300.791 148.747 300.663 149.627 300.503 150.523C300.183 150.555 299.655 150.587 298.919 150.619C298.215 150.619 297.495 150.635 296.759 150.667C295.927 150.699 295.015 150.731 294.023 150.763L292.391 159.595L299.399 158.491L298.919 163.963L283.415 166.363ZM125.856 217.363C126.816 213.043 127.728 208.819 128.592 204.691C128.944 202.963 129.312 201.139 129.696 199.219C130.08 197.299 130.448 195.411 130.8 193.555C131.152 191.699 131.488 189.907 131.808 188.179C132.128 186.451 132.4 184.867 132.624 183.427C133.552 183.139 134.464 182.899 135.36 182.707C136.256 182.483 137.168 182.291 138.096 182.131C139.056 181.971 139.952 181.891 140.784 181.891C142.224 181.891 143.424 182.131 144.384 182.611C145.376 183.091 146.176 183.747 146.784 184.579C147.392 185.379 147.824 186.323 148.08 187.411C148.336 188.499 148.464 189.667 148.464 190.915C148.464 192.707 148.128 194.435 147.456 196.099C146.816 197.763 145.936 199.251 144.816 200.563C143.728 201.843 142.464 202.867 141.024 203.635C139.616 204.403 138.144 204.787 136.608 204.787H136.08C135.824 205.875 135.584 207.059 135.36 208.339C135.136 209.619 134.944 210.803 134.784 211.891C134.56 213.171 134.352 214.451 134.16 215.731L125.856 217.363ZM139.248 187.699C138.896 189.811 138.544 191.811 138.192 193.699C137.84 195.587 137.456 197.603 137.04 199.747C137.552 199.619 138.08 199.331 138.624 198.883C139.2 198.403 139.728 197.795 140.208 197.059C140.688 196.291 141.072 195.411 141.36 194.419C141.648 193.427 141.792 192.387 141.792 191.299C141.792 190.115 141.52 189.219 140.976 188.611C140.464 188.003 139.888 187.699 139.248 187.699ZM161.852 216.355C161.052 216.483 160.172 216.627 159.212 216.787C158.252 216.947 157.388 217.091 156.62 217.219C156.748 216.163 156.876 215.123 157.004 214.099C157.1 213.203 157.18 212.307 157.244 211.411C157.34 210.515 157.42 209.747 157.484 209.107H153.308L151.388 216.019C150.684 216.115 149.852 216.227 148.892 216.355C147.932 216.451 147.036 216.547 146.204 216.643C145.18 216.771 144.171 216.899 143.179 217.027C144.46 212.771 145.724 208.579 146.972 204.451C147.484 202.723 148.012 200.915 148.556 199.027C149.132 197.139 149.692 195.267 150.236 193.411C150.812 191.523 151.356 189.715 151.868 187.987C152.38 186.259 152.828 184.675 153.212 183.235C155.388 183.075 157.596 182.883 159.836 182.659C162.108 182.435 164.316 182.131 166.46 181.747C166.364 182.771 166.252 184.051 166.124 185.587C166.028 187.091 165.932 188.739 165.836 190.531C165.74 192.323 165.644 194.195 165.548 196.147C165.452 198.099 165.356 200.019 165.26 201.907C165.1 206.323 164.924 211.011 164.732 215.971C163.772 216.131 162.812 216.259 161.852 216.355ZM154.46 204.307C154.588 204.307 154.812 204.307 155.132 204.307C155.484 204.275 155.836 204.259 156.188 204.259C156.572 204.227 156.924 204.211 157.244 204.211C157.564 204.179 157.788 204.147 157.916 204.115C157.916 203.923 157.932 203.603 157.964 203.155C158.028 202.675 158.076 202.147 158.108 201.571C158.172 200.963 158.236 200.307 158.299 199.603C158.364 198.899 158.428 198.211 158.492 197.539C158.62 195.907 158.78 194.147 158.972 192.259L159.26 188.083L158.54 188.131L157.436 192.259L154.46 204.307ZM186.217 205.459C186.217 207.251 185.865 208.883 185.161 210.355C184.489 211.795 183.561 213.043 182.377 214.099C181.225 215.155 179.849 215.971 178.249 216.547C176.681 217.123 174.985 217.411 173.161 217.411C171.881 217.411 170.601 217.075 169.321 216.403C168.041 215.699 166.809 214.595 165.625 213.091L169.177 206.131C169.401 206.547 169.737 206.979 170.185 207.427C170.633 207.843 171.129 208.211 171.673 208.531C172.249 208.851 172.809 209.123 173.353 209.347C173.929 209.539 174.441 209.635 174.889 209.635C175.273 209.635 175.673 209.571 176.089 209.443C176.505 209.315 176.889 209.123 177.241 208.867C177.593 208.611 177.865 208.323 178.057 208.003C178.281 207.651 178.393 207.251 178.393 206.803C178.393 206.035 178.137 205.331 177.625 204.691C177.145 204.019 176.537 203.395 175.801 202.819C175.065 202.211 174.265 201.603 173.401 200.995C172.537 200.387 171.737 199.747 171.001 199.075C170.297 198.403 169.689 197.651 169.177 196.819C168.665 195.987 168.409 195.059 168.409 194.035C168.409 192.371 168.905 190.819 169.897 189.379C170.889 187.939 172.121 186.707 173.593 185.683C175.097 184.627 176.729 183.795 178.489 183.187C180.249 182.579 181.913 182.275 183.481 182.275C184.345 182.275 185.161 182.387 185.929 182.611C186.697 182.803 187.353 183.139 187.897 183.619C188.473 184.067 188.921 184.643 189.241 185.347C189.593 186.051 189.769 186.931 189.769 187.987C189.769 188.435 189.721 188.883 189.625 189.331C189.561 189.779 189.497 190.259 189.433 190.771L182.473 192.787C182.537 192.531 182.585 192.275 182.617 192.019C182.681 191.763 182.713 191.507 182.713 191.251C182.713 190.291 182.537 189.603 182.185 189.187C181.865 188.739 181.433 188.515 180.889 188.515C180.633 188.515 180.313 188.611 179.929 188.803C179.577 188.995 179.209 189.251 178.825 189.571C178.473 189.859 178.169 190.211 177.913 190.627C177.657 191.043 177.529 191.491 177.529 191.971C177.529 192.739 177.737 193.379 178.153 193.891C178.601 194.403 179.145 194.883 179.785 195.331C180.425 195.779 181.113 196.243 181.849 196.723C182.617 197.171 183.321 197.763 183.961 198.499C184.601 199.235 185.129 200.163 185.545 201.283C185.993 202.371 186.217 203.763 186.217 205.459ZM206.842 205.459C206.842 207.251 206.49 208.883 205.786 210.355C205.114 211.795 204.186 213.043 203.002 214.099C201.85 215.155 200.474 215.971 198.874 216.547C197.306 217.123 195.61 217.411 193.786 217.411C192.506 217.411 191.226 217.075 189.946 216.403C188.666 215.699 187.434 214.595 186.25 213.091L189.802 206.131C190.026 206.547 190.362 206.979 190.81 207.427C191.258 207.843 191.754 208.211 192.298 208.531C192.874 208.851 193.434 209.123 193.978 209.347C194.554 209.539 195.066 209.635 195.514 209.635C195.898 209.635 196.298 209.571 196.714 209.443C197.13 209.315 197.514 209.123 197.866 208.867C198.218 208.611 198.49 208.323 198.682 208.003C198.906 207.651 199.018 207.251 199.018 206.803C199.018 206.035 198.762 205.331 198.25 204.691C197.77 204.019 197.162 203.395 196.426 202.819C195.69 202.211 194.89 201.603 194.026 200.995C193.162 200.387 192.362 199.747 191.626 199.075C190.922 198.403 190.314 197.651 189.802 196.819C189.29 195.987 189.034 195.059 189.034 194.035C189.034 192.371 189.53 190.819 190.522 189.379C191.514 187.939 192.746 186.707 194.218 185.683C195.722 184.627 197.354 183.795 199.114 183.187C200.874 182.579 202.538 182.275 204.106 182.275C204.97 182.275 205.786 182.387 206.554 182.611C207.322 182.803 207.978 183.139 208.522 183.619C209.098 184.067 209.546 184.643 209.866 185.347C210.218 186.051 210.394 186.931 210.394 187.987C210.394 188.435 210.346 188.883 210.25 189.331C210.186 189.779 210.122 190.259 210.058 190.771L203.098 192.787C203.162 192.531 203.21 192.275 203.242 192.019C203.306 191.763 203.338 191.507 203.338 191.251C203.338 190.291 203.162 189.603 202.81 189.187C202.49 188.739 202.058 188.515 201.514 188.515C201.258 188.515 200.938 188.611 200.554 188.803C200.202 188.995 199.834 189.251 199.45 189.571C199.098 189.859 198.794 190.211 198.538 190.627C198.282 191.043 198.154 191.491 198.154 191.971C198.154 192.739 198.362 193.379 198.778 193.891C199.226 194.403 199.77 194.883 200.41 195.331C201.05 195.779 201.738 196.243 202.474 196.723C203.242 197.171 203.946 197.763 204.586 198.499C205.226 199.235 205.754 200.163 206.17 201.283C206.618 202.371 206.842 203.763 206.842 205.459ZM206.059 217.363C207.019 213.043 207.931 208.819 208.795 204.691C209.147 202.963 209.515 201.139 209.899 199.219C210.283 197.299 210.651 195.411 211.003 193.555C211.355 191.699 211.691 189.907 212.011 188.179C212.331 186.451 212.603 184.867 212.827 183.427C213.755 183.139 214.667 182.899 215.563 182.707C216.459 182.483 217.371 182.291 218.299 182.131C219.259 181.971 220.155 181.891 220.987 181.891C222.427 181.891 223.627 182.131 224.587 182.611C225.579 183.091 226.379 183.747 226.987 184.579C227.595 185.379 228.027 186.323 228.283 187.411C228.539 188.499 228.667 189.667 228.667 190.915C228.667 192.707 228.331 194.435 227.659 196.099C227.019 197.763 226.139 199.251 225.019 200.563C223.931 201.843 222.667 202.867 221.227 203.635C219.819 204.403 218.347 204.787 216.811 204.787H216.283C216.027 205.875 215.787 207.059 215.563 208.339C215.339 209.619 215.147 210.803 214.987 211.891C214.763 213.171 214.555 214.451 214.363 215.731L206.059 217.363ZM219.451 187.699C219.099 189.811 218.747 191.811 218.395 193.699C218.043 195.587 217.659 197.603 217.243 199.747C217.755 199.619 218.283 199.331 218.827 198.883C219.403 198.403 219.931 197.795 220.411 197.059C220.891 196.291 221.275 195.411 221.563 194.419C221.851 193.427 221.995 192.387 221.995 191.299C221.995 190.115 221.723 189.219 221.179 188.611C220.667 188.003 220.091 187.699 219.451 187.699ZM251.271 191.347C251.271 193.971 250.983 196.451 250.407 198.787C249.863 201.091 249.127 203.219 248.199 205.171C247.271 207.091 246.183 208.819 244.935 210.355C243.719 211.859 242.439 213.155 241.095 214.243C239.751 215.299 238.391 216.115 237.015 216.691C235.639 217.235 234.327 217.507 233.079 217.507C232.023 217.507 231.063 217.315 230.199 216.931C229.335 216.515 228.583 215.923 227.943 215.155C227.303 214.355 226.791 213.347 226.407 212.131C226.055 210.883 225.879 209.395 225.879 207.667C225.879 205.875 226.103 203.987 226.551 202.003C226.999 200.019 227.607 198.051 228.375 196.099C229.143 194.147 230.087 192.291 231.207 190.531C232.327 188.771 233.559 187.219 234.903 185.875C236.247 184.499 237.687 183.411 239.223 182.611C240.759 181.811 242.359 181.411 244.023 181.411C245.463 181.411 246.647 181.715 247.575 182.323C248.535 182.899 249.271 183.667 249.783 184.627C250.327 185.555 250.711 186.611 250.935 187.795C251.159 188.979 251.271 190.163 251.271 191.347ZM233.031 206.419C233.031 206.771 233.095 207.139 233.223 207.523C233.351 207.907 233.527 208.243 233.751 208.531C233.975 208.819 234.247 209.075 234.567 209.299C234.919 209.491 235.287 209.587 235.671 209.587C237.111 209.587 238.391 209.091 239.511 208.099C240.631 207.107 241.559 205.891 242.295 204.451C243.031 203.011 243.591 201.475 243.975 199.843C244.391 198.211 244.599 196.723 244.599 195.379C244.599 194.995 244.567 194.579 244.503 194.131C244.471 193.683 244.375 193.267 244.215 192.883C244.087 192.499 243.863 192.179 243.543 191.923C243.255 191.635 242.855 191.491 242.343 191.491C241.319 191.491 240.375 191.747 239.511 192.259C238.647 192.771 237.863 193.459 237.159 194.323C236.487 195.155 235.895 196.115 235.383 197.203C234.871 198.259 234.423 199.347 234.039 200.467C233.687 201.555 233.431 202.627 233.271 203.683C233.111 204.739 233.031 205.651 233.031 206.419ZM248.255 217.363C249.119 213.107 249.951 208.947 250.751 204.883C251.039 203.155 251.359 201.363 251.711 199.507C252.063 197.619 252.383 195.763 252.671 193.939C252.991 192.083 253.279 190.307 253.535 188.611C253.823 186.883 254.047 185.315 254.207 183.907C256.031 183.331 257.999 182.915 260.111 182.659C262.223 182.371 264.319 182.227 266.399 182.227C267.647 182.227 268.671 182.371 269.471 182.659C270.303 182.947 270.943 183.363 271.391 183.907C271.871 184.419 272.207 185.027 272.399 185.731C272.591 186.435 272.687 187.219 272.687 188.083C272.687 189.363 272.463 190.627 272.015 191.875C271.567 193.091 270.959 194.259 270.191 195.379C269.455 196.467 268.591 197.475 267.599 198.403C266.639 199.299 265.599 200.035 264.479 200.611C265.055 201.891 265.663 203.299 266.303 204.835C266.975 206.339 267.599 207.779 268.175 209.155C268.815 210.755 269.471 212.355 270.143 213.955L262.703 216.547C262.063 214.499 261.487 212.579 260.975 210.787C260.751 210.051 260.527 209.299 260.303 208.531C260.079 207.731 259.871 206.979 259.679 206.275C259.487 205.571 259.327 204.947 259.199 204.403C259.071 203.827 258.991 203.363 258.959 203.011L258.335 203.203C258.143 204.227 257.903 205.427 257.615 206.803C257.359 208.179 257.119 209.507 256.895 210.787C256.607 212.291 256.319 213.811 256.031 215.347L248.255 217.363ZM259.535 196.531C260.143 196.467 260.879 196.211 261.743 195.763C262.639 195.315 263.487 194.787 264.287 194.179C265.087 193.539 265.775 192.883 266.351 192.211C266.927 191.539 267.215 190.947 267.215 190.435C267.215 190.083 267.103 189.811 266.879 189.619C266.655 189.395 266.335 189.235 265.919 189.139C265.535 189.011 265.103 188.931 264.623 188.899C264.143 188.867 263.647 188.851 263.135 188.851C262.783 188.851 262.415 188.867 262.031 188.899C261.679 188.899 261.359 188.899 261.071 188.899L259.535 196.531ZM273.711 217.363C274.447 213.843 275.151 210.371 275.823 206.947C276.111 205.507 276.399 204.003 276.687 202.435C276.975 200.867 277.247 199.331 277.503 197.827C277.791 196.291 278.031 194.819 278.223 193.411C278.447 191.971 278.639 190.659 278.799 189.475C278.063 189.379 277.311 189.347 276.543 189.379C275.807 189.411 275.071 189.315 274.335 189.091C274.367 188.579 274.383 187.987 274.383 187.315C274.383 186.643 274.399 185.971 274.431 185.299C274.463 184.563 274.495 183.779 274.527 182.947C275.359 183.011 276.191 183.059 277.023 183.091C277.855 183.123 278.687 183.139 279.519 183.139C281.151 183.139 282.719 183.107 284.223 183.043C285.759 182.947 287.167 182.851 288.447 182.755C289.759 182.627 291.039 182.483 292.287 182.323L291.759 184.915C291.599 185.651 291.439 186.403 291.279 187.171C291.151 187.939 291.023 188.595 290.895 189.139C290.191 189.331 289.471 189.475 288.735 189.571C288.031 189.635 287.327 189.731 286.623 189.859C286.399 190.947 286.159 192.163 285.903 193.507C285.647 194.819 285.391 196.195 285.135 197.635C284.911 199.043 284.687 200.483 284.463 201.955C284.239 203.427 284.015 204.835 283.791 206.179C283.279 209.347 282.799 212.627 282.351 216.019L273.711 217.363Z" fill="#292929"/>
<path d="M14.0625 262.627H13.0625V263.627V273.002V274.002H14.0625H60.9375H61.9375V273.002V263.627V262.627H60.9375H14.0625ZM3.45298 196.767C5.0236 195.197 7.15381 194.314 9.375 194.314H65.625C67.8462 194.314 69.9764 195.197 71.547 196.767C73.1176 198.338 74 200.468 74 202.689V277.689C74 279.911 73.1176 282.041 71.547 283.611C69.9764 285.182 67.8462 286.064 65.625 286.064H9.375C7.15381 286.064 5.0236 285.182 3.45298 283.611C1.88236 282.041 1 279.911 1 277.689V202.689C1 200.468 1.88236 198.338 3.45298 196.767ZM54.7799 213.535C50.197 208.952 43.9812 206.377 37.5 206.377C31.0188 206.377 24.803 208.952 20.2201 213.535C15.6372 218.117 13.0625 224.333 13.0625 230.814C13.0625 237.296 15.6372 243.511 20.2201 248.094C24.803 252.677 31.0188 255.252 37.5 255.252C43.9812 255.252 50.197 252.677 54.7799 248.094C59.3628 243.511 61.9375 237.296 61.9375 230.814C61.9375 224.333 59.3628 218.117 54.7799 213.535ZM40.6239 220.439H34.3727C35.1635 218.172 36.2412 215.99 37.511 213.91C38.7854 215.965 39.8294 218.155 40.6239 220.439ZM27.3785 220.439H23.0875C24.679 218.182 26.8415 216.323 29.3475 215.044C28.5751 216.796 27.9348 218.603 27.3785 220.439ZM47.6206 220.439C47.0614 218.608 46.405 216.81 45.6272 215.071C48.1405 216.361 50.3162 218.2 51.9083 220.439H47.6206ZM19.75 230.814C19.75 229.541 19.8999 228.322 20.1541 227.127H26.1621C26.0378 228.331 25.9531 229.556 25.9531 230.814C25.9531 232.073 26.0378 233.298 26.1621 234.502H20.1541C19.8999 233.307 19.75 232.088 19.75 230.814ZM32.6406 230.814C32.6406 229.573 32.7293 228.327 32.8833 227.127H42.099C42.2427 228.348 42.3594 229.585 42.3594 230.814C42.3594 232.049 42.2418 233.259 42.0969 234.502H32.8856C32.7298 233.28 32.6406 232.06 32.6406 230.814ZM49.0469 230.814C49.0469 229.556 48.9622 228.331 48.8379 227.127H54.8459C55.1001 228.322 55.25 229.541 55.25 230.814C55.25 232.088 55.1001 233.307 54.8459 234.502H48.8379C48.9622 233.298 49.0469 232.073 49.0469 230.814ZM27.3756 241.189C27.9296 243.039 28.5661 244.826 29.3323 246.559C26.8301 245.269 24.6752 243.431 23.0892 241.189H27.3756ZM40.6344 241.189C39.8498 243.481 38.7923 245.645 37.5076 247.716C36.2353 245.639 35.1577 243.476 34.3678 241.189H40.6344ZM51.9083 241.189C50.3173 243.428 48.1434 245.265 45.6323 246.555C46.4085 244.828 47.0644 243.042 47.6235 241.189H51.9083Z" fill="#22557F" stroke="#292929" stroke-width="2"/>
</svg>

