<svg width="352" height="248" viewBox="0 0 352 248" fill="none" xmlns="http://www.w3.org/2000/svg">
<path d="M27.0902 130.086C50.833 148.219 103.59 130.086 103.59 130.086C103.59 130.086 206.59 179.586 175.59 160.086C144.59 140.586 129.09 114.586 129.09 114.586C129.09 114.586 237.268 96.9162 226.09 53.5859C218.617 24.6164 192.703 17.3271 164.09 8.5859C124.486 -3.51324 94.7723 4.74389 59.5902 26.5859C30.8722 44.4149 -1.80986 59.2177 3.59025 92.5859C6.35124 109.647 13.3552 119.596 27.0902 130.086Z" fill="white" stroke="#292929" stroke-width="5"/>
<path d="M50.6246 80.1078C49.0708 80.5519 47.6224 80.6081 46.2796 80.2763C44.9323 79.9292 43.7729 79.2205 42.8014 78.1503C41.8255 77.0646 41.0936 75.668 40.6055 73.9604C40.1219 72.2681 40.0096 70.711 40.2689 69.2891C40.5237 67.8517 41.1335 66.6374 42.0982 65.6461C43.0586 64.6394 44.3156 63.9141 45.8694 63.47C46.8847 63.1798 47.8924 63.0665 48.8924 63.1302C49.888 63.1785 50.81 63.4059 51.6584 63.8124C52.0166 63.9596 52.2507 64.2255 52.3606 64.6101C52.4398 64.887 52.431 65.1475 52.3343 65.3914C52.2332 65.62 52.075 65.7651 51.8596 65.8266C51.5981 65.9014 51.3157 65.8739 51.0124 65.7443C50.1157 65.4015 49.3288 65.2103 48.6519 65.1708C47.986 65.1116 47.2684 65.1918 46.4992 65.4117C44.807 65.8953 43.6631 66.813 43.0676 68.1647C42.4722 69.5163 42.4668 71.2152 43.0516 73.2613C43.6407 75.3228 44.5452 76.7699 45.7651 77.6028C46.9849 78.4356 48.4409 78.6102 50.1332 78.1266C50.8716 77.9155 51.5078 77.6089 52.0419 77.2066C52.5913 76.8 53.1736 76.2176 53.789 75.4593C54.0395 75.1713 54.2647 74.9988 54.4647 74.9416C54.6801 74.8801 54.8933 74.9273 55.1043 75.0833C55.3109 75.224 55.4538 75.4328 55.5329 75.7097C55.6428 76.0943 55.5846 76.4437 55.3583 76.758C54.8528 77.5515 54.1925 78.2394 53.3772 78.8219C52.5574 79.389 51.6399 79.8176 50.6246 80.1078ZM61.6219 64.2846C64.2987 63.5195 66.0702 64.6523 66.9364 67.683L68.6511 73.6827C68.7479 74.0212 68.7171 74.3212 68.5589 74.5827C68.4007 74.8443 68.1447 75.0256 67.7908 75.1268C67.437 75.2279 67.1238 75.2092 66.8513 75.0708C66.5941 74.928 66.4172 74.6873 66.3204 74.3489L64.6123 68.3722C64.3485 67.4491 63.9627 66.8272 63.455 66.5064C62.9627 66.1811 62.3165 66.1328 61.5166 66.3615C60.5781 66.6297 59.9079 67.1374 59.5057 67.8847C59.1036 68.632 59.0432 69.4979 59.3246 70.4825L60.8745 75.9053C60.9712 76.2438 60.9405 76.5438 60.7823 76.8053C60.6394 77.0625 60.3911 77.2416 60.0373 77.3427C59.6834 77.4439 59.3703 77.4252 59.0977 77.2868C58.8252 77.1483 58.6406 76.9099 58.5438 76.5715L54.4614 62.2874C54.3647 61.9489 54.3954 61.6489 54.5536 61.3874C54.7272 61.1215 54.9909 60.9379 55.3448 60.8368C55.6832 60.7401 55.981 60.7631 56.2382 60.9059C56.5063 61.029 56.6865 61.2521 56.7789 61.5751L58.4277 67.3441C58.6276 66.5881 59.0023 65.9485 59.5517 65.4254C60.1011 64.9023 60.7911 64.522 61.6219 64.2846ZM73.5562 60.8737C75.0484 60.4472 76.2638 60.5076 77.2023 61.0547C78.1561 61.5975 78.8529 62.6381 79.2926 64.1765L81.0008 70.1532C81.1019 70.507 81.081 70.8125 80.9382 71.0696C80.791 71.3114 80.5404 71.4829 80.1866 71.584C79.8482 71.6807 79.5504 71.6577 79.2932 71.5148C79.0361 71.372 78.8591 71.1314 78.7624 70.7929L78.5184 69.9391C78.4107 70.6688 78.1152 71.2941 77.6317 71.815C77.1592 72.3161 76.5384 72.6766 75.7692 72.8964C75.0308 73.1075 74.3121 73.1548 73.6132 73.0384C72.9099 72.9065 72.3044 72.622 71.7967 72.1847C71.3043 71.743 70.9636 71.1914 70.7746 70.5298C70.5415 69.7145 70.5668 69.0167 70.8502 68.4365C71.1447 67.8364 71.7479 67.2979 72.66 66.8209C73.5874 66.3396 74.9049 65.8548 76.6125 65.3668L77.1433 65.2151L76.952 64.5459C76.7058 63.6844 76.3508 63.1119 75.8871 62.8284C75.4233 62.545 74.7991 62.5153 74.0145 62.7396C73.4761 62.8935 72.9882 63.1078 72.5509 63.3825C72.1136 63.6573 71.6477 64.0068 71.1532 64.431C70.8038 64.7805 70.5445 64.9794 70.3752 65.0278C70.1445 65.0937 69.928 65.0641 69.7258 64.9388C69.539 64.8091 69.4082 64.6136 69.3334 64.352C69.2675 64.1213 69.2719 63.9037 69.3466 63.6993C69.4323 63.4751 69.5971 63.2366 69.841 62.9839C70.2959 62.5377 70.8607 62.1267 71.5354 61.7508C72.2057 61.3595 72.8793 61.0672 73.5562 60.8737ZM75.6899 71.047C76.5361 70.8052 77.147 70.3227 77.5228 69.5996C77.8941 68.8611 77.9501 68.0381 77.6907 67.1304L77.5192 66.5304L77.1038 66.6492C75.9039 66.9921 74.9962 67.3098 74.3809 67.6021C73.7655 67.8945 73.3568 68.211 73.1546 68.5516C72.948 68.8769 72.9129 69.278 73.0492 69.7549C73.2075 70.3088 73.5372 70.7054 74.0383 70.9449C74.5394 71.1845 75.09 71.2185 75.6899 71.047ZM87.2438 56.9617C89.9361 56.1923 91.7152 57.3229 92.5814 60.3535L94.2962 66.3533C94.3973 66.7071 94.3687 67.0148 94.2105 67.2764C94.0633 67.5181 93.8051 67.6918 93.4359 67.7973C93.082 67.8984 92.7688 67.8798 92.4963 67.7413C92.2392 67.5985 92.0622 67.3579 91.9655 67.0194L90.2837 61.135C90.0111 60.1812 89.6188 59.5362 89.1066 59.2C88.6099 58.8594 87.9616 58.8034 87.1616 59.032C86.2232 59.3002 85.5529 59.808 85.1508 60.5552C84.7486 61.3025 84.6883 62.1684 84.9697 63.153L86.5195 68.5759C86.6163 68.9143 86.5855 69.2143 86.4273 69.4759C86.2845 69.733 86.0361 69.9122 85.6823 70.0133C85.3285 70.1144 85.0153 70.0958 84.7428 69.9573C84.4702 69.8189 84.2856 69.5805 84.1889 69.242L81.5046 59.8501C81.4123 59.527 81.4452 59.2347 81.6034 58.9731C81.7726 58.6918 82.0265 58.5028 82.3649 58.4061C82.7034 58.3093 83.0012 58.3324 83.2583 58.4752C83.5155 58.618 83.6902 58.851 83.7825 59.1741L84.053 60.1202C84.2287 59.3378 84.5968 58.6751 85.1572 58.1322C85.7176 57.5893 86.4131 57.1991 87.2438 56.9617ZM103.807 52.278C104.16 52.1768 104.468 52.2054 104.73 52.3636C105.002 52.502 105.187 52.7405 105.283 53.0789L107.988 62.5401C108.48 64.2631 108.39 65.695 107.718 66.8357C107.061 67.972 105.84 68.7951 104.055 69.3052C102.394 69.78 100.919 69.8604 99.6311 69.5462C98.9695 69.3858 98.575 69.0825 98.4475 68.6364C98.3728 68.3749 98.3804 68.1397 98.4705 67.9309C98.576 67.7177 98.7364 67.5804 98.9518 67.5188C99.1518 67.4616 99.5001 67.4869 99.9969 67.5945C100.625 67.6978 101.198 67.7505 101.714 67.7526C102.235 67.7702 102.826 67.6844 103.488 67.4953C105.611 66.8886 106.367 65.516 105.756 63.3776L105.248 61.6008C105.118 62.37 104.778 63.0415 104.226 63.6151C103.67 64.1734 102.954 64.5779 102.077 64.8285C101.092 65.1099 100.149 65.1297 99.2483 64.888C98.3472 64.6464 97.5603 64.164 96.8878 63.441C96.2306 62.7136 95.7437 61.7961 95.4271 60.6884C95.1106 59.5808 95.0467 58.5423 95.2357 57.5731C95.4246 56.6039 95.83 55.7808 96.4519 55.1038C97.0848 54.4071 97.8936 53.918 98.8781 53.6366C99.7396 53.3904 100.546 53.3595 101.298 53.5441C102.065 53.7242 102.714 54.1044 103.246 54.6846L102.969 53.7154C102.873 53.3769 102.896 53.0791 103.038 52.822C103.197 52.5604 103.453 52.3791 103.807 52.278ZM102.103 62.8241C103.103 62.5383 103.793 61.9833 104.173 61.1591C104.553 60.3349 104.576 59.3382 104.242 58.1691C103.912 57.0152 103.368 56.1889 102.61 55.6901C101.863 55.1715 100.982 55.0573 99.9662 55.3475C98.9508 55.6377 98.2454 56.197 97.8499 57.0256C97.4697 57.8498 97.4467 58.8465 97.7809 60.0157C98.115 61.1849 98.6689 62.0167 99.4426 62.5111C100.216 63.0056 101.103 63.1099 102.103 62.8241ZM119.496 57.1542C119.711 57.0927 119.912 57.1267 120.099 57.2564C120.286 57.386 120.417 57.5816 120.492 57.8431C120.619 58.2893 120.45 58.7453 119.984 59.2113C119.534 59.6729 119.009 60.0806 118.412 60.4345C117.829 60.784 117.246 61.0423 116.661 61.2093C114.877 61.7194 113.322 61.6063 111.996 60.8702C110.667 60.1186 109.745 58.8429 109.23 57.043C108.9 55.8892 108.831 54.8024 109.022 53.7826C109.229 52.7584 109.669 51.8837 110.344 51.1584C111.034 50.4287 111.902 49.9143 112.948 49.6153C114.456 49.1844 115.787 49.3283 116.94 50.0469C118.094 50.7654 118.907 51.9478 119.377 53.5938C119.553 54.2092 119.364 54.596 118.81 54.7543L111.68 56.7922C112.515 59.1328 114.002 59.9975 116.14 59.3863C116.709 59.2237 117.18 59.006 117.551 58.7335C117.922 58.4609 118.304 58.1356 118.695 57.7576C118.732 57.7136 118.838 57.6169 119.011 57.4674C119.196 57.2982 119.358 57.1938 119.496 57.1542ZM113.482 51.3098C112.59 51.5648 111.956 52.0538 111.58 52.7769C111.205 53.5 111.11 54.3923 111.297 55.4538L117.251 53.7523C116.906 52.7193 116.408 51.9963 115.757 51.5832C115.118 51.1503 114.359 51.0591 113.482 51.3098ZM134.712 44.194C134.738 43.9369 134.82 43.7303 134.959 43.5742C135.113 43.4138 135.289 43.305 135.489 43.2478C135.782 43.1643 136.064 43.1917 136.337 43.3302C136.625 43.4642 136.808 43.6697 136.887 43.9466C136.931 44.1004 136.942 44.2554 136.92 44.4114L134.396 59.8598C134.366 60.1015 134.273 60.3026 134.119 60.4631C133.985 60.6345 133.818 60.7488 133.618 60.806C133.342 60.8851 133.061 60.8653 132.778 60.7467C132.51 60.6236 132.336 60.4237 132.257 60.1467C132.222 60.0237 132.216 59.8588 132.24 59.6522L132.863 55.805L125.705 47.6167C125.609 47.5112 125.538 47.3816 125.494 47.2277C125.411 46.9354 125.464 46.6541 125.653 46.3838C125.842 46.1134 126.09 45.9343 126.398 45.8463C126.859 45.7144 127.251 45.8353 127.574 46.2089L133.42 53.1248L134.712 44.194ZM146.56 52.6642C145.452 52.9807 144.407 53.0215 143.425 52.7864C142.458 52.5469 141.618 52.0547 140.906 51.3097C140.205 50.5449 139.687 49.578 139.353 48.4088C139.015 47.2242 138.943 46.1297 139.139 45.1253C139.345 44.1011 139.796 43.2319 140.49 42.5176C141.2 41.7988 142.109 41.2812 143.216 40.9646C144.324 40.648 145.361 40.6095 146.328 40.849C147.311 41.0841 148.152 41.584 148.854 42.3487C149.566 43.0937 150.091 44.0585 150.43 45.2431C150.764 46.4123 150.828 47.5089 150.621 48.5331C150.426 49.5375 149.973 50.3991 149.263 51.1178C148.569 51.8321 147.668 52.3476 146.56 52.6642ZM146.032 50.8181C147.063 50.5235 147.751 49.9608 148.096 49.13C148.456 48.2948 148.45 47.2234 148.076 45.9158C147.707 44.6235 147.148 43.7181 146.401 43.1995C145.649 42.6655 144.766 42.5436 143.75 42.8338C142.735 43.124 142.049 43.6943 141.693 44.5449C141.333 45.3801 141.338 46.4438 141.707 47.7361C142.081 49.0437 142.633 49.959 143.365 50.482C144.113 51.0007 145.002 51.1127 146.032 50.8181ZM160.085 36.1933C160.439 36.0921 160.745 36.113 161.002 36.2558C161.274 36.3943 161.461 36.6404 161.562 36.9942L164.247 46.3862C164.339 46.7092 164.306 47.0015 164.148 47.2631C163.99 47.5246 163.734 47.706 163.38 47.8071C163.057 47.8994 162.769 47.8819 162.516 47.7544C162.259 47.6116 162.084 47.3787 161.992 47.0556L161.741 46.1787C161.572 46.926 161.22 47.5589 160.686 48.0777C160.168 48.592 159.524 48.9591 158.755 49.1789C156.016 49.9615 154.216 48.8452 153.354 45.8299L151.64 39.8302C151.538 39.4763 151.559 39.1709 151.702 38.9137C151.86 38.6522 152.124 38.4686 152.493 38.3631C152.847 38.262 153.153 38.2828 153.41 38.4257C153.682 38.5641 153.869 38.8102 153.97 39.1641L155.678 45.1408C155.938 46.0484 156.314 46.6649 156.806 46.9901C157.298 47.3153 157.929 47.368 158.698 47.1482C159.606 46.8888 160.246 46.3898 160.617 45.6513C161.004 44.9084 161.059 44.0524 160.782 43.0832L159.232 37.6604C159.135 37.3219 159.166 37.0219 159.324 36.7604C159.478 36.4834 159.732 36.2944 160.085 36.1933ZM170.408 33.243C171.133 32.9858 171.593 33.1956 171.786 33.8725C171.883 34.211 171.871 34.489 171.75 34.7066C171.629 34.9242 171.365 35.1077 170.959 35.2572L170.286 35.5243C169.343 35.8936 168.717 36.4387 168.407 37.1596C168.113 37.8761 168.084 38.6497 168.322 39.4804L169.832 44.7648C169.938 45.1341 169.909 45.4418 169.746 45.6879C169.584 45.9341 169.333 46.1055 168.995 46.2023C168.656 46.299 168.345 46.288 168.062 46.1694C167.794 46.0463 167.607 45.8002 167.501 45.431L164.817 36.039C164.716 35.6852 164.747 35.3852 164.909 35.139C165.083 34.8731 165.339 34.6917 165.678 34.595C165.985 34.5071 166.268 34.5345 166.525 34.6774C166.793 34.8004 166.975 35.0312 167.072 35.3696L167.389 36.4773C167.503 35.7124 167.802 35.0696 168.285 34.5486C168.769 34.0277 169.371 33.631 170.092 33.3584L170.408 33.243ZM66.5134 108.191C66.6431 108.353 66.7256 108.496 66.7607 108.619C66.8443 108.912 66.7915 109.193 66.6026 109.463C66.429 109.729 66.196 109.904 65.9037 109.987C65.7037 110.045 65.496 110.046 65.2806 109.991C65.0762 109.916 64.8971 109.784 64.7433 109.595L62.231 106.569L53.7851 108.983L53.2514 112.88C53.2206 113.121 53.1306 113.33 52.9811 113.506C52.8273 113.666 52.6504 113.775 52.4504 113.832C52.1427 113.92 51.8372 113.9 51.5339 113.77C51.246 113.636 51.0603 113.423 50.9767 113.13C50.9416 113.007 50.936 112.842 50.9602 112.636L53.3984 96.5381C53.4357 96.2612 53.55 96.0205 53.7412 95.8161C53.9478 95.6073 54.1818 95.4655 54.4433 95.3908C54.7049 95.316 54.9708 95.3149 55.2411 95.3874C55.5268 95.4555 55.7587 95.5973 55.9368 95.8126L66.5134 108.191ZM60.8594 104.914L55.2842 98.2456L54.0981 106.847L60.8594 104.914ZM73.5603 95.9926C73.5867 95.7355 73.6691 95.5289 73.8075 95.3728C73.9614 95.2124 74.1383 95.1036 74.3383 95.0464C74.6306 94.9629 74.913 94.9903 75.1855 95.1287C75.4734 95.2628 75.657 95.4683 75.7361 95.7452C75.7801 95.899 75.7911 96.054 75.7691 96.21L74.0326 106.815C73.9953 107.092 73.881 107.333 73.6898 107.537C73.5096 107.722 73.2965 107.85 73.0503 107.92C72.8042 107.99 72.5481 107.997 72.2822 107.94C72.0273 107.863 71.8108 107.717 71.6327 107.501L64.5541 99.4153C64.4574 99.3098 64.3849 99.1724 64.3365 99.0032C64.2574 98.7263 64.3123 98.4527 64.5013 98.1823C64.6903 97.912 64.9386 97.7328 65.2463 97.6449C65.6924 97.5174 66.0847 97.6382 66.4232 98.0074L72.2688 104.923L73.5603 95.9926ZM81.8809 92.8158C83.3732 92.3893 84.5885 92.4496 85.527 92.9968C86.4809 93.5396 87.1777 94.5802 87.6174 96.1186L89.3255 102.095C89.4267 102.449 89.4058 102.755 89.263 103.012C89.1157 103.253 88.8652 103.425 88.5114 103.526C88.1729 103.623 87.8751 103.6 87.618 103.457C87.3608 103.314 87.1839 103.073 87.0872 102.735L86.8431 101.881C86.7355 102.611 86.44 103.236 85.9565 103.757C85.484 104.258 84.8632 104.619 84.094 104.839C83.3555 105.05 82.6369 105.097 81.938 104.98C81.2347 104.849 80.6292 104.564 80.1214 104.127C79.6291 103.685 79.2884 103.133 79.0993 102.472C78.8663 101.657 78.8915 100.959 79.175 100.379C79.4694 99.7785 80.0727 99.24 80.9847 98.763C81.9121 98.2816 83.2297 97.7969 84.9373 97.3089L85.468 97.1572L85.2768 96.488C85.0306 95.6265 84.6756 95.054 84.2118 94.7705C83.7481 94.487 83.1239 94.4574 82.3393 94.6817C81.8009 94.8355 81.313 95.0499 80.8756 95.3246C80.4383 95.5994 79.9724 95.9489 79.478 96.3731C79.1285 96.7226 78.8692 96.9215 78.7 96.9698C78.4692 97.0358 78.2527 97.0061 78.0505 96.8809C77.8637 96.7512 77.7329 96.5556 77.6582 96.2941C77.5922 96.0634 77.5966 95.8458 77.6713 95.6414C77.757 95.4172 77.9218 95.1787 78.1658 94.926C78.6207 94.4798 79.1855 94.0687 79.8601 93.6929C80.5304 93.3016 81.204 93.0093 81.8809 92.8158ZM84.0147 102.989C84.8608 102.747 85.4718 102.265 85.8475 101.542C86.2189 100.803 86.2748 99.9802 86.0154 99.0725L85.844 98.4725L85.4286 98.5912C84.2286 98.9342 83.321 99.2518 82.7056 99.5442C82.0903 99.8365 81.6815 100.153 81.4794 100.494C81.2728 100.819 81.2377 101.22 81.374 101.697C81.5323 102.251 81.8619 102.648 82.3631 102.887C82.8642 103.127 83.4147 103.161 84.0147 102.989ZM97.8375 98.9386C98.1848 98.8727 98.4496 98.8968 98.632 99.0111C98.8254 99.1056 98.9595 99.2836 99.0343 99.5451C99.1222 99.8528 99.0673 100.126 98.8695 100.366C98.6827 100.586 98.3542 100.746 97.8838 100.847L97.2476 100.979C95.9751 101.243 94.9367 101.132 94.1322 100.647C93.3234 100.146 92.7321 99.2412 92.3584 97.9336L90.8085 92.5107L89.424 92.9064C88.7471 93.0999 88.3229 92.8966 88.1514 92.2967C88.0723 92.0198 88.0953 91.7802 88.2206 91.578C88.3568 91.356 88.5865 91.1988 88.9095 91.1065L90.2941 90.7108L89.6148 88.334C89.5137 87.9801 89.5345 87.6746 89.6774 87.4175C89.8356 87.1559 90.0916 86.9746 90.4454 86.8735C90.7993 86.7724 91.1125 86.791 91.385 86.9294C91.6575 87.0679 91.8444 87.314 91.9455 87.6679L92.6248 90.0447L94.9093 89.3918C95.2324 89.2994 95.5027 89.3137 95.7203 89.4345C95.9489 89.5356 96.1027 89.7246 96.1819 90.0015C96.2654 90.2938 96.2369 90.5433 96.0962 90.7499C95.971 90.9521 95.7468 91.0994 95.4237 91.1917L93.1392 91.8446L94.7353 97.429C94.9419 98.1521 95.2397 98.641 95.6288 98.896C96.0332 99.1465 96.5497 99.2069 97.1782 99.0771L97.8375 98.9386ZM102.365 86.9613C103.858 86.5348 105.073 86.5951 106.012 87.1423C106.965 87.685 107.662 88.7256 108.102 90.264L109.81 96.2407C109.911 96.5945 109.89 96.9 109.747 97.1572C109.6 97.399 109.35 97.5704 108.996 97.6715C108.657 97.7683 108.36 97.7452 108.102 97.6024C107.845 97.4595 107.668 97.2189 107.572 96.8805L107.328 96.0266C107.22 96.7563 106.924 97.3816 106.441 97.9025C105.968 98.4036 105.348 98.7641 104.578 98.984C103.84 99.195 103.121 99.2423 102.422 99.1259C101.719 98.9941 101.114 98.7095 100.606 98.2722C100.114 97.8305 99.7729 97.2789 99.5838 96.6174C99.3508 95.802 99.376 95.1042 99.6595 94.524C99.9539 93.924 100.557 93.3855 101.469 92.9085C102.397 92.4271 103.714 91.9424 105.422 91.4543L105.953 91.3026L105.761 90.6334C105.515 89.7719 105.16 89.1994 104.696 88.916C104.233 88.6325 103.608 88.6029 102.824 88.8271C102.285 88.981 101.797 89.1953 101.36 89.4701C100.923 89.7448 100.457 90.0943 99.9624 90.5185C99.613 90.868 99.3537 91.0669 99.1845 91.1153C98.9537 91.1813 98.7372 91.1516 98.535 91.0263C98.3482 90.8967 98.2174 90.7011 98.1427 90.4396C98.0767 90.2088 98.0811 89.9912 98.1558 89.7868C98.2415 89.5627 98.4063 89.3242 98.6502 89.0714C99.1051 88.6252 99.6699 88.2142 100.345 87.8383C101.015 87.4471 101.689 87.1547 102.365 86.9613ZM104.499 97.1345C105.345 96.8927 105.956 96.4103 106.332 95.6872C106.703 94.9487 106.759 94.1256 106.5 93.218L106.328 92.618L105.913 92.7367C104.713 93.0796 103.805 93.3973 103.19 93.6897C102.575 93.982 102.166 94.2985 101.964 94.6392C101.757 94.9645 101.722 95.3656 101.858 95.8425C102.017 96.3963 102.346 96.793 102.848 97.0325C103.349 97.272 103.899 97.306 104.499 97.1345ZM115.905 83.1416C116.63 82.8844 117.089 83.0942 117.283 83.7711C117.38 84.1096 117.367 84.3876 117.247 84.6052C117.126 84.8228 116.862 85.0063 116.455 85.1558L115.783 85.4229C114.84 85.7922 114.214 86.3373 113.904 87.0582C113.61 87.7747 113.581 88.5483 113.818 89.379L115.329 94.6634C115.434 95.0326 115.406 95.3403 115.243 95.5865C115.081 95.8327 114.83 96.0041 114.492 96.1008C114.153 96.1976 113.842 96.1866 113.559 96.068C113.29 95.9449 113.104 95.6988 112.998 95.3295L110.314 85.9376C110.213 85.5838 110.243 85.2838 110.406 85.0376C110.58 84.7717 110.836 84.5903 111.174 84.4936C111.482 84.4057 111.764 84.4331 112.021 84.5759C112.29 84.699 112.472 84.9297 112.569 85.2682L112.885 86.3758C113 85.611 113.298 84.9681 113.782 84.4472C114.265 83.9263 114.867 83.5296 115.588 83.257L115.905 83.1416Z" fill="#292929"/>
<path d="M262.672 220.036C262.672 220.036 268.743 167.672 273.827 160.69C278.912 153.632 303.12 157.882 304.258 159.172C314.123 170.252 323.23 219.732 323.23 219.732C311.467 227.018 300.615 223.527 290.522 220.112C280.581 216.696 271.399 213.281 262.596 220.112L262.672 220.036Z" fill="#76CBC7"/>
<path d="M263.656 220.036C263.656 220.036 272.307 168.279 277.24 161.221C282.173 154.163 300.993 159.096 302.131 160.462C311.693 171.542 322.165 220.643 322.165 220.643C310.782 227.928 300.31 224.21 290.596 220.491C281.034 216.849 272.156 213.206 263.656 220.036Z" fill="#4B8983"/>
<path d="M303.424 160.69C303.424 160.69 323.382 172.15 339.243 159.855L341.747 162.588C341.747 162.588 329.605 178.297 303.5 169.873L303.424 160.69Z" fill="#564047"/>
<path d="M339.317 159.931C338.254 161.221 326.871 174.274 303.498 167.823V169.872C329.603 178.296 341.745 162.587 341.745 162.587L339.317 159.931Z" fill="#47363C"/>
<path d="M329.756 159.324L336.737 175.185L348.272 157.048L346.451 154.847L329.756 159.324Z" fill="#72AFAD"/>
<path d="M333.095 166.837C336.51 165.775 340.001 163.574 342.733 160.235C344.174 158.565 345.237 156.744 346.072 154.922L329.756 159.324L333.019 166.837H333.095Z" fill="#76CBC7"/>
<path d="M345.541 155.757C344.555 153.784 345.162 149.155 347.59 148.623C349.943 148.092 351.688 150.293 351.992 152.038C352.219 153.784 347.97 160.462 345.541 155.833V155.757Z" fill="#564047"/>
<path d="M277.014 200.532C279.442 204.933 303.346 203.036 306.534 200.001C309.721 197.041 313.212 163.877 299.249 159.248C294.847 157.806 277.848 157.199 276.634 160.538C275.42 163.877 272.991 193.246 277.014 200.456V200.532Z" fill="#564047"/>
<path d="M262.975 240.906C260.243 228.536 262.368 217.076 264.493 212.523C266.617 207.97 276.559 198.028 276.255 191.426L305.775 190.515C305.775 195.675 318.145 201.671 324.444 211.916C330.742 222.161 329.908 239.388 329.908 239.388H327.479C327.479 239.388 321.181 215.559 316.324 212.523C311.467 209.487 304.182 207.438 293.406 208.88C282.25 210.398 264.72 210.398 265.327 240.526L262.899 240.83L262.975 240.906Z" fill="#564047"/>
<path d="M314.199 210.701C309.342 207.666 302.057 205.617 291.281 207.058C280.125 208.576 262.595 208.576 263.203 238.705L262.52 238.78C262.671 239.463 262.747 240.146 262.899 240.829L265.327 240.526C264.72 210.398 282.25 210.398 293.406 208.88C303.726 207.514 310.86 209.335 315.717 212.143C315.185 211.46 314.73 211.005 314.275 210.701H314.199Z" fill="#47363C"/>
<path d="M324.443 211.916C320.042 204.706 312.605 199.622 308.583 195.448C306.837 193.626 306.154 193.323 307.824 194.917C311.998 198.863 318.372 203.644 322.319 210.095C328.617 220.34 327.782 237.567 327.782 237.567H326.948C327.251 238.705 327.479 239.388 327.479 239.388H329.907C329.907 239.388 330.818 222.161 324.443 211.916Z" fill="#47363C"/>
<path d="M273.219 198.18L289.686 210.246L297.655 209.563L312.225 197.876L309.417 192.943L274.205 194.309L273.219 198.18Z" fill="#76CBC7"/>
<path d="M296.214 201.898C290.447 203.568 284.907 204.099 280.43 203.492L289.612 210.246L297.58 209.563L312.151 197.8L310.329 194.613C306.914 197.497 301.982 200.153 296.138 201.898H296.214Z" fill="#61B7B1"/>
<path d="M279.899 159.628C279.899 159.628 259.106 171.011 243.017 158.565L240.361 161.297C240.361 161.297 252.427 177.158 279.519 168.962L279.899 159.704V159.628Z" fill="#564047"/>
<path d="M252.428 222.768C252.428 222.768 262.673 233.62 262.065 242.044C261.914 243.865 254.553 247.811 254.553 247.811H267.529C267.529 247.811 265.101 227.625 273.221 223.982L252.428 222.768Z" fill="#76CBC7"/>
<path d="M273.221 223.982L262.976 223.374C264.646 226.258 265.632 229.901 265.632 233.847C265.632 239.615 263.508 244.624 260.32 247.811H267.454C267.454 247.811 265.025 227.624 273.145 223.982H273.221Z" fill="#72AFAD"/>
<path d="M337.269 224.589C337.269 224.589 329.073 234.683 330.515 242.499C330.819 244.169 338.028 247.812 338.028 247.812H326.038C326.038 247.812 326.189 229.067 318.373 225.728L337.269 224.589Z" fill="#76CBC7"/>
<path d="M338.104 247.812C338.104 247.812 330.894 244.169 330.591 242.499C329.149 234.683 337.345 224.589 337.345 224.589L328.921 225.12C329.377 227.397 329.68 229.902 329.68 232.558C329.68 238.629 328.314 244.093 326.189 247.736V247.887H338.18L338.104 247.812Z" fill="#72AFAD"/>
<path d="M250.453 157.807L241.043 172.909L231.178 153.708L233.454 151.735L250.453 157.807Z" fill="#72AFAD"/>
<path d="M233.455 151.735L231.254 153.708L231.709 154.619C234.441 156.668 238.084 158.489 242.182 159.627C244.382 160.234 246.507 160.69 248.556 160.918L250.529 157.73L233.455 151.659V151.735Z" fill="#76CBC7"/>
<path d="M306.382 159.476C306.382 157.275 299.552 155.681 291.128 155.833C282.705 155.985 275.875 157.882 275.875 160.083C275.875 162.284 282.705 163.878 291.128 163.726C299.552 163.574 306.382 161.677 306.382 159.476Z" fill="#76CBC7"/>
<path d="M294.314 148.244L285.814 148.699L286.346 158.869C288.167 160.614 293.479 160.69 294.845 158.413L294.314 148.244Z" fill="#F8BE84"/>
<path d="M283.844 72.8855L286.196 65.676C286.5 64.6894 287.41 64.0064 288.397 64.0064C289.384 63.9305 290.37 64.5376 290.75 65.5242L294.164 73.4167L283.844 72.9614V72.8855Z" fill="#5F474F"/>
<path d="M297.883 73.8719L301.601 67.2695C302.133 66.3588 303.119 65.9035 304.106 66.0553C305.092 66.207 305.927 66.9659 306.155 67.9525L307.976 76.3004L297.883 73.8719Z" fill="#5F474F"/>
<path d="M271.702 78.4246L270.715 70.9115C270.563 69.9249 271.095 68.9384 272.005 68.4071C272.916 67.9518 273.978 68.0277 274.813 68.7107L281.264 74.3265L271.702 78.4246Z" fill="#5F474F"/>
<path d="M279.063 194.916L275.648 194.84V196.585L279.063 196.661V194.916Z" fill="#FBF282"/>
<path d="M284.677 194.688L281.262 194.84L281.338 196.585L284.753 196.434L284.677 194.688Z" fill="#FBF282"/>
<path d="M290.597 194.385L287.182 194.537L287.258 196.282L290.673 196.13L290.597 194.385Z" fill="#FBF282"/>
<path d="M296.593 194.082L293.178 194.233L293.254 195.979L296.669 195.827L296.593 194.082Z" fill="#FBF282"/>
<path d="M302.589 193.93L299.174 194.157L299.25 195.903L302.665 195.675L302.589 193.93Z" fill="#FBF282"/>
<path d="M308.81 193.475L305.471 193.702L305.547 195.448L308.962 195.22L308.81 193.475Z" fill="#FBF282"/>
<path d="M295.681 167.368L288.244 173.364L292.874 175.337L286.803 180.346L291.052 182.319L284.678 188.466L295.302 182.319L290.066 180.118L300.386 174.578L292.722 172.529L295.681 167.368Z" fill="#FBF282"/>
<path d="M309.568 163.346C308.354 162.967 307.292 162.512 306.381 162.132C307.292 162.512 308.354 162.967 309.568 163.346Z" fill="#B3A6A1"/>
<path d="M306.382 162.132C305.699 161.829 305.092 161.601 304.637 161.373C304.94 161.221 305.244 160.994 305.547 160.842C305.851 161.221 306.079 161.677 306.382 162.132Z" fill="#59887F"/>
<path d="M306.307 166.23C305.548 164.561 304.562 163.119 303.348 161.905C303.803 161.753 304.258 161.525 304.638 161.373C305.093 161.601 305.7 161.905 306.383 162.132C307.294 162.512 308.356 162.967 309.57 163.347C308.736 164.409 307.673 165.396 306.307 166.23Z" fill="#423436"/>
<path d="M269.5 163.346C270.714 163.042 271.853 162.739 272.839 162.435C271.777 162.739 270.638 163.042 269.5 163.346Z" fill="#B3A6A1"/>
<path d="M272.838 162.436C273.141 161.677 273.445 161.07 273.748 160.69C274.811 159.248 276.708 158.338 278.984 157.73C276.936 158.413 275.721 159.324 275.721 160.235C275.721 160.614 275.949 160.994 276.328 161.297C275.342 161.677 274.128 162.132 272.762 162.587L272.838 162.436Z" fill="#59887F"/>
<path d="M290.751 170.024C287.033 170.024 283.162 169.493 279.596 168.43L279.823 162.663C282.404 163.346 285.97 163.725 289.992 163.725C290.372 163.725 290.751 163.725 291.131 163.725C296.139 163.649 300.617 162.891 303.424 161.904C304.563 163.118 305.549 164.56 306.384 166.23C303.273 168.203 298.947 169.493 294.242 169.872L295.684 167.368L292.421 170.024C291.889 170.024 291.358 170.024 290.751 170.024Z" fill="#423436"/>
<path d="M279.593 168.431C275.875 167.368 272.46 165.623 269.5 163.346C270.714 163.043 271.853 162.739 272.839 162.435C274.205 161.98 275.419 161.601 276.406 161.145C277.089 161.676 278.227 162.208 279.745 162.587L279.517 168.355L279.593 168.431Z" fill="#423436"/>
<path d="M289.99 163.726C285.968 163.726 282.401 163.347 279.821 162.664C278.303 162.284 277.165 161.753 276.482 161.222C276.103 160.842 275.875 160.539 275.875 160.159C275.875 159.248 277.089 158.414 279.138 157.655C279.138 157.655 279.138 157.655 279.214 157.655C281.035 157.048 283.464 156.516 286.272 156.213L286.423 158.869C287.258 159.704 288.928 160.159 290.597 160.159C292.418 160.159 294.24 159.628 294.999 158.414L294.847 155.985C301.373 156.289 306.23 157.655 306.533 159.4C306.533 159.4 306.533 159.4 306.533 159.476C306.533 159.932 306.23 160.311 305.699 160.766C305.471 160.918 305.168 161.146 304.788 161.298C304.409 161.525 304.029 161.677 303.498 161.829C300.69 162.815 296.289 163.574 291.204 163.65C290.825 163.65 290.445 163.65 290.066 163.65L289.99 163.726Z" fill="#59887F"/>
<path d="M290.523 160.083C288.853 160.083 287.184 159.628 286.349 158.793L286.197 156.137L286.121 154.695C287.108 154.771 288.094 154.771 289.081 154.771C289.384 154.771 289.688 154.771 289.991 154.771C291.661 154.771 293.179 154.619 294.696 154.467L294.772 155.833L294.924 158.262C294.165 159.476 292.42 160.007 290.523 160.007V160.083Z" fill="#B07E59"/>
<path d="M292.418 170.025L295.681 167.368L294.239 169.873C293.632 169.949 293.025 169.949 292.418 170.025Z" fill="#B59F55"/>
<path d="M258.875 153.253C253.942 142.628 237.703 97.7773 267.071 81.6886H317.991C317.991 81.6886 349.409 116.902 318.447 153.253H258.875Z" fill="#564047"/>
<path d="M261.608 153.253C257.131 142.628 242.257 97.7773 269.121 81.6886H315.716C315.716 81.6886 344.477 116.902 316.171 153.253H261.684H261.608Z" fill="#47373C"/>
<path d="M251.745 115.839C253.111 136.481 265.329 155.302 289.992 154.846C319.664 154.315 328.467 131.927 328.922 116.066C329.302 101.723 320.119 73.4922 289.992 73.7958C271.324 74.0234 250.075 89.8844 251.745 115.763V115.839Z" fill="#F8BE84"/>
<path d="M327.252 128.816H253.793L256.904 135.494H323.989L327.252 128.816Z" fill="#EEA475"/>
<path fill-rule="evenodd" clip-rule="evenodd" d="M326.72 128.816C328.086 124.415 328.693 120.013 328.845 116.067C329.224 103.469 322.091 80.0192 299.932 74.8586C321.635 79.9433 328.921 102.331 328.921 115.156C328.921 115.46 328.921 115.763 328.921 116.067C328.769 120.089 328.162 124.491 326.796 128.816H326.72Z" fill="url(#paint0_linear)"/>
<path fill-rule="evenodd" clip-rule="evenodd" d="M323.986 135.494C324.29 134.887 324.593 134.356 324.821 133.749L324.897 133.521L325.049 133.218C325.125 133.066 325.201 132.914 325.201 132.838C325.732 131.548 326.263 130.182 326.642 128.816C326.187 130.182 325.732 131.472 325.201 132.838C325.125 132.99 325.049 133.142 325.049 133.218L324.897 133.521L324.821 133.749C324.518 134.356 324.29 134.887 323.986 135.494Z" fill="url(#paint1_linear)"/>
<path d="M253.107 133.825H327.705C329.829 128.209 332.03 122.441 332.182 117.357C332.637 101.723 322.62 70.9879 289.913 71.3674C269.651 71.595 246.581 88.898 248.402 117.129C248.782 122.973 251.058 128.664 253.107 133.901V133.825Z" fill="#564047"/>
<path d="M249.772 124.262C260.017 105.138 280.658 92.0849 304.487 92.0849C312.758 92.0849 320.651 93.6786 327.86 96.5625C322.244 83.5094 310.633 71.1393 289.84 71.367C269.578 71.5947 246.509 88.8976 248.33 117.129C248.482 119.557 249.013 121.986 249.62 124.338L249.772 124.262Z" fill="#5F474F"/>
<path d="M251.439 118.571C250.984 91.0232 271.853 74.4792 291.052 72.8855H290.976C272.004 72.2025 249.542 87.3805 249.997 113.866C250.073 116.143 250.376 118.419 250.908 120.62C251.059 120.317 251.287 120.013 251.439 119.785C251.439 119.406 251.363 118.951 251.363 118.571H251.439Z" fill="#6E555F"/>
<path d="M250.302 121.227C246.887 118.723 242.713 125.401 244.989 128.133C247.266 130.865 252.806 132.99 252.806 132.99L250.302 121.227Z" fill="#F8BE84"/>
<path d="M330.288 121.227C333.551 118.723 337.497 125.401 335.296 128.133C333.096 130.865 327.859 132.99 327.859 132.99L330.288 121.227Z" fill="#F8BE84"/>
<path d="M330.741 122.593C333.17 120.695 336.129 125.704 334.46 127.753C332.866 129.802 328.92 131.396 328.92 131.396L330.741 122.593Z" fill="#EEA472"/>
<path d="M329.908 124.642C331.35 123.504 333.095 126.464 332.109 127.678C331.122 128.892 328.846 129.803 328.846 129.803L329.908 124.642Z" fill="#F8BE84"/>
<path d="M249.618 123.124C247.265 121.531 244.306 125.477 245.823 127.147C247.341 128.816 251.135 130.182 251.135 130.182L249.618 123.049V123.124Z" fill="#EEA472"/>
<path d="M250.377 124.718C249.011 123.807 247.265 126.084 248.176 127.07C249.087 128.057 251.287 128.892 251.287 128.892L250.377 124.718Z" fill="#F8BE84"/>
<path d="M337.725 224.514L318.07 225.425V227.55L337.725 226.563V224.514Z" fill="#FBF282"/>
<path d="M273.294 223.679L251.666 222.541V224.59L273.294 225.804V223.679Z" fill="#FBF282"/>
<path d="M280.809 140.276H298.49C298.49 140.276 291.205 156.061 280.809 140.276Z" fill="#4C3C32"/>
<path d="M282.705 140.807L285.361 144.829H293.936L296.896 140.807H282.705Z" fill="#FEEDDF"/>
<path d="M294.467 134.735C294.467 133.369 292.646 132.231 290.369 132.231C288.093 132.231 286.271 133.369 286.271 134.735C286.271 136.101 288.093 137.24 290.369 137.24C292.646 137.24 294.467 136.101 294.467 134.735Z" fill="#EFA766"/>
<path d="M293.86 134.129C293.86 133.066 292.418 132.156 290.597 132.156C288.776 132.156 287.334 133.066 287.334 134.129C287.334 135.191 288.776 136.102 290.597 136.102C292.418 136.102 293.86 135.191 293.86 134.129Z" fill="#F8BE84"/>
<path d="M267.225 130.182C267.225 130.182 274.814 127.374 283.237 129.12C283.237 129.12 281.34 116.977 273.903 117.888C266.542 118.799 266.542 127.374 267.225 130.182Z" fill="#FEEDDF"/>
<path d="M311.922 130.182C311.922 130.182 304.865 127.374 296.973 129.12C296.973 129.12 298.794 116.977 305.7 117.888C312.605 118.799 312.605 127.374 311.922 130.182Z" fill="#FEEDDF"/>
<path d="M304.333 112.196C302.512 113.865 313.212 116.901 314.274 116.294C315.261 115.687 308.355 108.477 304.333 112.196Z" fill="#6E555F"/>
<path d="M277.773 111.665C278.456 109.312 267.755 112.424 267.224 113.41C266.693 114.473 276.331 116.977 277.773 111.665Z" fill="#6E555F"/>
<path d="M306.079 124.946C306.079 123.2 304.941 121.758 303.575 121.758C302.209 121.758 301.07 123.2 301.07 124.946C301.07 126.691 302.209 128.133 303.575 128.133C304.941 128.133 306.079 126.691 306.079 124.946Z" fill="#89ACC2"/>
<path d="M304.789 124.11C304.789 123.503 304.409 123.048 303.954 123.048C303.499 123.048 303.119 123.503 303.119 124.11C303.119 124.718 303.499 125.173 303.954 125.173C304.409 125.173 304.789 124.718 304.789 124.11Z" fill="#C1DFEE"/>
<path d="M278.382 124.946C278.382 123.2 277.243 121.758 275.877 121.758C274.511 121.758 273.373 123.2 273.373 124.946C273.373 126.691 274.511 128.133 275.877 128.133C277.243 128.133 278.382 126.691 278.382 124.946Z" fill="#89ACC2"/>
<path d="M277.392 124.11C277.392 123.503 277.013 123.048 276.557 123.048C276.102 123.048 275.723 123.503 275.723 124.11C275.723 124.718 276.102 125.173 276.557 125.173C277.013 125.173 277.392 124.718 277.392 124.11Z" fill="#C1DFEE"/>
<path d="M346.983 150.748C346.376 149.686 345.389 149.003 344.782 149.307C344.251 149.61 344.251 150.673 344.858 151.811C345.465 152.873 346.451 153.556 347.059 153.253C347.59 152.949 347.59 151.887 346.983 150.748Z" fill="#F8BE84"/>
<path d="M346.072 153.025C345.996 151.887 345.465 149.231 344.782 149.306C343.72 149.382 343.113 153.784 345.693 155.15C346.224 155.453 346.224 154.163 346.072 152.949V153.025Z" fill="#F8BE84"/>
<path d="M348.271 147.788C347.284 147.712 346.525 148.092 346.525 148.623C346.525 149.154 347.36 149.685 348.271 149.761C349.257 149.837 350.016 149.458 350.016 148.927C350.016 148.395 349.181 147.864 348.271 147.788Z" fill="#F8BE84"/>
<path d="M348.35 149.003C348.198 148.32 347.591 147.865 347.06 147.941C346.528 148.092 346.301 148.775 346.452 149.458C346.604 150.141 347.211 150.597 347.743 150.521C348.274 150.369 348.501 149.686 348.35 149.003Z" fill="#F8BE84"/>
<path d="M350.018 152.115C349.866 151.432 349.259 150.976 348.727 151.052C348.196 151.204 347.969 151.887 348.12 152.57C348.272 153.253 348.879 153.708 349.41 153.632C349.942 153.481 350.169 152.798 350.018 152.115Z" fill="#F8BE84"/>
<path d="M349.41 150.142C349.258 149.458 348.651 149.003 348.12 149.079C347.589 149.231 347.361 149.914 347.513 150.597C347.665 151.28 348.272 151.735 348.803 151.659C349.334 151.508 349.562 150.825 349.41 150.142Z" fill="#F8BE84"/>
<path d="M349.714 149.306C348.804 149.306 348.045 149.685 348.045 150.217C348.045 150.748 348.804 151.203 349.714 151.203C350.625 151.203 351.384 150.824 351.384 150.292C351.384 149.761 350.625 149.306 349.714 149.306Z" fill="#F8BE84"/>
<path d="M350.093 150.976C349.03 150.976 348.195 151.431 348.195 151.962C348.195 152.494 349.03 152.949 350.093 152.949C351.155 152.949 351.99 152.494 351.99 151.962C351.99 151.431 351.155 150.976 350.093 150.976Z" fill="#F8BE84"/>
<path d="M234.82 152.038C235.578 149.913 233.985 145.436 231.329 145.36C228.673 145.284 227.079 147.788 227.155 149.534C227.155 151.279 233.074 156.971 234.82 151.962V152.038Z" fill="#564047"/>
<path d="M232.317 147.409C232.849 146.195 233.759 145.36 234.442 145.588C235.125 145.74 235.277 146.878 234.746 148.016C234.291 149.231 233.304 150.066 232.621 149.838C231.938 149.686 231.786 148.548 232.317 147.333V147.409Z" fill="#F8BE84"/>
<path d="M233.681 149.458C233.605 148.319 233.681 145.663 234.44 145.587C235.579 145.512 237.096 149.686 234.516 151.507C233.985 151.886 233.757 150.596 233.681 149.458Z" fill="#F8BE84"/>
<path d="M230.344 144.753C231.407 144.45 232.317 144.677 232.469 145.208C232.545 145.74 231.786 146.347 230.724 146.65C229.661 146.954 228.751 146.726 228.599 146.195C228.523 145.664 229.282 145.057 230.344 144.753Z" fill="#F8BE84"/>
<path d="M230.496 145.967C230.572 145.208 231.103 144.677 231.71 144.677C232.317 144.677 232.697 145.36 232.621 146.043C232.545 146.802 232.014 147.333 231.407 147.333C230.8 147.333 230.42 146.65 230.496 145.967Z" fill="#F8BE84"/>
<path d="M229.281 149.383C229.357 148.624 229.888 148.092 230.495 148.092C231.102 148.092 231.482 148.775 231.406 149.458C231.33 150.217 230.799 150.749 230.192 150.749C229.585 150.749 229.205 150.066 229.281 149.383Z" fill="#F8BE84"/>
<path d="M229.508 147.333C229.584 146.574 230.115 146.043 230.722 146.043C231.329 146.043 231.708 146.726 231.632 147.409C231.557 148.168 231.025 148.699 230.418 148.699C229.811 148.699 229.432 148.016 229.508 147.333Z" fill="#F8BE84"/>
<path d="M229.052 146.574C230.114 146.346 230.949 146.65 231.101 147.181C231.177 147.713 230.418 148.32 229.431 148.547C228.445 148.775 227.534 148.471 227.382 147.94C227.306 147.409 228.065 146.802 229.052 146.574Z" fill="#F8BE84"/>
<path d="M228.902 148.244C230.04 148.016 231.027 148.32 231.103 148.851C231.179 149.382 230.344 149.989 229.206 150.141C228.067 150.369 227.081 150.065 227.005 149.534C226.929 149.003 227.764 148.396 228.902 148.244Z" fill="#F8BE84"/>
<path d="M290.598 87.1521L287.486 93.0715L290.598 98.915L293.633 93.0715L290.598 87.1521Z" fill="#76CBC7"/>
<defs>
<linearGradient id="paint0_linear" x1="314.208" y1="74.6615" x2="314.847" y2="128.96" gradientUnits="userSpaceOnUse">
<stop stop-color="#E89963"/>
<stop offset="1" stop-color="#E59361"/>
</linearGradient>
<linearGradient id="paint1_linear" x1="325.289" y1="128.775" x2="325.367" y2="135.481" gradientUnits="userSpaceOnUse">
<stop stop-color="#DB8456"/>
<stop offset="1" stop-color="#DA7F55"/>
</linearGradient>
</defs>
</svg>
